<svg width="166" height="40" viewBox="0 0 166 40" fill="none" xmlns="http://www.w3.org/2000/svg">
    <path d="M24.3507 19.2719C24.3624 18.3618 24.6042 17.4694 25.0535 16.6778C25.5028 15.8862 26.145 15.2211 26.9204 14.7444C26.4278 14.0409 25.7779 13.462 25.0225 13.0535C24.267 12.6451 23.4267 12.4185 22.5683 12.3916C20.7372 12.1994 18.9621 13.4873 18.029 13.4873C17.0778 13.4873 15.6412 12.4107 14.0942 12.4425C13.0935 12.4749 12.1183 12.7659 11.2635 13.2871C10.4088 13.8084 9.70361 14.5422 9.21677 15.4171C7.10789 19.0683 8.68092 24.4343 10.7011 27.3857C11.7118 28.8309 12.893 30.4452 14.4386 30.388C15.9511 30.3252 16.516 29.4235 18.3417 29.4235C20.1505 29.4235 20.6804 30.388 22.2574 30.3516C23.8804 30.3252 24.9029 28.8999 25.8782 27.4411C26.6044 26.4113 27.1632 25.2732 27.5339 24.0689C26.591 23.6701 25.7864 23.0026 25.2203 22.1495C24.6542 21.2965 24.3518 20.2957 24.3507 19.2719Z" fill="white"/>
    <path d="M21.3722 10.4508C22.2571 9.38849 22.693 8.02308 22.5875 6.64453C21.2355 6.78653 19.9867 7.43267 19.0898 8.45421C18.6513 8.95326 18.3155 9.53385 18.1015 10.1628C17.8875 10.7917 17.7996 11.4566 17.8427 12.1196C18.5189 12.1265 19.1879 11.98 19.7993 11.6909C20.4106 11.4018 20.9484 10.9778 21.3722 10.4508Z" fill="white"/>
    <path d="M50.7395 26.7296L45.578 26.7296L44.3385 30.3895L42.1523 30.3895L47.0412 16.8486L49.3125 16.8486L54.2013 30.3895L51.9779 30.3895L50.7395 26.7296ZM46.1126 25.0407L50.2039 25.0407L48.187 19.1009L48.1306 19.1009L46.1126 25.0407Z" fill="white"/>
    <path d="M64.7595 25.454C64.7595 28.5219 63.1175 30.4929 60.6395 30.4929C60.0118 30.5258 59.3875 30.3812 58.8382 30.0757C58.2888 29.7702 57.8366 29.3162 57.5333 28.7657L57.4864 28.7657L57.4864 33.6556L55.46 33.6556L55.46 20.5172L57.4215 20.5172L57.4215 22.1593L57.4588 22.1593C57.776 21.6114 58.2359 21.1597 58.7894 20.8524C59.3429 20.545 59.9694 20.3935 60.6022 20.4139C63.1078 20.4139 64.7595 22.3946 64.7595 25.454ZM62.6766 25.454C62.6766 23.4552 61.6437 22.1412 60.0677 22.1412C58.5194 22.1412 57.4779 23.4829 57.4779 25.454C57.4779 27.4431 58.5194 28.7753 60.0677 28.7753C61.6437 28.7753 62.6766 27.4708 62.6766 25.454Z" fill="white"/>
    <path d="M75.6252 25.454C75.6252 28.5218 73.9832 30.4929 71.5052 30.4929C70.8775 30.5258 70.2533 30.3812 69.7039 30.0757C69.1546 29.7702 68.7023 29.3162 68.399 28.7657L68.3521 28.7657L68.3521 33.6556L66.3257 33.6556L66.3257 20.5172L68.2872 20.5172L68.2872 22.1592L68.3244 22.1592C68.6417 21.6113 69.1016 21.1597 69.6551 20.8524C70.2086 20.545 70.8351 20.3935 71.4679 20.4139C73.9736 20.4139 75.6252 22.3946 75.6252 25.454ZM73.5423 25.454C73.5423 23.4552 72.5094 22.1411 70.9334 22.1411C69.3851 22.1411 68.3436 23.4829 68.3436 25.454C68.3436 27.4431 69.3851 28.7753 70.9334 28.7753C72.5094 28.7753 73.5423 27.4708 73.5423 25.454L73.5423 25.454Z" fill="white"/>
    <path d="M82.8073 26.6169C82.9575 27.9597 84.2619 28.8414 86.0445 28.8414C87.7526 28.8414 88.9814 27.9597 88.9814 26.7489C88.9814 25.6979 88.2403 25.0685 86.4854 24.6373L84.7305 24.2145C82.244 23.6139 81.0897 22.4511 81.0897 20.5641C81.0897 18.2278 83.1257 16.623 86.0168 16.623C88.8781 16.623 90.8396 18.2278 90.9057 20.5641L88.86 20.5641C88.7376 19.2128 87.6205 18.3971 85.9881 18.3971C84.3556 18.3971 83.2386 19.2224 83.2386 20.4236C83.2386 21.3809 83.952 21.9442 85.6973 22.3754L87.1892 22.7418C89.9675 23.3988 91.1218 24.5148 91.1218 26.4954C91.1218 29.0287 89.1039 30.6154 85.8943 30.6154C82.8914 30.6154 80.8639 29.066 80.7329 26.6168L82.8073 26.6169Z" fill="white"/>
    <path d="M95.4949 18.1807L95.4949 20.517L97.3723 20.517L97.3723 22.1217L95.4949 22.1217L95.4949 27.5643C95.4949 28.4098 95.8708 28.8038 96.6961 28.8038C96.9189 28.7999 97.1415 28.7843 97.3627 28.7569L97.3627 30.3521C96.9916 30.4214 96.6145 30.4528 96.2371 30.4458C94.2384 30.4458 93.4589 29.6951 93.4589 27.7804L93.4589 22.1217L92.0234 22.1217L92.0234 20.517L93.4588 20.517L93.4588 18.1807L95.4949 18.1807Z" fill="white"/>
    <path d="M98.4595 25.4536C98.4595 22.3474 100.289 20.3955 103.142 20.3955C106.004 20.3955 107.825 22.3474 107.825 25.4536C107.825 28.5684 106.014 30.5118 103.142 30.5118C100.271 30.5118 98.4595 28.5684 98.4595 25.4536ZM105.76 25.4536C105.76 23.3228 104.784 22.0652 103.142 22.0652C101.5 22.0652 100.524 23.3324 100.524 25.4536C100.524 27.593 101.5 28.841 103.142 28.841C104.784 28.841 105.76 27.593 105.76 25.4536L105.76 25.4536Z" fill="white"/>
    <path d="M109.496 20.5171L111.429 20.5171L111.429 22.1975L111.476 22.1975C111.606 21.6727 111.914 21.2089 112.346 20.8841C112.779 20.5592 113.31 20.3932 113.85 20.4138C114.084 20.413 114.317 20.4384 114.545 20.4894L114.545 22.3849C114.25 22.2948 113.942 22.2535 113.634 22.2624C113.34 22.2505 113.046 22.3024 112.774 22.4146C112.501 22.5268 112.256 22.6966 112.056 22.9124C111.855 23.1282 111.704 23.3848 111.612 23.6647C111.52 23.9446 111.489 24.2411 111.523 24.5338L111.523 30.3895L109.496 30.3895L109.496 20.5171Z" fill="white"/>
    <path d="M123.887 27.4897C123.615 29.2818 121.87 30.5118 119.636 30.5118C116.765 30.5118 114.982 28.5875 114.982 25.5005C114.982 22.4039 116.774 20.3955 119.551 20.3955C122.283 20.3955 124 22.2718 124 25.2652L124 25.9594L117.028 25.9594L117.028 26.0819C116.995 26.4452 117.041 26.8113 117.161 27.1557C117.281 27.5001 117.473 27.815 117.724 28.0794C117.976 28.3439 118.28 28.5519 118.618 28.6897C118.956 28.8274 119.319 28.8917 119.683 28.8782C120.162 28.9231 120.643 28.8122 121.054 28.562C121.464 28.3118 121.783 27.9357 121.963 27.4897L123.887 27.4897ZM117.037 24.5432L121.973 24.5432C121.991 24.2165 121.941 23.8896 121.827 23.5829C121.713 23.2763 121.537 22.9966 121.31 22.7613C121.082 22.526 120.809 22.3403 120.506 22.2157C120.203 22.0912 119.878 22.0305 119.551 22.0375C119.221 22.0356 118.894 22.099 118.589 22.2241C118.283 22.3492 118.006 22.5336 117.772 22.7665C117.538 22.9995 117.353 23.2764 117.227 23.5813C117.101 23.8863 117.036 24.2132 117.037 24.5432L117.037 24.5432Z" fill="white"/>
    <path d="M45.858 6.65582C46.2828 6.62533 46.7091 6.68952 47.1062 6.84374C47.5032 6.99796 47.8611 7.23838 48.1539 7.54765C48.4468 7.85692 48.6674 8.22734 48.7998 8.63218C48.9322 9.03703 48.973 9.4662 48.9195 9.88876C48.9195 11.9674 47.796 13.1622 45.858 13.1622L43.5078 13.1622L43.5078 6.65582L45.858 6.65582ZM44.5184 12.2421L45.7451 12.2421C46.0487 12.2602 46.3525 12.2104 46.6344 12.0964C46.9163 11.9823 47.1693 11.8068 47.3748 11.5826C47.5803 11.3585 47.7333 11.0913 47.8226 10.8006C47.9118 10.5099 47.9351 10.2029 47.8908 9.90202C47.9319 9.60233 47.9062 9.29726 47.8156 9.00867C47.725 8.72007 47.5716 8.45509 47.3666 8.23272C47.1615 8.01035 46.9098 7.83609 46.6294 7.72243C46.3491 7.60877 46.0471 7.55852 45.7451 7.57528L44.5184 7.57528L44.5184 12.2421Z" fill="white"/>
    <path d="M50.0608 10.7059C50.0299 10.3832 50.0668 10.0576 50.1691 9.75003C50.2715 9.44246 50.4369 9.15966 50.655 8.91979C50.873 8.67991 51.1387 8.48825 51.4352 8.3571C51.7316 8.22595 52.0522 8.1582 52.3763 8.1582C52.7005 8.1582 53.021 8.22595 53.3175 8.3571C53.6139 8.48825 53.8797 8.67991 54.0977 8.91979C54.3157 9.15966 54.4812 9.44246 54.5835 9.75003C54.6858 10.0576 54.7227 10.3832 54.6919 10.7059C54.7233 11.0289 54.6869 11.3549 54.5848 11.6629C54.4827 11.971 54.3174 12.2543 54.0993 12.4947C53.8812 12.735 53.6153 12.9271 53.3185 13.0585C53.0218 13.19 52.7009 13.2579 52.3763 13.2579C52.0518 13.2579 51.7308 13.19 51.4341 13.0585C51.1374 12.9271 50.8714 12.735 50.6533 12.4947C50.4353 12.2543 50.2699 11.971 50.1678 11.6629C50.0658 11.3549 50.0293 11.0289 50.0608 10.7059ZM53.6951 10.7059C53.6951 9.64152 53.217 9.0191 52.3779 9.0191C51.5356 9.0191 51.0618 9.64152 51.0618 10.7059C51.0618 11.7787 51.5356 12.3963 52.3779 12.3963C53.217 12.3963 53.6952 11.7744 53.6952 10.7059L53.6951 10.7059Z" fill="white"/>
    <path d="M60.848 13.1621L59.8428 13.1621L58.8279 9.54577L58.7513 9.54577L57.7407 13.1621L56.7451 13.1621L55.3916 8.25195L56.3745 8.25195L57.2541 11.9987L57.3265 11.9987L58.336 8.25195L59.2656 8.25195L60.2751 11.9987L60.3518 11.9987L61.2271 8.25195L62.1961 8.25195L60.848 13.1621Z" fill="white"/>
    <path d="M63.335 8.25196L64.2678 8.25196L64.2678 9.03197L64.3402 9.03197C64.463 8.75182 64.6702 8.51697 64.9329 8.36016C65.1955 8.20335 65.5006 8.13239 65.8055 8.15718C66.0444 8.13921 66.2843 8.17524 66.5074 8.26258C66.7305 8.34992 66.9311 8.48633 67.0943 8.66172C67.2575 8.83711 67.3792 9.04697 67.4503 9.27577C67.5214 9.50456 67.5401 9.74642 67.505 9.98342L67.505 13.162L66.536 13.162L66.536 10.2268C66.536 9.4377 66.1931 9.04529 65.4764 9.04529C65.3142 9.03773 65.1523 9.06534 65.0017 9.12622C64.8512 9.1871 64.7156 9.27981 64.6042 9.39799C64.4929 9.51618 64.4084 9.65704 64.3566 9.81094C64.3047 9.96483 64.2868 10.1281 64.304 10.2896L64.304 13.1621L63.335 13.1621L63.335 8.25196Z" fill="white"/>
    <path d="M69.0488 6.33496L70.0179 6.33496L70.0179 13.1618L69.0488 13.1618L69.0488 6.33496Z" fill="white"/>
    <path d="M71.3649 10.705C71.3341 10.3823 71.371 10.0567 71.4734 9.7491C71.5757 9.44151 71.7412 9.15871 71.9593 8.91883C72.1773 8.67895 72.4431 8.48728 72.7395 8.35613C73.036 8.22498 73.3566 8.15723 73.6808 8.15723C74.0049 8.15723 74.3255 8.22498 74.622 8.35613C74.9184 8.48728 75.1842 8.67895 75.4022 8.91883C75.6203 9.15871 75.7858 9.44151 75.8881 9.7491C75.9905 10.0567 76.0274 10.3823 75.9966 10.705C76.028 11.028 75.9915 11.354 75.8894 11.6621C75.7873 11.9701 75.6219 12.2535 75.4038 12.4938C75.1857 12.7341 74.9197 12.9262 74.623 13.0576C74.3262 13.189 74.0053 13.2569 73.6808 13.2569C73.3562 13.2569 73.0352 13.189 72.7385 13.0576C72.4418 12.9262 72.1758 12.7341 71.9577 12.4938C71.7396 12.2535 71.5742 11.9701 71.4721 11.6621C71.37 11.354 71.3335 11.028 71.3649 10.705ZM74.9993 10.705C74.9993 9.64063 74.5212 9.01822 73.6821 9.01822C72.8398 9.01822 72.3659 9.64063 72.3659 10.705C72.3659 11.7778 72.8398 12.3955 73.6821 12.3955C74.5212 12.3954 74.9993 11.7736 74.9993 10.705L74.9993 10.705Z" fill="white"/>
    <path d="M77.0166 11.7735C77.0166 10.8897 77.6747 10.3801 78.8428 10.3077L80.1729 10.2311L80.1729 9.80724C80.1729 9.28864 79.83 8.99581 79.1676 8.99581C78.6267 8.99581 78.2519 9.19441 78.1443 9.54156L77.2061 9.54156C77.3052 8.69818 78.0985 8.15723 79.2124 8.15723C80.4434 8.15723 81.1376 8.77005 81.1376 9.80724L81.1376 13.1621L80.2048 13.1621L80.2048 12.4721L80.1281 12.4721C79.9725 12.7196 79.754 12.9214 79.4949 13.0568C79.2358 13.1923 78.9454 13.2565 78.6533 13.243C78.4472 13.2644 78.2388 13.2425 78.0417 13.1785C77.8446 13.1144 77.6631 13.0098 77.5089 12.8714C77.3547 12.7329 77.2312 12.5637 77.1464 12.3746C77.0616 12.1855 77.0174 11.9808 77.0166 11.7735ZM80.1729 11.354L80.1729 10.9435L78.9738 11.0201C78.2976 11.0654 77.9909 11.2954 77.9909 11.7283C77.9909 12.1702 78.3743 12.4273 78.9015 12.4273C79.0559 12.443 79.2119 12.4274 79.3602 12.3815C79.5085 12.3356 79.6461 12.2603 79.7647 12.1602C79.8833 12.06 79.9806 11.937 80.0507 11.7985C80.1208 11.66 80.1624 11.5088 80.1729 11.354Z" fill="white"/>
    <path d="M82.4111 10.7047C82.4111 9.15316 83.2087 8.17028 84.4493 8.17028C84.7562 8.15614 85.0607 8.22964 85.3273 8.38218C85.594 8.53473 85.8117 8.76002 85.955 9.03172L86.0274 9.03172L86.0274 6.33496L86.9965 6.33496L86.9965 13.1618L86.0679 13.1618L86.0679 12.3861L85.9912 12.3861C85.8368 12.6559 85.6115 12.8784 85.3397 13.0294C85.0679 13.1804 84.76 13.2542 84.4493 13.2428C83.2002 13.2428 82.4111 12.2599 82.4111 10.7047ZM83.4121 10.7047C83.4121 11.7461 83.9031 12.3728 84.7241 12.3728C85.5408 12.3728 86.0456 11.7371 86.0456 10.7089C86.0456 9.68559 85.5355 9.04081 84.7241 9.04081C83.9083 9.04081 83.4121 9.67174 83.4121 10.7047L83.4121 10.7047Z" fill="white"/>
    <path d="M91.0061 10.7059C90.9752 10.3832 91.0121 10.0576 91.1144 9.75003C91.2168 9.44246 91.3822 9.15966 91.6003 8.91979C91.8183 8.67991 92.084 8.48825 92.3805 8.3571C92.6769 8.22595 92.9975 8.1582 93.3216 8.1582C93.6458 8.1582 93.9664 8.22595 94.2628 8.3571C94.5592 8.48825 94.825 8.67991 95.043 8.91979C95.261 9.15966 95.4265 9.44246 95.5288 9.75003C95.6311 10.0576 95.6681 10.3832 95.6372 10.7059C95.6686 11.0289 95.6322 11.3549 95.5301 11.6629C95.4281 11.971 95.2627 12.2543 95.0446 12.4947C94.8265 12.735 94.5606 12.9271 94.2638 13.0585C93.9671 13.19 93.6462 13.2579 93.3216 13.2579C92.9971 13.2579 92.6761 13.19 92.3794 13.0585C92.0827 12.9271 91.8167 12.735 91.5987 12.4947C91.3806 12.2543 91.2152 11.971 91.1131 11.6629C91.0111 11.3549 90.9746 11.0289 91.0061 10.7059ZM94.6405 10.7059C94.6405 9.64152 94.1623 9.0191 93.3232 9.0191C92.4809 9.0191 92.0071 9.64152 92.0071 10.7059C92.0071 11.7787 92.481 12.3963 93.3232 12.3963C94.1623 12.3963 94.6405 11.7744 94.6405 10.7059Z" fill="white"/>
    <path d="M96.9375 8.25196L97.8703 8.25196L97.8703 9.03197L97.9427 9.03197C98.0656 8.75182 98.2728 8.51697 98.5354 8.36016C98.7981 8.20335 99.1031 8.13239 99.408 8.15718C99.6469 8.13921 99.8868 8.17524 100.11 8.26258C100.333 8.34992 100.534 8.48633 100.697 8.66172C100.86 8.83711 100.982 9.04697 101.053 9.27577C101.124 9.50456 101.143 9.74642 101.108 9.98342L101.108 13.162L100.138 13.162L100.138 10.2268C100.138 9.4377 99.7956 9.04529 99.079 9.04529C98.9167 9.03773 98.7548 9.06534 98.6043 9.12622C98.4537 9.1871 98.3181 9.27981 98.2068 9.39799C98.0954 9.51618 98.0109 9.65704 97.9591 9.81094C97.9073 9.96483 97.8893 10.1281 97.9065 10.2896L97.9065 13.1621L96.9375 13.1621L96.9375 8.25196Z" fill="white"/>
    <path d="M106.583 7.0293L106.583 8.27413L107.647 8.27413L107.647 9.09035L106.583 9.09035L106.583 11.6152C106.583 12.1295 106.795 12.3547 107.277 12.3547C107.401 12.3543 107.524 12.3468 107.647 12.3323L107.647 13.1395C107.473 13.1706 107.297 13.1872 107.12 13.189C106.042 13.189 105.613 12.8099 105.613 11.8633L105.613 9.09031L104.833 9.09031L104.833 8.27408L105.613 8.27408L105.613 7.0293L106.583 7.0293Z" fill="white"/>
    <path d="M108.97 6.33496L109.931 6.33496L109.931 9.0408L110.007 9.0408C110.136 8.75803 110.349 8.52185 110.617 8.36445C110.885 8.20705 111.195 8.13608 111.505 8.16122C111.742 8.14828 111.98 8.18796 112.2 8.27743C112.421 8.36689 112.619 8.50392 112.781 8.67876C112.942 8.8536 113.063 9.06192 113.135 9.28888C113.207 9.51584 113.227 9.75582 113.196 9.99173L113.196 13.1618L112.226 13.1618L112.226 10.2308C112.226 9.4465 111.86 9.04931 111.176 9.04931C111.009 9.03565 110.842 9.05854 110.685 9.11639C110.528 9.17424 110.386 9.26565 110.268 9.38422C110.15 9.50279 110.06 9.64566 110.003 9.80283C109.946 9.96 109.924 10.1277 109.939 10.2941L109.939 13.1618L108.97 13.1618L108.97 6.33496Z" fill="white"/>
    <path d="M118.846 11.8364C118.714 12.2852 118.429 12.6734 118.04 12.933C117.651 13.1927 117.183 13.3074 116.718 13.257C116.395 13.2655 116.073 13.2035 115.776 13.0754C115.479 12.9472 115.213 12.7559 114.998 12.5148C114.782 12.2737 114.621 11.9885 114.526 11.679C114.432 11.3695 114.406 11.0431 114.45 10.7226C114.407 10.401 114.434 10.074 114.528 9.76356C114.622 9.45315 114.782 9.16662 114.997 8.92337C115.211 8.68013 115.476 8.48585 115.772 8.35368C116.068 8.22151 116.39 8.15454 116.714 8.15731C118.08 8.15731 118.904 9.09071 118.904 10.6326L118.904 10.9707L115.437 10.9707L115.437 11.025C115.422 11.2052 115.445 11.3866 115.504 11.5575C115.563 11.7284 115.657 11.8851 115.78 12.0176C115.903 12.15 116.053 12.2552 116.219 12.3266C116.385 12.3979 116.564 12.4337 116.745 12.4317C116.977 12.4595 117.212 12.4177 117.42 12.3118C117.628 12.2058 117.799 12.0403 117.913 11.8364L118.846 11.8364ZM115.437 10.254L117.917 10.254C117.93 10.0892 117.907 9.92372 117.852 9.76809C117.796 9.61247 117.709 9.47019 117.595 9.3504C117.481 9.23061 117.343 9.13595 117.191 9.07252C117.038 9.00908 116.874 8.97826 116.709 8.98205C116.541 8.97995 116.375 9.01141 116.22 9.0746C116.064 9.13778 115.923 9.23141 115.805 9.34995C115.686 9.46849 115.593 9.60956 115.53 9.76483C115.466 9.9201 115.435 10.0864 115.437 10.254L115.437 10.254Z" fill="white"/>
</svg>
