<svg viewBox="0 0 231 48" fill="none" xmlns="http://www.w3.org/2000/svg">
    <path d="M212.769 45.7433L196.875 24.4524H213.362C213.749 24.4524 214.114 24.6332 214.348 24.9411L230.167 45.7444C230.477 46.152 230.186 46.7382 229.674 46.7382H214.753C213.972 46.7382 213.237 46.3694 212.769 45.7433Z" fill="url(#paint0_linear_2_569)"/>
    <path d="M197.231 1.06142L205.077 11.4524L197.204 22.0231C196.96 22.3503 196.472 22.3564 196.22 22.0353L180.178 1.57899C179.7 0.969603 180.134 0.0773926 180.908 0.0773926H195.255C196.032 0.0773926 196.763 0.441697 197.231 1.06142Z" fill="url(#paint1_linear_2_569)"/>
    <path d="M197.412 45.3092L205.077 35.3631L197.378 24.6537C197.138 24.32 196.646 24.3084 196.391 24.6304L180.426 44.7684C179.943 45.377 180.377 46.2738 181.153 46.2738H195.451C196.218 46.2738 196.943 45.9175 197.412 45.3092Z" fill="url(#paint2_linear_2_569)"/>
    <path d="M212.846 0.981716L196.72 22.2857H213.44C213.826 22.2857 214.191 22.1049 214.425 21.797L230.244 0.993753C230.554 0.586186 230.264 0 229.752 0H214.821C214.045 0 213.314 0.363351 212.846 0.981716Z" fill="url(#paint3_linear_2_569)"/>
    <path d="M3.08239 47V6.27273H12.9261V39.0057H29.8693V47H3.08239ZM47.5636 47.5767C44.3685 47.5767 41.611 46.947 39.2909 45.6875C36.9841 44.4148 35.2075 42.6051 33.9613 40.2585C32.7284 37.8987 32.1119 35.0947 32.1119 31.8466C32.1119 28.6913 32.735 25.9337 33.9812 23.5739C35.2274 21.2008 36.9841 19.358 39.2511 18.0455C41.5182 16.7197 44.1896 16.0568 47.2653 16.0568C49.4396 16.0568 51.4282 16.3949 53.2312 17.071C55.0343 17.7472 56.592 18.7481 57.9045 20.0739C59.217 21.3996 60.2379 23.0369 60.967 24.9858C61.6962 26.9214 62.0608 29.142 62.0608 31.6477V34.0739H35.5125V28.4261H53.0125C52.9992 27.392 52.7539 26.4706 52.2767 25.6619C51.7994 24.8532 51.1432 24.2235 50.3079 23.7727C49.486 23.3087 48.538 23.0767 47.4642 23.0767C46.3771 23.0767 45.4026 23.322 44.5409 23.8125C43.6791 24.2898 42.9964 24.946 42.4926 25.7812C41.9888 26.6032 41.7236 27.5379 41.6971 28.5852V34.3324C41.6971 35.5786 41.9424 36.6723 42.4329 37.6136C42.9235 38.5417 43.6195 39.2642 44.521 39.7812C45.4225 40.2983 46.4964 40.5568 47.7426 40.5568C48.6043 40.5568 49.3865 40.4375 50.0892 40.1989C50.7918 39.9602 51.395 39.6089 51.8988 39.1449C52.4026 38.6809 52.7805 38.1108 53.0324 37.4347L61.9613 37.6932C61.5901 39.6951 60.7748 41.4384 59.5153 42.9233C58.2691 44.3949 56.6318 45.5417 54.6034 46.3636C52.575 47.1723 50.2284 47.5767 47.5636 47.5767ZM94.1578 16.4545L83.6776 47H72.5413L62.0811 16.4545H72.3225L77.9504 37.4943H78.2686L83.9163 16.4545H94.1578ZM109.5 47.5767C106.305 47.5767 103.548 46.947 101.228 45.6875C98.9209 44.4148 97.1444 42.6051 95.8982 40.2585C94.6653 37.8987 94.0488 35.0947 94.0488 31.8466C94.0488 28.6913 94.6719 25.9337 95.9181 23.5739C97.1643 21.2008 98.9209 19.358 101.188 18.0455C103.455 16.7197 106.126 16.0568 109.202 16.0568C111.376 16.0568 113.365 16.3949 115.168 17.071C116.971 17.7472 118.529 18.7481 119.841 20.0739C121.154 21.3996 122.175 23.0369 122.904 24.9858C123.633 26.9214 123.998 29.142 123.998 31.6477V34.0739H97.4493V28.4261H114.949C114.936 27.392 114.691 26.4706 114.214 25.6619C113.736 24.8532 113.08 24.2235 112.245 23.7727C111.423 23.3087 110.475 23.0767 109.401 23.0767C108.314 23.0767 107.339 23.322 106.478 23.8125C105.616 24.2898 104.933 24.946 104.429 25.7812C103.926 26.6032 103.661 27.5379 103.634 28.5852V34.3324C103.634 35.5786 103.879 36.6723 104.37 37.6136C104.86 38.5417 105.556 39.2642 106.458 39.7812C107.359 40.2983 108.433 40.5568 109.679 40.5568C110.541 40.5568 111.323 40.4375 112.026 40.1989C112.729 39.9602 113.332 39.6089 113.836 39.1449C114.339 38.6809 114.717 38.1108 114.969 37.4347L123.898 37.6932C123.527 39.6951 122.712 41.4384 121.452 42.9233C120.206 44.3949 118.569 45.5417 116.54 46.3636C114.512 47.1723 112.165 47.5767 109.5 47.5767ZM127.284 47V16.4545H136.73V22.0227H137.048C137.605 20.0076 138.513 18.5095 139.773 17.5284C141.032 16.5341 142.497 16.0369 144.168 16.0369C144.619 16.0369 145.083 16.0701 145.56 16.1364C146.037 16.1894 146.481 16.2756 146.892 16.3949V24.8466C146.428 24.6875 145.818 24.5616 145.063 24.4688C144.32 24.3759 143.657 24.3295 143.074 24.3295C141.921 24.3295 140.88 24.5881 139.952 25.1051C139.037 25.6089 138.315 26.3182 137.784 27.233C137.267 28.1345 137.009 29.1951 137.009 30.4148V47H127.284ZM161.867 47.5767C158.672 47.5767 155.914 46.947 153.594 45.6875C151.288 44.4148 149.511 42.6051 148.265 40.2585C147.032 37.8987 146.415 35.0947 146.415 31.8466C146.415 28.6913 147.038 25.9337 148.285 23.5739C149.531 21.2008 151.288 19.358 153.555 18.0455C155.822 16.7197 158.493 16.0568 161.569 16.0568C163.743 16.0568 165.732 16.3949 167.535 17.071C169.338 17.7472 170.895 18.7481 172.208 20.0739C173.52 21.3996 174.541 23.0369 175.27 24.9858C176 26.9214 176.364 29.142 176.364 31.6477V34.0739H149.816V28.4261H167.316C167.303 27.392 167.057 26.4706 166.58 25.6619C166.103 24.8532 165.447 24.2235 164.611 23.7727C163.789 23.3087 162.841 23.0767 161.768 23.0767C160.68 23.0767 159.706 23.322 158.844 23.8125C157.983 24.2898 157.3 24.946 156.796 25.7812C156.292 26.6032 156.027 27.5379 156.001 28.5852V34.3324C156.001 35.5786 156.246 36.6723 156.736 37.6136C157.227 38.5417 157.923 39.2642 158.824 39.7812C159.726 40.2983 160.8 40.5568 162.046 40.5568C162.908 40.5568 163.69 40.4375 164.393 40.1989C165.095 39.9602 165.698 39.6089 166.202 39.1449C166.706 38.6809 167.084 38.1108 167.336 37.4347L176.265 37.6932C175.894 39.6951 175.078 41.4384 173.819 42.9233C172.573 44.3949 170.935 45.5417 168.907 46.3636C166.878 47.1723 164.532 47.5767 161.867 47.5767Z" fill="white"/>
    <defs>
        <linearGradient id="paint0_linear_2_569" x1="213.899" y1="46.7382" x2="213.899" y2="24.4524" gradientUnits="userSpaceOnUse">
            <stop stop-color="#FF1A6E"/>
            <stop offset="1" stop-color="#FF601F"/>
        </linearGradient>
        <linearGradient id="paint1_linear_2_569" x1="180.083" y1="1.10966e-05" x2="200.589" y2="16.9464" gradientUnits="userSpaceOnUse">
            <stop stop-color="#1B8E00"/>
            <stop offset="1" stop-color="#026183"/>
        </linearGradient>
        <linearGradient id="paint2_linear_2_569" x1="186.661" y1="46.2738" x2="200.744" y2="29.7917" gradientUnits="userSpaceOnUse">
            <stop stop-color="#7A001A"/>
            <stop offset="1" stop-color="#A33200"/>
        </linearGradient>
        <linearGradient id="paint3_linear_2_569" x1="231.077" y1="1.56927e-06" x2="197.339" y2="22.2857" gradientUnits="userSpaceOnUse">
            <stop stop-color="#38E110"/>
            <stop offset="1" stop-color="#03B6F5"/>
        </linearGradient>
    </defs>
</svg>
