<svg width="166" height="40" viewBox="0 0 166 40" fill="none" xmlns="http://www.w3.org/2000/svg">
    <path fill-rule="evenodd" clip-rule="evenodd" d="M159.852 40H6.14815C2.76667 40 0 37.75 0 35V5C0 2.25 2.76667 0 6.14815 0H159.852C163.233 0 166 2.25 166 5V35C166 37.75 163.233 40 159.852 40Z" />
    <path fill-rule="evenodd" clip-rule="evenodd" d="M47.419 10.2432C47.419 11.0812 47.1701 11.7492 46.673 12.2462C46.109 12.8382 45.3741 13.1342 44.4691 13.1342C43.6031 13.1342 42.8671 12.8342 42.2611 12.2332C41.6551 11.6332 41.3521 10.8882 41.3521 10.0002C41.3521 9.11121 41.6551 8.36721 42.2611 7.76721C42.8671 7.16621 43.6031 6.86621 44.4691 6.86621C44.8991 6.86621 45.31 6.95021 45.701 7.11721C46.091 7.28521 46.405 7.50821 46.639 7.78821L46.112 8.31521C45.714 7.84121 45.1681 7.60421 44.4691 7.60421C43.8371 7.60421 43.2921 7.82521 42.8311 8.27021C42.3701 8.71421 42.139 9.29121 42.139 10.0002C42.139 10.7092 42.3701 11.2862 42.8311 11.7302C43.2921 12.1752 43.8371 12.3962 44.4691 12.3962C45.1391 12.3962 45.6981 12.1732 46.1451 11.7272C46.4351 11.4362 46.603 11.0312 46.648 10.5112H44.4691V9.79121H47.377C47.405 9.94721 47.419 10.0982 47.419 10.2432Z" fill="white"/>
    <path fill-rule="evenodd" clip-rule="evenodd" d="M47.419 10.2426H47.319C47.318 11.0616 47.079 11.6976 46.603 12.1746L46.602 12.1756L46.601 12.1766C46.055 12.7476 45.352 13.0326 44.469 13.0336C43.626 13.0326 42.921 12.7446 42.332 12.1616C41.744 11.5786 41.453 10.8656 41.452 9.99963C41.453 9.13363 41.744 8.42063 42.332 7.83763C42.921 7.25463 43.626 6.96663 44.469 6.96563C44.886 6.96563 45.283 7.04663 45.661 7.20863C46.04 7.37163 46.34 7.58563 46.563 7.85163L46.639 7.78763L46.568 7.71663L46.041 8.24463L46.112 8.31463L46.188 8.25063C45.773 7.75263 45.189 7.50163 44.469 7.50363C43.814 7.50263 43.238 7.73663 42.761 8.19763C42.28 8.65963 42.038 9.26863 42.039 9.99963C42.038 10.7306 42.28 11.3396 42.761 11.8016C43.238 12.2626 43.814 12.4966 44.469 12.4966C45.161 12.4976 45.751 12.2626 46.216 11.7966C46.526 11.4856 46.702 11.0556 46.748 10.5196L46.757 10.4106H44.569V9.88963H47.377V9.79063L47.278 9.80763C47.305 9.95963 47.319 10.1036 47.319 10.2426H47.519C47.519 10.0906 47.504 9.93463 47.475 9.77263L47.46 9.69063H44.369V10.6106H46.648V10.5106L46.548 10.5026C46.504 11.0056 46.344 11.3846 46.074 11.6556C45.644 12.0836 45.117 12.2956 44.469 12.2966C43.861 12.2956 43.345 12.0856 42.9 11.6586C42.459 11.2316 42.24 10.6876 42.239 9.99963C42.24 9.31163 42.459 8.76763 42.9 8.34063C43.345 7.91363 43.861 7.70363 44.469 7.70363C45.146 7.70463 45.656 7.92863 46.035 8.37963L46.105 8.46263L46.71 7.85763L46.775 7.79363L46.716 7.72263C46.47 7.42963 46.142 7.19763 45.74 7.02463C45.337 6.85263 44.912 6.76563 44.469 6.76563C43.58 6.76463 42.813 7.07663 42.191 7.69563C41.566 8.31263 41.251 9.08863 41.252 9.99963C41.251 10.9106 41.566 11.6866 42.191 12.3046C42.813 12.9226 43.58 13.2346 44.469 13.2336C45.395 13.2346 46.163 12.9266 46.746 12.3146L46.673 12.2456L46.744 12.3166C47.262 11.7986 47.519 11.0996 47.519 10.2426H47.419Z" fill="white"/>
    <path fill-rule="evenodd" clip-rule="evenodd" d="M52.0279 7.737H49.2949V9.64H51.7589V10.36H49.2949V12.263H52.0279V13H48.5249V7H52.0279V7.737Z" fill="white"/>
    <path fill-rule="evenodd" clip-rule="evenodd" d="M52.028 7.73739V7.63739H49.195V9.74039H51.659V10.2604H49.195V12.3634H51.9281V12.9004H48.625V7.10039H51.9281V7.73739H52.028V7.63739V7.73739H52.128V6.90039H48.425V13.1004H52.128V12.1634H49.3951V10.4604H51.8591V9.54039H49.3951V7.83739H52.128V7.73739H52.028Z" fill="white"/>
    <path fill-rule="evenodd" clip-rule="evenodd" d="M55.279 13H54.507V7.737H52.832V7H56.955V7.737H55.279V13Z" fill="white"/>
    <path fill-rule="evenodd" clip-rule="evenodd" d="M55.279 13.0004V12.9004H54.607V7.63739H52.931V7.10039H56.855V7.63739H55.179V13.0004H55.279V12.9004V13.0004H55.379V7.83739H57.055V6.90039H52.731V7.83739H54.407V13.1004H55.379V13.0004H55.279Z" fill="white"/>
    <path fill-rule="evenodd" clip-rule="evenodd" d="M59.938 13H60.709V7H59.938V13Z" fill="white"/>
    <path fill-rule="evenodd" clip-rule="evenodd" d="M59.9379 13.0004H60.0379V7.10039H60.6079V12.9004H59.9379V13.0004H60.0379H59.9379V13.1004H60.8089V6.90039H59.8379V13.1004H59.9379V13.0004Z" fill="white"/>
    <path fill-rule="evenodd" clip-rule="evenodd" d="M64.1279 13H63.3569V7.737H61.6809V7H65.8039V7.737H64.1279V13Z" fill="white"/>
    <path fill-rule="evenodd" clip-rule="evenodd" d="M64.1281 13.0004V12.9004H63.4571V7.63739H61.7811V7.10039H65.7041V7.63739H64.0281V13.0004H64.1281V12.9004V13.0004H64.2281V7.83739H65.9041V6.90039H61.5811V7.83739H63.2571V13.1004H64.2281V13.0004H64.1281Z" fill="white"/>
    <path fill-rule="evenodd" clip-rule="evenodd" d="M69.7789 11.7222C70.2239 12.1722 70.7669 12.3962 71.4089 12.3962C72.0519 12.3962 72.5959 12.1722 73.0389 11.7222C73.4829 11.2722 73.7059 10.6982 73.7059 10.0002C73.7059 9.30221 73.4829 8.72821 73.0389 8.27821C72.5959 7.82821 72.0519 7.60421 71.4089 7.60421C70.7669 7.60421 70.2239 7.82821 69.7789 8.27821C69.3359 8.72821 69.1129 9.30221 69.1129 10.0002C69.1129 10.6982 69.3359 11.2722 69.7789 11.7222ZM73.6089 12.2252C73.0199 12.8312 72.2859 13.1342 71.4089 13.1342C70.5319 13.1342 69.7989 12.8312 69.2099 12.2252C68.6199 11.6192 68.3259 10.8772 68.3259 10.0002C68.3259 9.12321 68.6199 8.38121 69.2099 7.77521C69.7989 7.16921 70.5319 6.86621 71.4089 6.86621C72.2809 6.86621 73.0129 7.17021 73.6049 7.77921C74.1969 8.38821 74.4929 9.12821 74.4929 10.0002C74.4929 10.8772 74.1979 11.6192 73.6089 12.2252Z" fill="white"/>
    <path fill-rule="evenodd" clip-rule="evenodd" d="M69.7791 11.7216L69.7081 11.7916C70.1691 12.2596 70.7431 12.4976 71.4091 12.4966C72.0751 12.4976 72.6501 12.2596 73.1101 11.7916C73.5741 11.3246 73.8071 10.7186 73.8061 9.99963C73.8071 9.28063 73.5741 8.67563 73.1101 8.20763C72.6501 7.73963 72.0751 7.50263 71.4091 7.50363C70.7431 7.50263 70.1691 7.73963 69.7081 8.20763C69.2461 8.67563 69.0121 9.28063 69.0131 9.99963C69.0121 10.7186 69.2461 11.3246 69.7081 11.7916L69.8511 11.6516C69.4261 11.2206 69.2141 10.6766 69.2131 9.99963C69.2141 9.32263 69.4261 8.77863 69.8511 8.34763H69.8501C70.2791 7.91563 70.7901 7.70463 71.4091 7.70363C72.0291 7.70463 72.5411 7.91563 72.9681 8.34763C73.3931 8.77963 73.6051 9.32263 73.6061 9.99963C73.6051 10.6766 73.3931 11.2196 72.9681 11.6516C72.5411 12.0836 72.0291 12.2956 71.4091 12.2966C70.7901 12.2946 70.2791 12.0836 69.8501 11.6516L69.7791 11.7216ZM73.6091 12.2246L73.5381 12.1546C72.9651 12.7426 72.2631 13.0326 71.4091 13.0336C70.5551 13.0326 69.8541 12.7426 69.2821 12.1546L69.2791 12.1516L69.2821 12.1546C68.7101 11.5656 68.4271 10.8546 68.4261 9.99963C68.4271 9.14463 68.7101 8.43363 69.2821 7.84463C69.8541 7.25663 70.5551 6.96663 71.4091 6.96563C72.2581 6.96663 72.9571 7.25863 73.5341 7.84863C74.1081 8.44063 74.3921 9.15063 74.3931 9.99963C74.3921 10.8546 74.1091 11.5656 73.5381 12.1546L73.6811 12.2936C74.2881 11.6716 74.5941 10.8986 74.5931 9.99963C74.5941 9.10563 74.2861 8.33463 73.6771 7.70963C73.0681 7.08163 72.3041 6.76463 71.4091 6.76563C70.5091 6.76463 69.7441 7.08063 69.1381 7.70563C68.5311 8.32863 68.2251 9.10063 68.2261 9.99963C68.2251 10.8986 68.5311 11.6716 69.1381 12.2936L69.1411 12.2966L69.1381 12.2936C69.7441 12.9196 70.5091 13.2346 71.4091 13.2336C72.3091 13.2346 73.0751 12.9196 73.6811 12.2936L73.6091 12.2246Z" fill="white"/>
    <path fill-rule="evenodd" clip-rule="evenodd" d="M75.575 13V7H76.514L79.43 11.667H79.463L79.43 10.511V7H80.201V13H79.396L76.346 8.106H76.312L76.346 9.263V13H75.575Z" fill="white"/>
    <path fill-rule="evenodd" clip-rule="evenodd" d="M75.5751 13.0004H75.6751V7.10039H76.4581L79.3741 11.7684H79.5661L79.5301 10.5104V7.10039H80.1011V12.9004H79.4521L76.4011 8.00639H76.2101L76.2461 9.26439V12.9004H75.5751V13.0004H75.6751H75.5751V13.1004H76.4461V9.26139L76.4121 8.10439L76.3121 8.10639V8.20639H76.3461V8.10639L76.2611 8.15939L79.3411 13.1004H80.3011V6.90039H79.3301V10.5134L79.3631 11.6704L79.4631 11.6674V11.5684H79.4301V11.6674L79.5151 11.6154L76.5691 6.90039H75.4751V13.1004H75.5751V13.0004Z" fill="white"/>
    <path fill-rule="evenodd" clip-rule="evenodd" d="M106.936 29.9999H108.802V17.4989H106.936V29.9999ZM123.743 22.0019L121.604 27.4219H121.54L119.32 22.0019H117.31L120.639 29.5769L118.741 33.7909H120.688L125.818 22.0019H123.743ZM113.161 28.5799C112.549 28.5799 111.697 28.2749 111.697 27.5189C111.697 26.5539 112.759 26.1839 113.675 26.1839C114.496 26.1839 114.881 26.3609 115.38 26.6019C115.235 27.7599 114.238 28.5799 113.161 28.5799ZM113.386 21.7289C112.035 21.7289 110.636 22.3239 110.057 23.6429L111.713 24.3339C112.067 23.6429 112.726 23.4169 113.418 23.4169C114.383 23.4169 115.364 23.9959 115.38 25.0259V25.1539C115.042 24.9609 114.319 24.6719 113.434 24.6719C111.649 24.6719 109.831 25.6529 109.831 27.4859C109.831 29.1589 111.295 30.2369 112.935 30.2369C114.19 30.2369 114.881 29.6739 115.316 29.0139H115.38V29.9789H117.181V25.1869C117.181 22.9669 115.525 21.7289 113.386 21.7289ZM101.854 23.5239H99.2V19.2389H101.854C103.249 19.2389 104.041 20.3939 104.041 21.3809C104.041 22.3499 103.249 23.5239 101.854 23.5239ZM101.806 17.4989H97.335V29.9999H99.2V25.2639H101.806C103.874 25.2639 105.907 23.7659 105.907 21.3809C105.907 18.9959 103.874 17.4989 101.806 17.4989ZM77.425 28.5819C76.136 28.5819 75.057 27.5029 75.057 26.0209C75.057 24.5229 76.136 23.4269 77.425 23.4269C78.698 23.4269 79.696 24.5229 79.696 26.0209C79.696 27.5029 78.698 28.5819 77.425 28.5819ZM79.567 22.7019H79.503C79.084 22.2029 78.279 21.7519 77.264 21.7519C75.137 21.7519 73.188 23.6199 73.188 26.0209C73.188 28.4049 75.137 30.2579 77.264 30.2579C78.279 30.2579 79.084 29.8069 79.503 29.2909H79.567V29.9029C79.567 31.5309 78.698 32.4009 77.296 32.4009C76.152 32.4009 75.443 31.5789 75.153 30.8859L73.526 31.5629C73.993 32.6909 75.234 34.0759 77.296 34.0759C79.487 34.0759 81.34 32.7869 81.34 29.6459V22.0089H79.567V22.7019ZM82.629 29.9999H84.498V17.4979H82.629V29.9999ZM87.252 25.8759C87.204 24.2329 88.525 23.3949 89.475 23.3949C90.217 23.3949 90.845 23.7649 91.054 24.2969L87.252 25.8759ZM93.052 24.4579C92.698 23.5079 91.618 21.7519 89.411 21.7519C87.22 21.7519 85.4 23.4749 85.4 26.0049C85.4 28.3889 87.204 30.2579 89.62 30.2579C91.57 30.2579 92.698 29.0659 93.165 28.3729L91.715 27.4059C91.232 28.1149 90.571 28.5819 89.62 28.5819C88.67 28.5819 87.993 28.1469 87.558 27.2939L93.245 24.9419L93.052 24.4579ZM47.744 23.0569V24.8609H52.061C51.932 25.8759 51.594 26.6169 51.079 27.1329C50.45 27.7609 49.467 28.4529 47.744 28.4529C45.086 28.4529 43.007 26.3109 43.007 23.6529C43.007 20.9939 45.086 18.8519 47.744 18.8519C49.178 18.8519 50.225 19.4159 50.998 20.1409L52.271 18.8679C51.191 17.8369 49.758 17.0469 47.744 17.0469C44.103 17.0469 41.042 20.0119 41.042 23.6529C41.042 27.2939 44.103 30.2579 47.744 30.2579C49.709 30.2579 51.191 29.6139 52.351 28.4049C53.543 27.2129 53.914 25.5379 53.914 24.1839C53.914 23.7649 53.882 23.3789 53.817 23.0569H47.744ZM58.823 28.5819C57.534 28.5819 56.422 27.5189 56.422 26.0049C56.422 24.4739 57.534 23.4269 58.823 23.4269C60.111 23.4269 61.223 24.4739 61.223 26.0049C61.223 27.5189 60.111 28.5819 58.823 28.5819ZM58.823 21.7519C56.47 21.7519 54.553 23.5399 54.553 26.0049C54.553 28.4529 56.47 30.2579 58.823 30.2579C61.175 30.2579 63.092 28.4529 63.092 26.0049C63.092 23.5399 61.175 21.7519 58.823 21.7519ZM68.136 28.5819C66.847 28.5819 65.735 27.5189 65.735 26.0049C65.735 24.4739 66.847 23.4269 68.136 23.4269C69.425 23.4269 70.536 24.4739 70.536 26.0049C70.536 27.5189 69.425 28.5819 68.136 28.5819ZM68.136 21.7519C65.784 21.7519 63.867 23.5399 63.867 26.0049C63.867 28.4529 65.784 30.2579 68.136 30.2579C70.488 30.2579 72.405 28.4529 72.405 26.0049C72.405 23.5399 70.488 21.7519 68.136 21.7519Z" fill="white"/>
    <mask id="mask0_805_7823" style="mask-type:alpha" maskUnits="userSpaceOnUse" x="9" y="7" width="14" height="26">
        <path d="M10.5099 32.3903L10.4349 32.3183C10.1449 32.0103 9.9729 31.5333 9.9729 30.9133V31.0593V8.94333C9.9729 8.94133 9.9729 8.94033 9.9729 8.93833C9.9729 8.94033 9.9729 8.94233 9.9729 8.94333V9.09033C9.9729 8.41933 10.1729 7.91433 10.5089 7.61133L22.8979 20.0013L10.5099 32.3903ZM9.9729 8.93733C9.9729 8.88233 9.9739 8.82833 9.9769 8.77533C9.9739 8.82833 9.9729 8.88233 9.9729 8.93733Z" fill="white"/>
    </mask>
    <g mask="url(#mask0_805_7823)">
        <path fill-rule="evenodd" clip-rule="evenodd" d="M10.5099 32.3903L10.4349 32.3183C10.1449 32.0103 9.9729 31.5333 9.9729 30.9133V31.0593V8.94333C9.9729 8.94133 9.9729 8.94033 9.9729 8.93833C9.9729 8.94033 9.9729 8.94233 9.9729 8.94333V9.09033C9.9729 8.41933 10.1729 7.91433 10.5089 7.61133L22.8979 20.0013L10.5099 32.3903ZM9.9729 8.93733C9.9729 8.88233 9.9739 8.82833 9.9769 8.77533C9.9739 8.82833 9.9729 8.88233 9.9729 8.93733Z" fill="#00D6FF"/>
    </g>
    <mask id="mask1_805_7823" style="mask-type:alpha" maskUnits="userSpaceOnUse" x="22" y="15" width="12" height="10">
        <path d="M27.0279 24.2781L27.1219 24.2251L32.0149 21.4451C32.4809 21.1801 32.7919 20.8581 32.9469 20.5181C32.7919 20.8581 32.4819 21.1801 32.0149 21.4451L27.1219 24.2251L27.0279 24.2781ZM27.0289 24.1321L22.8979 20.0011L27.0289 15.8701L32.0149 18.7031C32.648 19.0631 33.0039 19.5271 33.0629 20.0001C33.0629 20.0011 33.0629 20.0011 33.0629 20.0021C33.0039 20.4751 32.648 20.9391 32.0149 21.2991L27.0289 24.1321Z" fill="white"/>
    </mask>
    <g mask="url(#mask1_805_7823)">
        <path fill-rule="evenodd" clip-rule="evenodd" d="M27.0279 24.2781L27.1219 24.2251L32.0149 21.4451C32.4809 21.1801 32.7919 20.8581 32.9469 20.5181C32.7919 20.8581 32.4819 21.1801 32.0149 21.4451L27.1219 24.2251L27.0279 24.2781ZM27.0289 24.1321L22.8979 20.0011L27.0289 15.8701L32.0149 18.7031C32.648 19.0631 33.0039 19.5271 33.0629 20.0001C33.0629 20.0011 33.0629 20.0011 33.0629 20.0021C33.0039 20.4751 32.648 20.9391 32.0149 21.2991L27.0289 24.1321Z" fill="#FFCE00"/>
    </g>
    <mask id="mask2_805_7823" style="mask-type:alpha" maskUnits="userSpaceOnUse" x="10" y="20" width="18" height="13">
        <path d="M11.393 32.861C11.047 32.861 10.745 32.749 10.509 32.536H10.51C10.745 32.748 11.048 32.861 11.394 32.861C11.424 32.861 11.454 32.861 11.485 32.859C11.454 32.861 11.423 32.861 11.393 32.861ZM11.393 32.715C11.047 32.715 10.745 32.602 10.51 32.39L22.898 20.001L27.029 24.132L12.514 32.379C12.112 32.607 11.732 32.715 11.393 32.715Z" fill="white"/>
    </mask>
    <g mask="url(#mask2_805_7823)">
        <path fill-rule="evenodd" clip-rule="evenodd" d="M11.393 32.861C11.047 32.861 10.745 32.749 10.509 32.536H10.51C10.745 32.748 11.048 32.861 11.394 32.861C11.424 32.861 11.454 32.861 11.485 32.859C11.454 32.861 11.423 32.861 11.393 32.861ZM11.393 32.715C11.047 32.715 10.745 32.602 10.51 32.39L22.898 20.001L27.029 24.132L12.514 32.379C12.112 32.607 11.732 32.715 11.393 32.715Z" fill="url(#paint0_linear_805_7823)"/>
    </g>
    <mask id="mask3_805_7823" style="mask-type:alpha" maskUnits="userSpaceOnUse" x="10" y="7" width="18" height="14">
        <path d="M22.898 20.0006L10.509 7.61062C10.744 7.39863 11.046 7.28662 11.392 7.28662C11.73 7.28662 12.111 7.39463 12.514 7.62263L27.029 15.8696L22.898 20.0006ZM27.122 15.7766L12.514 7.47662C12.112 7.24862 11.73 7.14062 11.392 7.14062C11.39 7.14062 11.389 7.14062 11.387 7.14062C11.389 7.14062 11.391 7.14062 11.393 7.14062C11.731 7.14062 12.112 7.24762 12.514 7.47662L27.122 15.7766Z" fill="white"/>
    </mask>
    <g mask="url(#mask3_805_7823)">
        <path fill-rule="evenodd" clip-rule="evenodd" d="M22.898 20.0006L10.509 7.61062C10.744 7.39863 11.046 7.28662 11.392 7.28662C11.73 7.28662 12.111 7.39463 12.514 7.62263L27.029 15.8696L22.898 20.0006ZM27.122 15.7766L12.514 7.47662C12.112 7.24862 11.73 7.14062 11.392 7.14062C11.39 7.14062 11.389 7.14062 11.387 7.14062C11.389 7.14062 11.391 7.14062 11.393 7.14062C11.731 7.14062 12.112 7.24762 12.514 7.47662L27.122 15.7766Z" fill="#00F465"/>
    </g>
    <path fill-rule="evenodd" clip-rule="evenodd" d="M11.4851 32.8593C11.8001 32.8413 12.1481 32.7333 12.5141 32.5253L27.0281 24.2783L12.5141 32.5253C12.1481 32.7333 11.8001 32.8413 11.4851 32.8593Z" fill="black"/>
    <mask id="mask4_805_7823" style="mask-type:alpha" maskUnits="userSpaceOnUse" x="10" y="24" width="18" height="9">
        <path d="M11.394 32.8608C11.048 32.8608 10.745 32.7478 10.51 32.5358H10.509C10.509 32.5348 10.507 32.5348 10.506 32.5338L10.442 32.4708C10.44 32.4688 10.438 32.4658 10.436 32.4638L10.51 32.3898C10.745 32.6018 11.047 32.7148 11.393 32.7148C11.732 32.7148 12.112 32.6068 12.514 32.3788L27.029 24.1318L27.122 24.2248L27.028 24.2778L12.514 32.5248C12.148 32.7328 11.8 32.8408 11.485 32.8588C11.454 32.8608 11.424 32.8608 11.394 32.8608Z" fill="white"/>
    </mask>
    <g mask="url(#mask4_805_7823)">
        <path fill-rule="evenodd" clip-rule="evenodd" d="M11.394 32.8608C11.048 32.8608 10.745 32.7478 10.51 32.5358H10.509C10.509 32.5348 10.507 32.5348 10.506 32.5338L10.442 32.4708C10.44 32.4688 10.438 32.4658 10.436 32.4638L10.51 32.3898C10.745 32.6018 11.047 32.7148 11.393 32.7148C11.732 32.7148 12.112 32.6068 12.514 32.3788L27.029 24.1318L27.122 24.2248L27.028 24.2778L12.514 32.5248C12.148 32.7328 11.8 32.8408 11.485 32.8588C11.454 32.8608 11.424 32.8608 11.394 32.8608Z" fill="url(#paint1_linear_805_7823)"/>
    </g>
    <path fill-rule="evenodd" clip-rule="evenodd" d="M10.4349 32.4636C10.1449 32.1566 9.9729 31.6786 9.9729 31.0596V31.0586C9.9729 31.6786 10.1449 32.1556 10.4349 32.4636Z" fill="black"/>
    <mask id="mask5_805_7823" style="mask-type:alpha" maskUnits="userSpaceOnUse" x="10" y="32" width="1" height="1">
        <path d="M10.4361 32.4636H10.4351L10.5101 32.3896L10.4361 32.4636Z" fill="white"/>
    </mask>
    <g mask="url(#mask5_805_7823)">
        <path fill-rule="evenodd" clip-rule="evenodd" d="M10.4361 32.4636H10.4351L10.5101 32.3896L10.4361 32.4636Z" fill="url(#paint2_linear_805_7823)"/>
    </g>
    <path fill-rule="evenodd" clip-rule="evenodd" d="M32.947 20.518C33.024 20.349 33.063 20.176 33.063 20.002C33.063 20.002 33.063 20.002 33.063 20.001C33.063 20.175 33.024 20.349 32.947 20.518Z" fill="black"/>
    <path fill-rule="evenodd" clip-rule="evenodd" d="M33.0631 20.0013V20.0003C33.0621 19.4773 32.7131 18.9543 32.0151 18.5583L27.1221 15.7773L32.0151 18.5573C32.7141 18.9543 33.0641 19.4783 33.0631 20.0013Z" fill="#404040"/>
    <path fill-rule="evenodd" clip-rule="evenodd" d="M9.97803 8.76462C10.035 7.73762 10.594 7.14363 11.384 7.14062C11.042 7.14163 10.743 7.25462 10.509 7.46462L10.507 7.46762C10.482 7.48962 10.458 7.51362 10.435 7.53762C10.173 7.81562 10.007 8.23162 9.97803 8.76462Z" fill="#404040"/>
    <defs>
        <linearGradient id="paint0_linear_805_7823" x1="24.8359" y1="23.9455" x2="6.61693" y2="42.0909" gradientUnits="userSpaceOnUse">
            <stop stop-color="#FF3944"/>
            <stop offset="1" stop-color="#C31161"/>
        </linearGradient>
        <linearGradient id="paint1_linear_805_7823" x1="24.827" y1="26.7995" x2="10.3338" y2="41.2927" gradientUnits="userSpaceOnUse">
            <stop stop-color="#CC2D36"/>
            <stop offset="1" stop-color="#9C0E4E"/>
        </linearGradient>
        <linearGradient id="paint2_linear_805_7823" x1="11.5491" y1="31.677" x2="9.86518" y2="33.3837" gradientUnits="userSpaceOnUse">
            <stop stop-color="#DF333B"/>
            <stop offset="1" stop-color="#AB0F55"/>
        </linearGradient>
    </defs>
</svg>
