<svg width="351" height="71" viewBox="0 0 351 71" fill="none" xmlns="http://www.w3.org/2000/svg">
    <path d="M20.4124 69V10.494H0.420414V0.399995H53.0464V10.494H32.9564V69H20.4124ZM76.8581 70.176C71.9581 70.176 67.6135 69.1307 63.8241 67.04C60.0348 64.9493 57.0621 62.0093 54.9061 58.22C52.7501 54.4307 51.6721 50.0533 51.6721 45.088C51.6721 40.0573 52.7175 35.582 54.8081 31.662C56.9641 27.742 59.9041 24.704 63.6281 22.548C67.4175 20.3267 71.8601 19.216 76.9561 19.216C81.7255 19.216 85.9395 20.2613 89.5981 22.352C93.2568 24.4427 96.0988 27.3173 98.1241 30.976C100.215 34.5693 101.26 38.5873 101.26 43.03C101.26 43.7487 101.227 44.5 101.162 45.284C101.162 46.068 101.129 46.8847 101.064 47.734H64.1181C64.3795 51.5233 65.6861 54.496 68.0381 56.652C70.4555 58.808 73.3628 59.886 76.7601 59.886C79.3081 59.886 81.4315 59.3307 83.1301 58.22C84.8941 57.044 86.2008 55.5413 87.0501 53.712H99.7901C98.8755 56.7827 97.3401 59.592 95.1841 62.14C93.0935 64.6227 90.4801 66.5827 87.3441 68.02C84.2735 69.4573 80.7781 70.176 76.8581 70.176ZM76.9561 29.408C73.8855 29.408 71.1741 30.29 68.8221 32.054C66.4701 33.7527 64.9675 36.366 64.3141 39.894H88.5201C88.3241 36.6927 87.1481 34.1447 84.9921 32.25C82.8361 30.3553 80.1575 29.408 76.9561 29.408ZM131.9 70.176C127.588 70.176 123.799 69.49 120.532 68.118C117.266 66.6807 114.652 64.7207 112.692 62.238C110.732 59.7553 109.556 56.8807 109.164 53.614H121.806C122.198 55.5087 123.244 57.142 124.942 58.514C126.706 59.8207 128.96 60.474 131.704 60.474C134.448 60.474 136.441 59.9187 137.682 58.808C138.989 57.6973 139.642 56.4233 139.642 54.986C139.642 52.8953 138.728 51.4907 136.898 50.772C135.069 49.988 132.521 49.2367 129.254 48.518C127.164 48.0607 125.04 47.5053 122.884 46.852C120.728 46.1987 118.736 45.382 116.906 44.402C115.142 43.3567 113.705 42.05 112.594 40.482C111.484 38.8487 110.928 36.856 110.928 34.504C110.928 30.192 112.627 26.566 116.024 23.626C119.487 20.686 124.322 19.216 130.528 19.216C136.278 19.216 140.851 20.5553 144.248 23.234C147.711 25.9127 149.769 29.604 150.422 34.308H138.564C137.846 30.7147 135.134 28.918 130.43 28.918C128.078 28.918 126.249 29.3753 124.942 30.29C123.701 31.2047 123.08 32.348 123.08 33.72C123.08 35.1573 124.028 36.3007 125.922 37.15C127.817 37.9993 130.332 38.7833 133.468 39.502C136.866 40.286 139.969 41.168 142.778 42.148C145.653 43.0627 147.94 44.4673 149.638 46.362C151.337 48.1913 152.186 50.8373 152.186 54.3C152.252 57.3053 151.468 60.0167 149.834 62.434C148.201 64.8513 145.849 66.746 142.778 68.118C139.708 69.49 136.082 70.176 131.9 70.176ZM183.425 69C178.329 69 174.246 67.7587 171.175 65.276C168.105 62.7933 166.569 58.3833 166.569 52.046V30.878H158.239V20.392H166.569L168.039 7.358H179.113V20.392H192.245V30.878H179.113V52.144C179.113 54.496 179.603 56.1293 180.583 57.044C181.629 57.8933 183.393 58.318 185.875 58.318H191.951V69H183.425ZM203.016 69V20.392H214.09L215.07 28.624C216.572 25.7493 218.728 23.4627 221.538 21.764C224.412 20.0653 227.777 19.216 231.632 19.216C237.642 19.216 242.314 21.1107 245.646 24.9C248.978 28.6893 250.644 34.2427 250.644 41.56V69H238.1V42.736C238.1 38.5547 237.25 35.3533 235.552 33.132C233.853 30.9107 231.207 29.8 227.614 29.8C224.086 29.8 221.178 31.0413 218.892 33.524C216.67 36.0067 215.56 39.4693 215.56 43.912V69H203.016ZM286.257 70.176C281.357 70.176 277.012 69.1307 273.223 67.04C269.433 64.9493 266.461 62.0093 264.305 58.22C262.149 54.4307 261.071 50.0533 261.071 45.088C261.071 40.0573 262.116 35.582 264.207 31.662C266.363 27.742 269.303 24.704 273.027 22.548C276.816 20.3267 281.259 19.216 286.355 19.216C291.124 19.216 295.338 20.2613 298.997 22.352C302.655 24.4427 305.497 27.3173 307.523 30.976C309.613 34.5693 310.659 38.5873 310.659 43.03C310.659 43.7487 310.626 44.5 310.561 45.284C310.561 46.068 310.528 46.8847 310.463 47.734H273.517C273.778 51.5233 275.085 54.496 277.437 56.652C279.854 58.808 282.761 59.886 286.159 59.886C288.707 59.886 290.83 59.3307 292.529 58.22C294.293 57.044 295.599 55.5413 296.449 53.712H309.189C308.274 56.7827 306.739 59.592 304.583 62.14C302.492 64.6227 299.879 66.5827 296.743 68.02C293.672 69.4573 290.177 70.176 286.257 70.176ZM286.355 29.408C283.284 29.408 280.573 30.29 278.221 32.054C275.869 33.7527 274.366 36.366 273.713 39.894H297.919C297.723 36.6927 296.547 34.1447 294.391 32.25C292.235 30.3553 289.556 29.408 286.355 29.408ZM342.006 69C336.91 69 332.826 67.7587 329.756 65.276C326.685 62.7933 325.15 58.3833 325.15 52.046V30.878H316.82V20.392H325.15L326.62 7.358H337.694V20.392H350.826V30.878H337.694V52.144C337.694 54.496 338.184 56.1293 339.164 57.044C340.209 57.8933 341.973 58.318 344.456 58.318H350.532V69H342.006Z" fill="#636383" fill-opacity="0.1"/>
</svg>
