<svg viewBox="0 0 16 16" fill="none" xmlns="http://www.w3.org/2000/svg">
    <path fill-rule="evenodd" clip-rule="evenodd" d="M7.99984 13.3335C7.63165 13.3335 7.33317 13.035 7.33317 12.6668L7.33317 3.3335C7.33317 2.96531 7.63165 2.66683 7.99984 2.66683C8.36803 2.66683 8.6665 2.96531 8.6665 3.3335L8.6665 12.6668C8.6665 13.035 8.36803 13.3335 7.99984 13.3335Z" fill="#636383"/>
    <path fill-rule="evenodd" clip-rule="evenodd" d="M13.1382 8.47124C12.8779 8.73159 12.4558 8.73159 12.1954 8.47124L8.00016 4.27598L3.8049 8.47124C3.54455 8.73159 3.12244 8.73159 2.86209 8.47124C2.60174 8.21089 2.60174 7.78878 2.86209 7.52843L7.52876 2.86177C7.78911 2.60142 8.21122 2.60142 8.47157 2.86177L13.1382 7.52843C13.3986 7.78878 13.3986 8.21089 13.1382 8.47124Z" fill="#636383"/>
</svg>
