<svg viewBox="0 0 48 48" fill="none" xmlns="http://www.w3.org/2000/svg">
    <path d="M47.2414 29.8409C44.036 42.6981 31.0137 50.5228 18.1549 47.3166C5.30151 44.1112 -2.52317 31.0881 0.683608 18.2319C3.88757 5.37321 16.9099 -2.45205 29.7647 0.753318C42.6226 3.95869 50.4468 16.9832 47.241 29.8411L47.2413 29.8409H47.2414Z" fill="#F7931A"/>
    <path d="M34.5743 20.5746C35.052 17.3807 32.6204 15.6639 29.2953 14.5186L30.374 10.1922L27.7404 9.53595L26.6904 13.7484C25.998 13.5757 25.287 13.413 24.5803 13.2517L25.638 9.01146L23.006 8.35522L21.9268 12.6802C21.3538 12.5498 20.7911 12.4208 20.2451 12.285L20.2482 12.2714L16.6164 11.3645L15.9158 14.1773C15.9158 14.1773 17.8697 14.6252 17.8286 14.6528C18.895 14.9189 19.0879 15.6249 19.0558 16.1845L17.8271 21.1133C17.9006 21.1319 17.9958 21.1589 18.1009 21.2011C18.0131 21.1793 17.9196 21.1555 17.8226 21.1323L16.1003 28.0368C15.97 28.3608 15.6392 28.847 14.8936 28.6624C14.92 28.7006 12.9794 28.1847 12.9794 28.1847L11.6719 31.1993L15.0991 32.0537C15.7367 32.2136 16.3615 32.3809 16.9768 32.5382L15.887 36.9142L18.5175 37.5704L19.5968 33.2409C20.3154 33.4359 21.0128 33.6159 21.6956 33.7855L20.6199 38.0947L23.2537 38.7509L24.3433 34.3831C28.8342 35.233 32.211 34.8904 33.6323 30.8284C34.7776 27.558 33.5753 25.6717 31.2127 24.4416C32.9335 24.0447 34.2296 22.9129 34.5752 20.5749L34.5744 20.5743L34.5743 20.5746ZM28.5571 29.0122C27.7432 32.2826 22.2369 30.5147 20.4517 30.0714L21.8979 24.2739C23.683 24.7196 29.4077 25.6015 28.5572 29.0122H28.5571ZM29.3716 20.5272C28.6291 23.5019 24.0462 21.9906 22.5595 21.62L23.8707 16.3621C25.3574 16.7327 30.145 17.4243 29.3718 20.5272H29.3716Z" fill="white"/>
</svg>
