<svg viewBox="0 0 24 24" fill="#636383" xmlns="http://www.w3.org/2000/svg">
    <path fill-rule="evenodd" clip-rule="evenodd" d="M8 3H4C3.44772 3 3 3.44772 3 4V8C3 8.55228 3.44772 9 4 9H8C8.55228 9 9 8.55228 9 8V4C9 3.44772 8.55228 3 8 3ZM4 1C2.34315 1 1 2.34315 1 4V8C1 9.65685 2.34315 11 4 11H8C9.65685 11 11 9.65685 11 8V4C11 2.34315 9.65685 1 8 1H4Z"/>
    <path fill-rule="evenodd" clip-rule="evenodd" d="M20 3H16C15.4477 3 15 3.44772 15 4V8C15 8.55228 15.4477 9 16 9H20C20.5523 9 21 8.55228 21 8V4C21 3.44772 20.5523 3 20 3ZM16 1C14.3431 1 13 2.34315 13 4V8C13 9.65685 14.3431 11 16 11H20C21.6569 11 23 9.65685 23 8V4C23 2.34315 21.6569 1 20 1H16Z"/>
    <path fill-rule="evenodd" clip-rule="evenodd" d="M8 15H4C3.44772 15 3 15.4477 3 16V20C3 20.5523 3.44772 21 4 21H8C8.55228 21 9 20.5523 9 20V16C9 15.4477 8.55228 15 8 15ZM4 13C2.34315 13 1 14.3431 1 16V20C1 21.6569 2.34315 23 4 23H8C9.65685 23 11 21.6569 11 20V16C11 14.3431 9.65685 13 8 13H4Z"/>
    <path fill-rule="evenodd" clip-rule="evenodd" d="M20 15H16C15.4477 15 15 15.4477 15 16V20C15 20.5523 15.4477 21 16 21H20C20.5523 21 21 20.5523 21 20V16C21 15.4477 20.5523 15 20 15ZM16 13C14.3431 13 13 14.3431 13 16V20C13 21.6569 14.3431 23 16 23H20C21.6569 23 23 21.6569 23 20V16C23 14.3431 21.6569 13 20 13H16Z"/>
</svg>
