<svg viewBox="0 0 24 24" fill="#636383" xmlns="http://www.w3.org/2000/svg">
    <path fill-rule="evenodd" clip-rule="evenodd" d="M17.7071 17.7071C18.0976 17.3166 18.0976 16.6834 17.7071 16.2929L7.70711 6.29289C7.31658 5.90237 6.68342 5.90237 6.29289 6.29289C5.90237 6.68342 5.90237 7.31658 6.29289 7.70711L16.2929 17.7071C16.6834 18.0976 17.3166 18.0976 17.7071 17.7071Z"/>
    <path fill-rule="evenodd" clip-rule="evenodd" d="M6 17C6 17.5523 6.44772 18 7 18H17C17.5523 18 18 17.5523 18 17V7C18 6.44771 17.5523 6 17 6C16.4477 6 16 6.44771 16 7V16H7C6.44772 16 6 16.4477 6 17Z"/>
</svg>
