<svg viewBox="0 0 32 32" fill="none" xmlns="http://www.w3.org/2000/svg">
    <path d="M31.9709 16C31.9709 18.1011 31.5581 20.1817 30.7561 22.1229C29.954 24.0641 28.7785 25.8279 27.2966 27.3137C25.8145 28.7994 24.0553 29.978 22.1188 30.7821C20.1825 31.5862 18.1073 32 16.0115 32C15.3268 32.0033 14.6431 31.9546 13.9657 31.8545C12.832 31.7204 11.7173 31.4569 10.6433 31.0691C7.53203 29.9671 4.83798 27.9255 2.93194 25.2252C1.02591 22.5248 0.00159283 19.2986 1.85615e-06 15.9905C-0.00158912 12.6826 1.01962 9.45535 2.92305 6.75318C4.8265 4.05102 7.51859 2.00676 10.6287 0.90182C11.7223 0.515492 12.8566 0.256816 14.0093 0.130911C14.6828 0.0433913 15.3613 -0.000336489 16.0404 1.94948e-06C20.2732 1.94948e-06 24.3325 1.68572 27.3255 4.6863C30.3185 7.68688 32 11.7565 32 16H31.9709Z" fill="#79A6FF"/>
    <path opacity="0.5" d="M31.9708 16C31.9786 18.4864 31.4084 20.9404 30.3053 23.1673C29.2023 25.3942 27.5966 27.3328 25.616 28.8291L18.7534 16.0145L12.0939 3.68L10.6285 0.90182C11.7221 0.515492 12.8564 0.256816 14.009 0.130911C14.6826 0.0433913 15.3612 -0.000336489 16.0403 1.94948e-06C20.273 1.94948e-06 24.3324 1.68572 27.3254 4.6863C30.3184 7.68688 31.9998 11.7565 31.9998 16H31.9708Z" fill="#1149D6" fill-opacity="0.3"/>
    <path opacity="0.5" d="M31.9711 16C31.9711 18.1011 31.5583 20.1817 30.7562 22.1229C29.9542 24.0641 28.7786 25.8279 27.2966 27.3137C25.8146 28.7994 24.0553 29.978 22.119 30.7821C20.1827 31.5862 18.1074 32 16.0115 32C15.327 32.0033 14.6431 31.9546 13.9658 31.8545C12.8321 31.7204 11.7174 31.4569 10.6433 31.0691C6.74611 29.6742 3.54167 26.8163 1.70599 23.0982L5.49276 16.0145L12.0942 3.68L14.0093 0.130911C14.6829 0.0433913 15.3613 -0.000336489 16.0406 1.94948e-06C20.2733 1.94948e-06 24.3327 1.68572 27.3257 4.6863C30.3186 7.68688 32 11.7565 32 16H31.9711Z" fill="#1149D6" fill-opacity="0.3"/>
    <path opacity="0.5" d="M31.9706 16C31.9706 18.1011 31.5578 20.1817 30.7558 22.1229C29.9537 24.0641 28.7782 25.8279 27.2961 27.3137C25.8142 28.7994 24.0548 29.978 22.1185 30.7821C20.1822 31.5862 18.1069 32 16.011 32C15.3265 32.0033 14.6426 31.9546 13.9654 31.8545L12.0937 28.3491L5.49231 16.0145L1.69104 8.91636C3.51777 5.18176 6.72339 2.30713 10.6284 0.90182C11.7219 0.515492 12.8562 0.256816 14.0089 0.130911C14.6825 0.0433913 15.3609 -0.000336489 16.0401 1.94948e-06C20.2729 1.94948e-06 24.3322 1.68572 27.3252 4.6863C30.3182 7.68688 31.9997 11.7565 31.9997 16H31.9706Z" fill="#1149D6" fill-opacity="0.3"/>
    <path d="M31.9712 16.0003C31.9712 18.1014 31.5584 20.1819 30.7563 22.1232C29.9543 24.0644 28.7787 25.8282 27.2967 27.314C25.8148 28.7997 24.0554 29.9782 22.1191 30.7824C20.1828 31.5864 18.1075 32.0003 16.0116 32.0003C15.3271 32.0035 14.6432 31.9549 13.9659 31.8548C12.8322 31.7207 11.7175 31.4571 10.6434 31.0694L12.0943 28.3494L18.6957 16.0148L25.6164 3.17114C27.5971 4.66748 29.2027 6.60602 30.3057 8.83293C31.4088 11.0598 31.979 13.5138 31.9712 16.0003Z" fill="#1149D6" fill-opacity="0.3"/>
    <path d="M20.6108 12.4074H12.3699C12.6382 11.9797 12.9546 11.5844 13.313 11.2292C14.4015 10.1364 15.8316 9.4519 17.3637 9.29038C18.8957 9.12883 20.4365 9.50011 21.728 10.342L22.9468 8.04377C22.1824 7.57104 21.3507 7.2179 20.4803 6.9965C18.9042 6.56041 17.2396 6.56041 15.6634 6.9965C14.0811 7.41443 12.6387 8.24793 11.4849 9.41104C10.6194 10.2644 9.9336 11.2833 9.4682 12.4074H7.42248L5.97162 14.982H19.1455L20.6108 12.4074Z" fill="white"/>
    <path d="M21.7127 21.6731C21.1292 22.0562 20.4873 22.3413 19.8121 22.5167C18.6713 22.8222 17.4707 22.8222 16.3299 22.5167C14.6976 22.0687 13.2874 21.033 12.3691 19.6076H20.61L19.1591 17.0186H6.04333L7.4942 19.6076H9.46736C9.93276 20.7317 10.6185 21.7506 11.4841 22.604C12.6417 23.7621 14.0827 24.5948 15.6625 25.0186C17.24 25.4455 18.9021 25.4455 20.4794 25.0186C21.3484 24.7858 22.1792 24.4282 22.9459 23.9567L21.7127 21.6731Z" fill="white"/>
</svg>
