<svg viewBox="0 0 24 24" fill="#636383" xmlns="http://www.w3.org/2000/svg">
    <path fill-rule="evenodd" clip-rule="evenodd" d="M8.60399 2.3519C9.76424 -0.809844 14.236 -0.809845 15.3962 2.3519C15.6974 3.1727 16.5963 3.6056 17.4259 3.32933C20.6212 2.26513 23.4093 5.76127 21.6607 8.6397C21.2068 9.38695 21.4288 10.3597 22.162 10.836C24.9863 12.6707 23.9913 17.0303 20.6506 17.4579C19.7834 17.5689 19.1613 18.349 19.2461 19.2192C19.5725 22.5712 15.5436 24.5114 13.1265 22.1662C12.499 21.5574 11.5012 21.5574 10.8737 22.1662C8.45656 24.5114 4.42767 22.5712 4.75415 19.2192C4.83891 18.349 4.21684 17.5689 3.34959 17.4579C0.00893998 17.0303 -0.986115 12.6707 1.83818 10.836C2.57138 10.3597 2.79339 9.38695 2.33946 8.6397C0.59091 5.76127 3.37899 2.26513 6.57434 3.32933C7.40387 3.6056 8.30279 3.1727 8.60399 2.3519ZM13.5186 3.0409C12.9998 1.62716 11.0004 1.62716 10.4816 3.0409C9.80794 4.87657 7.79756 5.84472 5.94237 5.22686C4.51361 4.75101 3.26694 6.31428 4.04879 7.60134C5.06398 9.27252 4.56746 11.4479 2.9277 12.5131C1.66485 13.3335 2.10978 15.2829 3.60351 15.4741C5.54306 15.7223 6.93429 17.4669 6.74473 19.413C6.59875 20.9119 8.40023 21.7794 9.48104 20.7308C10.8844 19.3692 13.1158 19.3692 14.5192 20.7308C15.6 21.7794 17.4015 20.9119 17.2555 19.413C17.0659 17.4669 18.4571 15.7223 20.3967 15.4741C21.8904 15.2829 22.3354 13.3335 21.0725 12.5131C19.4328 11.4479 18.9362 9.27252 19.9514 7.60134C20.7333 6.31428 19.4866 4.75101 18.0578 5.22686C16.2026 5.84472 14.1923 4.87657 13.5186 3.0409Z"/>
    <path fill-rule="evenodd" clip-rule="evenodd" d="M12 9C10.3431 9 9 10.3431 9 12C9 13.6569 10.3431 15 12 15C13.6569 15 15 13.6569 15 12C15 10.3431 13.6569 9 12 9ZM7 12C7 9.23858 9.23858 7 12 7C14.7614 7 17 9.23858 17 12C17 14.7614 14.7614 17 12 17C9.23858 17 7 14.7614 7 12Z"/>
</svg>
