<svg width="24" height="24" viewBox="0 0 24 24" fill="#636383" xmlns="http://www.w3.org/2000/svg">
    <path fill-rule="evenodd" clip-rule="evenodd" d="M15.4078 2.5307C13.2652 1.78703 10.9368 1.82599 8.81914 2.64094C6.70152 3.45589 4.92577 4.99641 3.79445 7L2.10052 6C3.4581 3.59569 5.589 1.74707 8.13014 0.76913C10.6713 -0.20881 13.4654 -0.255562 16.0365 0.636839C18.6076 1.52924 20.7965 3.30558 22.2303 5.66319C23.6641 8.0208 24.254 10.8138 23.8996 13.5663C23.5452 16.3188 22.2684 18.8605 20.2867 20.7584C18.305 22.6562 15.741 23.7927 13.0317 23.9743C10.3223 24.1559 7.63523 23.3713 5.42821 21.7542C3.2212 20.1371 1.63084 17.7875 0.928098 15.1058C0.788302 14.5724 1.09792 14.024 1.61964 13.8811C2.14137 13.7382 2.67764 14.0547 2.81743 14.5882C3.40305 16.8229 4.72835 18.7809 6.56753 20.1285C8.40671 21.4761 10.646 22.1299 12.9038 21.9786C15.1615 21.8273 17.2982 20.8802 18.9496 19.2987C20.601 17.7171 21.665 15.599 21.9604 13.3053C22.2557 11.0115 21.7641 8.684 20.5692 6.71932C19.3744 4.75465 17.5503 3.27437 15.4078 2.5307Z"/>
    <path fill-rule="evenodd" clip-rule="evenodd" d="M1.93734 1.52586C2.47722 1.50902 2.92823 1.94287 2.94471 2.4949L3.04914 5.99426L6.57211 5.51016C7.10743 5.4366 7.59971 5.82069 7.67165 6.36806C7.74359 6.91542 7.36795 7.41878 6.83263 7.49234L2.23494 8.12412C1.96051 8.16183 1.68331 8.07883 1.47213 7.89571C1.26095 7.71259 1.13559 7.44652 1.12714 7.16353L0.989631 2.5559C0.973156 2.00387 1.39746 1.54271 1.93734 1.52586Z"/>
    <path fill-rule="evenodd" clip-rule="evenodd" d="M12.2641 5.99985C12.8043 5.99985 13.2421 6.44756 13.2421 6.99985V12H16.1761C16.7162 12 17.1541 12.4477 17.1541 13C17.1541 13.5523 16.7162 14 16.1761 14H12.2641C11.724 14 11.2861 13.5523 11.2861 13V6.99985C11.2861 6.44756 11.724 5.99985 12.2641 5.99985Z"/>
</svg>
