<svg viewBox="0 0 16 16" fill="white" xmlns="http://www.w3.org/2000/svg">
    <path fill-rule="evenodd" clip-rule="evenodd" d="M3.33334 4.66667C3.15653 4.66667 2.98696 4.73691 2.86194 4.86193C2.73691 4.98696 2.66668 5.15652 2.66668 5.33334V12.6667C2.66668 12.8435 2.73691 13.0131 2.86194 13.1381C2.98696 13.2631 3.15653 13.3333 3.33334 13.3333H10.6667C10.8435 13.3333 11.0131 13.2631 11.1381 13.1381C11.2631 13.013 11.3333 12.8435 11.3333 12.6667V8.66667C11.3333 8.29848 11.6318 8 12 8C12.3682 8 12.6667 8.29848 12.6667 8.66667V12.6667C12.6667 13.1971 12.456 13.7058 12.0809 14.0809C11.7058 14.456 11.1971 14.6667 10.6667 14.6667H3.33334C2.80291 14.6667 2.2942 14.456 1.91913 14.0809C1.54406 13.7058 1.33334 13.1971 1.33334 12.6667V5.33334C1.33334 4.8029 1.54406 4.2942 1.91913 3.91912C2.2942 3.54405 2.80291 3.33334 3.33334 3.33334H7.33334C7.70153 3.33334 8.00001 3.63181 8.00001 4C8.00001 4.36819 7.70153 4.66667 7.33334 4.66667H3.33334Z"/>
    <path fill-rule="evenodd" clip-rule="evenodd" d="M9.33334 2C9.33334 1.63181 9.63182 1.33334 10 1.33334H14C14.3682 1.33334 14.6667 1.63181 14.6667 2V6C14.6667 6.36819 14.3682 6.66667 14 6.66667C13.6318 6.66667 13.3333 6.36819 13.3333 6V2.66667H10C9.63182 2.66667 9.33334 2.36819 9.33334 2Z"/>
    <path fill-rule="evenodd" clip-rule="evenodd" d="M14.4714 1.5286C14.7318 1.78895 14.7318 2.21106 14.4714 2.47141L7.13807 9.80474C6.87772 10.0651 6.45561 10.0651 6.19526 9.80474C5.93491 9.54439 5.93491 9.12228 6.19526 8.86193L13.5286 1.5286C13.7889 1.26825 14.2111 1.26825 14.4714 1.5286Z"/>
</svg>
