<svg viewBox="0 0 24 24" fill="none" xmlns="http://www.w3.org/2000/svg">
    <path fill-rule="evenodd" clip-rule="evenodd" d="M7.17755 15.78C6.8066 15.78 6.45392 15.5634 6.29961 15.2026C5.77524 13.9769 5.50977 12.6746 5.50977 11.3321C5.50977 6.33924 9.26272 2.11508 14.2397 1.50699C14.7632 1.44412 15.2381 1.81237 15.3025 2.33228C15.3669 2.85188 14.9951 3.325 14.4725 3.38876C10.4499 3.88066 7.41666 7.29533 7.41666 11.3321C7.41666 12.4184 7.6315 13.471 8.05459 14.4604C8.26074 14.9422 8.03481 15.4993 7.5503 15.704C7.42834 15.7556 7.3019 15.78 7.17755 15.78Z" fill="#2CCCBF"/>
    <path fill-rule="evenodd" clip-rule="evenodd" d="M9.23776 10.6C9.18449 10.6 9.13003 10.5934 9.07616 10.5793C8.72973 10.4895 8.5214 10.1333 8.61039 9.78407C9.43419 6.55464 12.3199 4.29999 15.6285 4.29999C17.3166 4.29999 18.96 4.89819 20.2561 5.98497C20.5311 6.215 20.5689 6.62701 20.3404 6.90419C20.1124 7.18167 19.704 7.21981 19.4291 6.98948C18.3648 6.09729 17.0151 5.60569 15.6285 5.60569C12.9107 5.60569 10.5404 7.45764 9.86395 10.1093C9.78895 10.4045 9.52586 10.6 9.23776 10.6Z" fill="#9EF2ED"/>
    <path fill-rule="evenodd" clip-rule="evenodd" d="M15.1533 18.283C14.3838 18.2307 13.6332 18.0583 12.9228 17.7694C12.5865 17.6327 12.4226 17.2439 12.5564 16.901C12.6908 16.5583 13.0716 16.3911 13.4079 16.5276C13.9909 16.7648 14.6074 16.9065 15.2404 16.9495C16.1145 17.0088 16.9693 16.8791 17.7813 16.5635C18.1196 16.4326 18.4981 16.6056 18.6267 16.9504C18.7554 17.2952 18.5858 17.6816 18.2477 17.8131C17.2579 18.1972 16.2172 18.3552 15.1533 18.283Z" fill="#9EF2ED"/>
    <mask id="mask0_530_4959" maskUnits="userSpaceOnUse" x="3" y="4" width="10" height="19" style="mask-type: alpha;">
        <path d="M3.26953 4.68983H12.1992V22.5H3.26953V4.68983Z" fill="white"/>
    </mask>
    <g mask="url(#mask0_530_4959)">
        <path fill-rule="evenodd" clip-rule="evenodd" d="M11.5498 22.5001C11.487 22.5001 11.4231 22.4908 11.3601 22.4714C6.59668 21.0187 3.26953 16.358 3.26953 11.1971C3.26953 8.98722 3.89763 6.8404 5.08602 4.98867C5.27926 4.68672 5.68097 4.59891 5.98322 4.79304C6.28517 4.98658 6.37298 5.38858 6.17914 5.69054C5.12545 7.33231 4.56843 9.23661 4.56843 11.1971C4.56843 15.7917 7.51717 19.9417 11.7391 21.229C12.0823 21.3338 12.2755 21.6967 12.1707 22.0398C12.0853 22.3197 11.8281 22.5001 11.5498 22.5001Z" fill="#9EF2ED"/>
    </g>
    <path fill-rule="evenodd" clip-rule="evenodd" d="M15.5256 20.82C12.6902 20.82 10.101 19.7549 8.36401 17.8587C8.08676 17.5559 8.10927 17.0879 8.41407 16.8125C8.71888 16.5376 9.19075 16.5597 9.4683 16.8625C11.0024 18.5367 13.3623 19.4383 15.9329 19.3304C16.3461 19.311 16.6921 19.6311 16.7093 20.0398C16.7264 20.4481 16.4065 20.7935 15.9945 20.8106C15.8378 20.8168 15.6808 20.82 15.5256 20.82Z" fill="#2CCCBF"/>
</svg>
