<svg width="16" height="16" viewBox="0 0 16 16" fill="#636383" xmlns="http://www.w3.org/2000/svg">
    <path fill-rule="evenodd" clip-rule="evenodd" d="M3.33334 2.66665C3.15653 2.66665 2.98696 2.73688 2.86194 2.86191C2.73691 2.98693 2.66668 3.1565 2.66668 3.33331V12.6666C2.66668 12.8435 2.73691 13.013 2.86194 13.1381C2.98696 13.2631 3.15653 13.3333 3.33334 13.3333H6.00001C6.3682 13.3333 6.66668 13.6318 6.66668 14C6.66668 14.3682 6.3682 14.6666 6.00001 14.6666H3.33334C2.80291 14.6666 2.2942 14.4559 1.91913 14.0809C1.54406 13.7058 1.33334 13.1971 1.33334 12.6666V3.33331C1.33334 2.80288 1.54406 2.29417 1.91913 1.9191C2.2942 1.54403 2.80291 1.33331 3.33334 1.33331H6.00001C6.3682 1.33331 6.66668 1.63179 6.66668 1.99998C6.66668 2.36817 6.3682 2.66665 6.00001 2.66665H3.33334Z"/>
    <path fill-rule="evenodd" clip-rule="evenodd" d="M10.1953 4.19526C10.4556 3.93491 10.8777 3.93491 11.1381 4.19526L14.4714 7.5286C14.7318 7.78894 14.7318 8.21106 14.4714 8.4714L11.1381 11.8047C10.8777 12.0651 10.4556 12.0651 10.1953 11.8047C9.93491 11.5444 9.93491 11.1223 10.1953 10.8619L13.0572 8L10.1953 5.13807C9.93491 4.87772 9.93491 4.45561 10.1953 4.19526Z"/>
    <path fill-rule="evenodd" clip-rule="evenodd" d="M5.33334 7.99998C5.33334 7.63179 5.63182 7.33331 6.00001 7.33331H14C14.3682 7.33331 14.6667 7.63179 14.6667 7.99998C14.6667 8.36817 14.3682 8.66665 14 8.66665H6.00001C5.63182 8.66665 5.33334 8.36817 5.33334 7.99998Z"/>
</svg>
