<svg width="24" height="24" viewBox="0 0 24 24" fill="none" xmlns="http://www.w3.org/2000/svg">
    <path d="M0 0V10.9565H10.9565V0H0ZM9.39131 9.39131H1.5652V1.5652H9.39131V9.39131Z" fill="white"/>
    <path d="M7.82651 3.13046H3.13086V7.82611H7.82651V3.13046Z" fill="white"/>
    <path d="M13.0439 0V10.9565H24.0005V0H13.0439ZM22.4353 9.39131H14.6091V1.5652H22.4353V9.39131Z" fill="white"/>
    <path d="M20.8695 3.13046H16.1738V7.82611H20.8695V3.13046Z" fill="white"/>
    <path d="M0 13.0435V24H10.9565V13.0435H0ZM9.39131 22.4348H1.5652V14.6087H9.39131V22.4348Z" fill="white"/>
    <path d="M7.82651 16.1739H3.13086V20.8695H7.82651V16.1739Z" fill="white"/>
    <path d="M16.1744 14.6087V13.0435H13.0439V24H16.1744V22.4348H14.6091V19.3043H16.1744V17.7391H14.6091V14.6087H16.1744Z" fill="white"/>
    <path d="M23.9998 13.0435H22.4346V14.6087H23.9998V13.0435Z" fill="white"/>
    <path d="M22.4344 16.6956V22.4348H20.8691V24H23.9996V16.6956H22.4344Z" fill="white"/>
    <path d="M20.8697 13.0435H17.7393V14.6087H20.8697V13.0435Z" fill="white"/>
    <path d="M20.8697 17.7391V16.1739H17.7393V20.8695H20.8697V19.3043H19.3045V17.7391H20.8697Z" fill="white"/>
    <path d="M19.3045 22.4348H17.7393V24H19.3045V22.4348Z" fill="white"/>
</svg>
