<svg width="14" height="14" viewBox="0 0 15 15" fill="#636383" xmlns="http://www.w3.org/2000/svg">
    <path d="M14.2469 13.2155L11.5592 10.552C13.5992 8.00751 13.407 4.26423 11.0792 1.93647C9.85478 0.712085 8.24692 0.039917 6.51916 0.039917C4.7914 0.039917 3.15916 0.712109 1.93468 1.93553C0.711231 3.15992 0.0390625 4.76777 0.0390625 6.52001C0.0390625 8.27225 0.711255 9.88001 1.93468 11.1045C3.15906 12.3045 4.76692 13.0001 6.51916 13.0001C7.98354 13.0001 9.42364 12.4957 10.5514 11.5845L13.2159 14.249C13.3603 14.3933 13.5281 14.4646 13.7203 14.4646C13.9125 14.4646 14.1047 14.3924 14.2247 14.249C14.5115 13.9602 14.5115 13.5046 14.2472 13.2158L14.2469 13.2155ZM11.5592 6.51999C11.5592 7.86437 11.0314 9.13551 10.0714 10.0722C9.11135 11.0078 7.86354 11.56 6.51911 11.56C5.17468 11.56 3.90359 11.0322 2.96687 10.0722C2.03125 9.11223 1.47906 7.86442 1.47906 6.51999C1.47906 5.17556 2.00687 3.90447 2.96687 2.96775C3.92687 2.03213 5.15126 1.47994 6.51911 1.47994C7.8635 1.47994 9.13463 2.00775 10.0714 2.96775C11.007 3.92775 11.5592 5.15213 11.5592 6.51999Z"/>
</svg>
