<svg viewBox="0 0 600 75" fill="none" xmlns="http://www.w3.org/2000/svg">
    <title>SideShift logo</title>
    <path d="M136.811 27.71l-9.463-9.773h-12.927l-6.99 7.175v5.876l6.495 3.34h15.463l10.329 5.443v11.69l-10.082 10.391h-17.504l-11.01-11.319 3.835-4.02 9.464 9.773h12.927l6.989-7.175v-5.938l-6.309-3.278h-15.339l-10.701-5.443v-11.69l10.144-10.392h17.504l11.01 11.32-3.835 4.02zM174.343 17.937h-9.959v38.349h9.959v5.566h-25.36v-5.566h9.958V17.937h-9.958V12.37h25.36v5.567zM212.726 61.852H185.14V12.371h27.586l10.144 10.39v28.7l-10.144 10.391zm4.701-36.74l-6.927-7.175h-19.917v38.349H210.5l6.927-7.175V25.112zM234.61 61.852V12.371h37.73v5.566h-32.287v16.391h18.679v5.567h-18.679v16.39h32.287v5.567h-37.73zM314.818 27.71l-9.464-9.773h-12.927l-6.989 7.175v5.876l6.494 3.34h15.464l10.329 5.443v11.69l-10.082 10.391h-17.504l-11.01-11.319 3.835-4.02 9.463 9.773h12.927l6.99-7.175v-5.938l-6.309-3.278h-15.34l-10.7-5.443v-11.69l10.144-10.392h17.504l11.01 11.32-3.835 4.02zM360.823 61.852V39.895h-26.844v21.957h-5.443V12.371h5.443v21.957h26.844V12.37h5.443v49.482h-5.443zM402.423 17.937h-9.958v38.349h9.958v5.566h-25.359v-5.566h9.958V17.937h-9.958V12.37h25.359v5.567zM418.664 17.937v16.391h18.679v5.567h-18.679v21.957h-5.443V12.371h37.729v5.566h-32.286zM493.341 17.937h-16.143v43.915h-5.443V17.937h-16.144V12.37h37.73v5.567zM505.709 61.852v-8.906h6.123v8.906h-6.123zM558.4 61.852V39.895h-26.844v21.957h-5.443v-39.09l10.144-10.392h17.442l10.144 10.392v39.09H558.4zm0-36.74l-6.927-7.175h-12.989l-6.928 7.175v9.216H558.4v-9.216zM600 17.937h-9.958v38.349H600v5.566h-25.359v-5.566h9.958V17.937h-9.958V12.37H600v5.567z" fill="#FFF"/>

    <path d="M61.177 8.874A36.991 36.991 0 0037.112 0C16.592 0 0 16.607 0 37.143a37.06 37.06 0 008.866 24.086L61.177 8.874z" fill="#FFF"/>
    <path d="M12.793 65.159c6.523 5.641 15.01 9.064 24.32 9.064 20.518 0 37.111-16.607 37.111-37.143 0-9.318-3.42-17.811-9.056-24.34L12.793 65.16z" fill="#FFF"/>
</svg>
