<svg viewBox="0 0 24 24" fill="#636383" xmlns="http://www.w3.org/2000/svg">
    <path fill-rule="evenodd" clip-rule="evenodd" d="M5 2H19C20.6569 2 22 3.34315 22 5V19C22 20.6569 20.6569 22 19 22H5C3.34315 22 2 20.6569 2 19V5C2 3.34315 3.34315 2 5 2ZM0 5C0 2.23858 2.23858 0 5 0H19C21.7614 0 24 2.23858 24 5V19C24 21.7614 21.7614 24 19 24H5C2.23858 24 0 21.7614 0 19V5ZM7 14C7.55228 14 8 14.4477 8 15V17C8 17.5523 7.55228 18 7 18C6.44772 18 6 17.5523 6 17V15C6 14.4477 6.44772 14 7 14ZM13 11C13 10.4477 12.5523 10 12 10C11.4477 10 11 10.4477 11 11V17C11 17.5523 11.4477 18 12 18C12.5523 18 13 17.5523 13 17V11ZM17 6C16.4477 6 16 6.44771 16 7V17C16 17.5523 16.4477 18 17 18C17.5523 18 18 17.5523 18 17V7C18 6.44772 17.5523 6 17 6Z"/>
</svg>
