<svg viewBox="0 0 32 32" fill="none" xmlns="http://www.w3.org/2000/svg">
    <path d="M31.5177 19.8705C29.3808 28.442 20.6992 33.6584 12.1267 31.521C3.55778 29.3841 -1.65868 20.702 0.479176 12.1312C2.61515 3.5587 11.2967 -1.65814 19.8666 0.478774C28.4385 2.61569 33.6546 11.2987 31.5175 19.8706L31.5176 19.8705H31.5177Z" fill="#50AF95"/>
    <path fill-rule="evenodd" clip-rule="evenodd" d="M17.6277 16.6008C17.5368 16.6082 17.0671 16.6387 16.0193 16.6387C15.1859 16.6387 14.5943 16.6115 14.3867 16.6008C11.1661 16.447 8.76216 15.8384 8.76216 15.1096C8.76216 14.3809 11.1661 13.7731 14.3867 13.6168V15.9947C14.5973 16.0111 15.2003 16.0498 16.0337 16.0498C17.0338 16.0498 17.5345 16.0045 17.6247 15.9955V13.6185C20.8385 13.7739 23.2371 14.3826 23.2371 15.1096C23.2371 15.8367 20.8392 16.4454 17.6247 16.6L17.6277 16.6008ZM17.6277 13.3725V11.2447H22.1128V8H9.90161V11.2447H14.3859V13.3717C10.741 13.5535 8 14.3373 8 15.2766C8 16.2159 10.741 16.9989 14.3859 17.1815V24H17.627V17.179C21.2635 16.9973 24 16.2143 24 15.2758C24 14.3373 21.2658 13.5543 17.627 13.3717L17.6277 13.3725Z" fill="white"/>
</svg>
