<svg width="111" height="199" viewBox="0 0 111 199" fill="none" xmlns="http://www.w3.org/2000/svg">
<path d="M28.8395 43.9704L28.8376 161.79L30.1406 161.79L30.1419 43.9704L28.8395 43.9704Z" fill="#E3E8FC"/>
<path d="M40.1928 101.039L40.1915 116.215C40.177 117.113 39.4904 117.832 38.5956 117.817C37.7001 117.802 36.985 117.112 37.0002 116.213L37.0015 101.039C37.0161 100.139 37.7027 99.421 38.5975 99.4356C39.5043 99.4089 40.208 100.141 40.1928 101.039Z" fill="#B4CDDC"/>
<path d="M1.01655 76.7198L1.01656 184.778C1.01656 192.961 7.42309 199 15.6719 199L94.3041 199C102.552 199 110 192.961 110 184.778L110 97.1398L110 71.2373L110 53.4395L110 48.4343L110 16.2555C110 8.07151 102.633 0.999996 94.384 0.999996L15.7351 0.999999C7.48637 1 0.999992 8.07152 0.999992 16.2555L1.01655 28.4116L1.01655 76.7198Z" fill="#636383"/>
<rect x="46.623" y="9.25586" width="2.33532" height="12.4308" rx="1.16766" transform="rotate(-90 46.623 9.25586)" fill="#222735"/>
<path d="M65.6572 10.0342C66.7301 10.0342 67.5995 9.1631 67.5995 8.08808C67.5995 7.01305 66.7301 6.14198 65.6572 6.14198C64.5842 6.14198 63.7148 7.01305 63.7148 8.08808C63.7148 9.1631 64.5842 10.0342 65.6572 10.0342Z" fill="#222735"/>
<path d="M85.0336 7.6699C85.0336 6.7953 85.7568 6 86.7208 6L94.8341 6C101.019 6 106 10.9298 106 17.052L106 183.948C106 190.07 101.019 195 94.8341 195L16.1659 195C9.98052 195 5 190.07 5 183.948L4.99999 17.052C4.99999 10.9298 9.98051 6 16.1659 6L24.1989 6C25.0826 6 25.8861 6.71539 25.8861 7.66991C25.8861 10.9298 28.4665 13.6107 31.7598 13.6107L79.0191 13.6107C82.3124 13.6107 85.0336 10.9298 85.0336 7.6699Z" fill="#CBCBDD"/>
<path d="M69.0288 80.2421C70.3183 77.9929 70.9998 75.4439 70.9998 72.8688V57.1247C70.9998 54.4062 70.2381 51.7202 68.7882 49.3668C65.9553 44.7577 60.991 42 55.4989 42C50.0135 42 45.0425 44.7577 42.2096 49.3668C40.7597 51.7202 39.998 54.4062 39.998 57.1247V72.8688C39.998 75.4439 40.6796 77.9929 41.9691 80.2421C44.7151 85.0272 49.8999 88 55.4989 88C61.0979 88 66.2894 85.0272 69.0288 80.2421ZM68.8417 72.8688C68.8417 75.0853 68.2537 77.2758 67.1446 79.212C64.7794 83.3322 60.3229 85.8878 55.4989 85.8878C50.6749 85.8878 46.2184 83.3322 43.8599 79.212C42.7508 77.2758 42.1628 75.0853 42.1628 72.8688V57.1247C42.1628 54.7843 42.8176 52.4765 44.067 50.4555C46.5057 46.4853 50.7818 44.1122 55.4989 44.1122C60.216 44.1122 64.4988 46.4853 66.9375 50.4555C68.1802 52.483 68.8417 54.7908 68.8417 57.1247V72.8688Z" fill="#3B3B4E"/>
<path d="M65.888 78.4041C66.8768 76.6765 67.398 74.7207 67.398 72.7518V67.895C67.398 67.3148 66.9169 66.8389 66.3156 66.8389C65.7209 66.8389 65.2332 67.3083 65.2332 67.895V72.7518C65.2332 74.3686 64.8056 75.9659 63.9971 77.374C62.2733 80.3794 59.0195 82.2504 55.4984 82.2504C51.9773 82.2504 48.7234 80.3794 46.9996 77.374C46.1912 75.9659 45.7636 74.3621 45.7636 72.7518V67.895C45.7636 67.3148 45.2825 66.8389 44.6812 66.8389C44.0798 66.8389 43.6055 67.3083 43.6055 67.8885V72.7453C43.6055 74.7207 44.1266 76.6765 45.1155 78.3975C47.2201 82.0679 51.2022 84.3496 55.4984 84.3496C59.7945 84.3496 63.7767 82.0744 65.888 78.4041Z" fill="#3B3B4E"/>
<path d="M67.3646 57.014C67.3245 53.1806 65.3535 49.6016 62.0862 47.4698C60.2021 46.2376 57.9371 45.5205 55.4984 45.5205C53.0597 45.5205 50.7947 46.2376 48.9105 47.4698C45.6433 49.6016 43.6723 53.1806 43.6322 57.014L43.6055 60.1823C43.6055 60.7691 44.0932 61.2385 44.6945 61.2385C45.2892 61.2319 45.7702 60.756 45.7702 60.1758V57.1248C45.7702 51.8898 50.1399 47.6262 55.5051 47.6262C60.8702 47.6262 65.2332 51.8898 65.2332 57.1248V60.1758C65.2332 60.756 65.7142 61.2319 66.3089 61.2385C66.9102 61.245 67.398 60.7691 67.398 60.1823L67.3646 57.014Z" fill="#3B3B4E"/>
<path d="M47.2098 72.5623C47.2098 73.9379 47.5706 75.2939 48.2655 76.4999C49.7354 79.062 52.5082 80.6527 55.5015 80.6527C58.4947 80.6527 61.2675 79.062 62.7374 76.4999C63.4256 75.3004 63.7931 73.9379 63.7931 72.5623V67.4642C63.7931 66.1082 64.9222 64.9999 66.3187 64.9999C66.9133 64.9999 67.401 64.5306 67.401 63.9438C67.401 63.3571 66.92 62.8877 66.3187 62.8877C63.733 62.8877 61.635 64.9413 61.635 67.4577V72.5558C61.635 73.5728 61.3677 74.5768 60.8599 75.4634C59.7709 77.3605 57.7197 78.5405 55.5081 78.5405C53.2966 78.5405 51.2454 77.3605 50.1563 75.4634C49.6485 74.5768 49.3813 73.5728 49.3813 72.5558V67.4577C49.3813 64.9347 47.2766 62.8877 44.6976 62.8877C44.103 62.8877 43.6152 63.3571 43.6152 63.9438C43.6152 64.5306 44.0963 64.9999 44.6976 64.9999C46.0874 64.9999 47.2232 66.1017 47.2232 67.4642V72.5623H47.2098Z" fill="#3B3B4E"/>
<path d="M55.4579 76.8131C53.0259 76.787 51.0816 74.8182 51.0816 72.4452V64.5699C51.0816 64.27 50.9346 63.9962 50.6874 63.8202C48.6161 62.3338 47.3934 59.9869 47.3868 57.4574C47.3801 55.3386 48.2286 53.3503 49.7587 51.8508C51.2954 50.3514 53.3332 49.5234 55.498 49.5234C59.9745 49.5234 63.6092 53.0764 63.6092 57.4378C63.6092 59.9738 62.3865 62.3208 60.3086 63.8137C60.0614 63.9897 59.9144 64.27 59.9144 64.5634V72.4908C59.9211 74.8965 57.91 76.8392 55.4579 76.8131ZM55.498 51.5118C53.8744 51.5118 52.3444 52.1311 51.1952 53.2525C50.046 54.3738 49.4112 55.8667 49.4179 57.4509C49.4246 59.4719 50.4669 61.3364 52.2107 62.4316C52.7787 62.7836 53.1127 63.3965 53.1127 64.0549V72.4974C53.1127 73.7817 54.1818 74.8247 55.498 74.8247C56.8142 74.8247 57.8833 73.7817 57.8833 72.4974V64.0484C57.8833 63.3899 58.2173 62.7902 58.7852 62.4316C60.5358 61.3298 61.5781 59.4653 61.5781 57.4378C61.5781 54.1717 58.8521 51.5118 55.498 51.5118Z" fill="#3B3B4E"/>
<rect x="16" y="132.999" width="79" height="17" rx="7" fill="#0085FF"/>
<rect x="17" y="112.999" width="77" height="15" rx="6" stroke="#3B3B4E" stroke-width="2"/>
<path d="M72.7834 122.772C73.8505 122.881 74.8036 122.102 74.9122 121.034C75.0216 119.964 74.2446 119.009 73.1768 118.9C72.1098 118.791 71.1567 119.569 71.0481 120.639C70.9387 121.707 71.7157 122.663 72.7834 122.772Z" fill="#3B3B4E"/>
<path d="M65.7908 122.772C66.8578 122.881 67.8109 122.102 67.9195 121.034C68.0289 119.964 67.252 119.009 66.1842 118.9C65.1171 118.791 64.164 119.569 64.0554 120.639C63.9461 121.707 64.723 122.663 65.7908 122.772Z" fill="#3B3B4E"/>
<path d="M58.7988 122.772C59.8659 122.881 60.819 122.102 60.9276 121.034C61.0369 119.964 60.26 119.009 59.1922 118.9C58.1252 118.791 57.1721 119.569 57.0635 120.639C56.9541 121.707 57.731 122.663 58.7988 122.772Z" fill="#3B3B4E"/>
<path d="M51.8066 122.772C52.8737 122.881 53.8268 122.102 53.9354 121.034C54.0447 119.964 53.2678 119.009 52.2 118.9C51.133 118.791 50.1799 119.569 50.0713 120.639C49.9619 121.707 50.7389 122.663 51.8066 122.772Z" fill="#3B3B4E"/>
<path d="M44.814 122.772C45.881 122.881 46.8341 122.102 46.9427 121.034C47.0521 119.964 46.2752 119.009 45.2074 118.9C44.1403 118.791 43.1872 119.569 43.0786 120.639C42.9693 121.707 43.7462 122.663 44.814 122.772Z" fill="#3B3B4E"/>
<path d="M37.822 122.772C38.8891 122.881 39.8422 122.102 39.9508 121.034C40.0601 119.964 39.2832 119.009 38.2154 118.9C37.1484 118.791 36.1953 119.569 36.0867 120.639C35.9773 121.707 36.7542 122.663 37.822 122.772Z" fill="#3B3B4E"/>
</svg>
