<svg width="224" height="178" viewBox="0 0 224 178" fill="none" xmlns="http://www.w3.org/2000/svg">
<path d="M176.657 0H41.1945C38.8195 0 36.8942 1.92093 36.8942 4.29052V168.76C36.8942 171.13 38.8195 173.051 41.1945 173.051H176.657C179.032 173.051 180.957 171.13 180.957 168.76V4.29052C180.957 1.92093 179.032 0 176.657 0Z" fill="#4D5B81"/>
<path d="M173.183 4.39258H44.668C42.3152 4.39258 40.4078 6.30921 40.4078 8.67349V163.5C40.4078 165.864 42.3152 167.781 44.668 167.781H173.183C175.536 167.781 177.443 165.864 177.443 163.5V8.67349C177.443 6.30921 175.536 4.39258 173.183 4.39258Z" fill="white"/>
<path d="M175.164 84.5471L42.2108 84.5449L42.2107 86.0181L175.164 86.0196V84.5471Z" fill="#E3E8FC"/>
<path d="M77.3847 34.3504C66.1069 37.3562 59.3988 48.9432 62.4126 60.1908C65.4264 71.4384 77.044 78.1289 88.3213 75.1231C99.5993 72.1173 106.307 60.5302 103.294 49.2826C100.231 37.9865 88.662 31.3446 77.3847 34.3504ZM100.231 50.0582C102.807 59.609 97.1202 69.4507 87.4949 72.02C77.9191 74.5894 68.0513 68.9174 65.475 59.3181C62.8987 49.7674 68.5861 39.9257 78.2111 37.3562C87.7869 34.8353 97.6546 40.5075 100.231 50.0582Z" fill="#BAC1D7"/>
<path d="M110.764 97.3853L93.6397 97.3839C92.6254 97.3675 91.8148 96.5911 91.8313 95.5794C91.8485 94.567 92.6268 93.7585 93.6412 93.7757L110.765 93.7771C111.78 93.7935 112.59 94.5699 112.574 95.5816C112.604 96.6069 111.778 97.4025 110.764 97.3853Z" fill="#B4CDDC"/>
<path d="M50.2139 12.8783C50.2139 12.0879 49.5715 11.4473 48.7792 11.4473C47.9868 11.4473 47.3445 12.0879 47.3445 12.8783V72.98C47.3445 73.7703 47.9868 74.411 48.7792 74.411C49.5715 74.411 50.2139 73.7703 50.2139 72.98V12.8783Z" fill="#BAC1D7"/>
<path d="M148.788 33.2652L114.357 9.54492L101.123 28.6555L135.555 52.3758L148.788 33.2652Z" fill="#BAC1D7"/>
<path d="M138.337 64.1446H16.0899C6.83147 64.1446 3.87253e-06 71.3324 3.46758e-06 80.5872L0 159.833C-4.04945e-07 169.088 6.83144 177.444 16.0899 177.444H115.236H144.54H164.674H170.337H206.741C216 177.444 224 169.178 224 159.923V80.6582C224 71.4034 216 64.126 206.741 64.126L192.989 64.1446H138.337Z" fill="#636383"/>
<path d="M213.459 132.204C213.459 133.417 214.442 134.4 215.655 134.4C216.868 134.4 217.851 133.417 217.851 132.204C217.851 130.991 216.868 130.008 215.655 130.008C214.442 130.008 213.459 130.991 213.459 132.204Z" fill="#272736"/>
<path d="M215.965 149.49C216.953 149.49 217.851 150.303 217.851 151.386V160.503C217.851 167.454 212.283 173.051 205.369 173.051H16.8747C9.95991 173.051 4.39221 167.454 4.39221 160.503L4.39222 81.0652C4.39222 74.1144 9.95991 68.5176 16.8747 68.5176H205.369C212.283 68.5176 217.851 74.1144 217.851 81.0652V90.0923C217.851 91.0853 217.043 91.9882 215.965 91.9882C212.283 91.9882 209.255 94.8879 209.255 98.5888V142.731C209.255 146.432 212.283 149.49 215.965 149.49Z" fill="#DCE2FF"/>
<mask id="mask0_805_8580" style="mask-type:alpha" maskUnits="userSpaceOnUse" x="4" y="68" width="214" height="106">
<path d="M215.964 149.49C216.952 149.49 217.85 150.303 217.85 151.386V160.503C217.85 167.454 212.282 173.051 205.368 173.051H16.874C9.95918 173.051 4.39148 167.454 4.39148 160.503L4.39149 81.0652C4.39149 74.1144 9.95918 68.5176 16.874 68.5176H205.368C212.282 68.5176 217.85 74.1144 217.85 81.0652V90.0923C217.85 91.0853 217.042 91.9882 215.964 91.9882C212.282 91.9882 209.319 94.9667 209.319 98.6683V142.81C209.319 146.512 212.282 149.49 215.964 149.49Z" fill="#CBCBDD"/>
</mask>
<g mask="url(#mask0_805_8580)">
<path d="M188.886 -55.3418L29.8114 -55.2991C25.4599 -55.3278 21.9333 -51.6169 21.9592 -47.0219L21.9644 153.37C21.9313 157.949 25.5152 161.602 29.8667 161.631H188.863C193.214 161.66 196.794 157.881 196.769 153.286L196.695 -47.038C196.728 -51.6174 193.179 -55.3289 188.886 -55.3418Z" fill="#272736"/>
<path d="M185.351 -48.3017C181.007 -48.3303 34.3966 -48.3018 34.0782 -48.3017C34.0684 -48.3017 34.0728 -48.3018 34.063 -48.3018C29.719 -48.3222 25.4487 -44.688 25.4746 -40.1024L25.4747 152.054C25.4747 154.424 27.4846 156.363 29.8666 156.36H188.934C191.309 156.354 193.235 154.504 193.235 152.142C193.241 123.997 193.275 -35.9692 193.237 -40.1024C193.196 -44.6346 189.7 -48.2731 185.351 -48.3017Z" fill="white"/>
<path d="M62.8854 118.254C60.7539 117.131 61.8907 115.026 62.8854 114.043C64.1643 112.78 65.7273 108.429 65.7273 108.429C68.2851 107.307 68.5693 105.482 68.8535 104.219C69.9903 100.57 67.1483 100.008 67.1483 100.008C67.1483 100.008 69.4219 93.9732 67.5746 89.3416C65.1589 83.3065 55.3541 81.0609 53.6489 86.675C41.9968 84.1486 44.4125 100.008 44.4125 100.008C44.4125 100.008 41.5705 100.57 42.7073 104.219C42.9915 105.482 43.2757 107.307 45.8335 108.429C45.8335 108.429 47.3965 112.78 48.6754 114.043C49.6701 115.026 50.8069 117.131 48.6754 118.254C44.4125 120.5 31.6235 121.061 31.6235 130.885H79.9373C79.9373 121.061 67.1483 120.5 62.8854 118.254Z" fill="#67749E"/>
</g>
<path d="M145.657 132.955C144.901 132.943 144.214 132.444 143.508 131.31C141.628 128.665 142.123 125.647 144.949 123.125C146.601 121.677 148.576 120.44 150.425 119.673C150.497 118.936 150.568 118.2 150.537 117.372C150.542 117.121 150.562 116.811 150.555 116.369C150.613 113.801 150.817 106.923 148.38 106.588C147.037 106.417 144.135 109.927 143.052 111.843C139.598 117.41 138.055 121.976 138.625 125.027C138.665 125.352 138.452 125.674 138.125 125.713C137.799 125.752 137.536 125.555 137.438 125.214C136.786 121.763 138.36 117.079 141.968 111.175C141.984 111.116 145.816 105.082 148.445 105.407C151.915 105.894 151.781 112.979 151.679 116.417C151.702 116.801 151.666 117.17 151.677 117.362C151.697 117.997 151.656 118.617 151.632 119.177C152.391 118.939 152.985 118.846 153.527 119.179C154.053 119.572 154.233 120.313 154.275 121.333C154.326 121.851 154.243 122.395 154.218 122.956C154.178 123.575 154.102 124.563 154.291 124.803C154.306 124.744 154.558 124.748 155.262 124.243C155.428 124.098 155.593 123.954 155.774 123.75C156.616 122.967 157.49 122.066 158.72 121.954C160.556 121.94 160.775 123.007 160.939 123.807C161.021 124.207 161.103 124.607 161.453 124.952C162.356 125.824 163.3 125.131 165.118 123.537C166.366 122.422 167.703 121.204 169.134 121.523C169.916 121.669 170.54 122.403 171.105 123.121C171.482 123.6 171.918 124.095 172.299 124.322C173.108 124.602 174.307 124.607 175.215 124.283C175.499 124.17 175.837 124.323 175.934 124.664C176.048 124.947 175.894 125.284 175.553 125.381C174.436 125.776 172.985 125.766 171.822 125.392C171.146 125.085 170.624 124.442 170.145 123.873C169.725 123.32 169.246 122.75 168.818 122.699C167.977 122.537 166.895 123.509 165.828 124.421C164.325 125.783 162.417 127.479 160.595 125.795C159.998 125.194 159.861 124.527 159.736 124.052C159.615 123.327 159.529 123.178 158.715 123.149C158.004 123.212 157.236 123.951 156.559 124.59C156.378 124.794 156.138 124.981 155.973 125.126C155.253 125.69 154.415 126.222 153.696 125.841C152.918 125.444 152.982 124.264 153.078 122.966C153.087 122.465 153.17 121.919 153.088 121.519C153.046 120.5 152.916 120.277 152.857 120.261C152.755 120.171 152.488 120.225 151.52 120.533C151.136 123.141 150.291 125.813 148.758 128.933C148.621 129.211 148.483 129.489 148.404 129.783C147.742 131.307 147.063 132.891 145.833 133.003C145.79 132.928 145.715 132.971 145.657 132.955ZM150.254 121.014C148.673 121.726 147.115 122.822 145.734 123.965C144.396 125.183 142.4 127.674 144.452 130.617C145.175 131.692 145.603 131.744 145.662 131.76C146.18 131.71 146.827 130.243 147.272 129.292C147.426 128.954 147.564 128.677 147.702 128.398C149.007 125.659 149.831 123.296 150.254 121.014Z" fill="#67749E"/>
<path d="M37.8308 138.712L35.2463 141.29L36.0052 142.047L38.5896 139.469L37.8308 138.712Z" fill="#67749E"/>
<path d="M38.4641 143L36.0011 140.543L35.2423 141.3L37.7053 143.757L38.4641 143Z" fill="#67749E"/>
<path d="M43.2009 138.712L40.6165 141.29L41.3753 142.047L43.9597 139.469L43.2009 138.712Z" fill="#67749E"/>
<path d="M43.8344 143L41.3713 140.543L40.6125 141.3L43.0755 143.757L43.8344 143Z" fill="#67749E"/>
<path d="M48.5711 138.712L45.9867 141.29L46.7455 142.047L49.3299 139.469L48.5711 138.712Z" fill="#67749E"/>
<path d="M49.2045 143L46.7415 140.543L45.9826 141.3L48.4456 143.757L49.2045 143Z" fill="#67749E"/>
<path d="M53.9415 138.712L51.3571 141.29L52.1159 142.047L54.7003 139.469L53.9415 138.712Z" fill="#67749E"/>
<path d="M54.5747 143L52.1117 140.543L51.3529 141.3L53.8159 143.757L54.5747 143Z" fill="#67749E"/>
<path d="M59.3117 138.712L56.7273 141.29L57.4861 142.047L60.0705 139.469L59.3117 138.712Z" fill="#67749E"/>
<path d="M59.9451 143L57.4821 140.543L56.7232 141.3L59.1862 143.757L59.9451 143Z" fill="#67749E"/>
<path d="M64.6818 138.712L62.0974 141.29L62.8562 142.047L65.4407 139.469L64.6818 138.712Z" fill="#67749E"/>
<path d="M65.3153 143L62.8523 140.543L62.0935 141.3L64.5565 143.757L65.3153 143Z" fill="#67749E"/>
<path d="M70.0521 138.712L67.4677 141.29L68.2265 142.047L70.8109 139.469L70.0521 138.712Z" fill="#67749E"/>
<path d="M70.6835 143L68.2205 140.543L67.4616 141.3L69.9246 143.757L70.6835 143Z" fill="#67749E"/>
<path d="M75.4223 138.712L72.8379 141.29L73.5967 142.047L76.1811 139.469L75.4223 138.712Z" fill="#67749E"/>
<path d="M76.0536 143L73.5906 140.543L72.8317 141.3L75.2948 143.757L76.0536 143Z" fill="#67749E"/>
<path d="M80.7924 138.712L78.208 141.29L78.9668 142.047L81.5513 139.469L80.7924 138.712Z" fill="#67749E"/>
<path d="M81.4238 143L78.9608 140.543L78.202 141.3L80.665 143.757L81.4238 143Z" fill="#67749E"/>
<path d="M86.1627 138.712L83.5782 141.29L84.3371 142.047L86.9215 139.469L86.1627 138.712Z" fill="#67749E"/>
<path d="M86.7942 143L84.3312 140.543L83.5723 141.3L86.0354 143.757L86.7942 143Z" fill="#67749E"/>
<path d="M91.5329 138.712L88.9485 141.29L89.7073 142.047L92.2917 139.469L91.5329 138.712Z" fill="#67749E"/>
<path d="M92.1644 143L89.7014 140.543L88.9426 141.3L91.4056 143.757L92.1644 143Z" fill="#67749E"/>
<path d="M96.9011 138.712L94.3167 141.29L95.0755 142.047L97.6599 139.469L96.9011 138.712Z" fill="#67749E"/>
<path d="M97.5347 143L95.0717 140.543L94.3128 141.3L96.7758 143.757L97.5347 143Z" fill="#67749E"/>
<path d="M102.271 138.712L99.6869 141.29L100.446 142.047L103.03 139.469L102.271 138.712Z" fill="#67749E"/>
<path d="M102.905 143L100.442 140.543L99.6828 141.3L102.146 143.757L102.905 143Z" fill="#67749E"/>
<path d="M107.642 138.712L105.057 141.29L105.816 142.047L108.4 139.469L107.642 138.712Z" fill="#67749E"/>
<path d="M108.275 143L105.812 140.543L105.053 141.3L107.516 143.757L108.275 143Z" fill="#67749E"/>
<path d="M113.012 138.712L110.427 141.29L111.186 142.047L113.771 139.469L113.012 138.712Z" fill="#67749E"/>
<path d="M113.645 143L111.182 140.543L110.423 141.3L112.886 143.757L113.645 143Z" fill="#67749E"/>
<path d="M118.38 138.712L115.796 141.29L116.554 142.047L119.139 139.469L118.38 138.712Z" fill="#67749E"/>
<path d="M119.015 143L116.552 140.543L115.794 141.3L118.257 143.757L119.015 143Z" fill="#67749E"/>
<path d="M123.752 138.712L121.168 141.29L121.927 142.047L124.511 139.469L123.752 138.712Z" fill="#67749E"/>
<path d="M124.384 143L121.921 140.543L121.162 141.3L123.625 143.757L124.384 143Z" fill="#67749E"/>
<path d="M129.122 138.712L126.538 141.29L127.297 142.047L129.881 139.469L129.122 138.712Z" fill="#67749E"/>
<path d="M129.754 143L127.291 140.543L126.532 141.3L128.995 143.757L129.754 143Z" fill="#67749E"/>
<path d="M134.491 138.712L131.906 141.29L132.665 142.047L135.25 139.469L134.491 138.712Z" fill="#67749E"/>
<path d="M135.124 143L132.661 140.543L131.902 141.3L134.365 143.757L135.124 143Z" fill="#67749E"/>
<path d="M139.861 138.712L137.276 141.29L138.035 142.047L140.62 139.469L139.861 138.712Z" fill="#67749E"/>
<path d="M140.494 143L138.031 140.543L137.272 141.3L139.735 143.757L140.494 143Z" fill="#67749E"/>
<path d="M145.231 138.712L142.647 141.29L143.406 142.047L145.99 139.469L145.231 138.712Z" fill="#67749E"/>
<path d="M145.865 143L143.401 140.543L142.643 141.3L145.106 143.757L145.865 143Z" fill="#67749E"/>
<path d="M150.601 138.712L148.017 141.29L148.776 142.047L151.36 139.469L150.601 138.712Z" fill="#67749E"/>
<path d="M151.233 143L148.77 140.543L148.011 141.3L150.474 143.757L151.233 143Z" fill="#67749E"/>
<path d="M155.972 138.712L153.387 141.29L154.146 142.047L156.73 139.469L155.972 138.712Z" fill="#67749E"/>
<path d="M156.603 143L154.14 140.543L153.381 141.3L155.844 143.757L156.603 143Z" fill="#67749E"/>
<path d="M161.342 138.712L158.757 141.29L159.516 142.047L162.101 139.469L161.342 138.712Z" fill="#67749E"/>
<path d="M161.975 143L159.512 140.543L158.753 141.3L161.216 143.757L161.975 143Z" fill="#67749E"/>
<path d="M166.712 138.712L164.127 141.29L164.886 142.047L167.471 139.469L166.712 138.712Z" fill="#67749E"/>
<path d="M167.343 143L164.88 140.543L164.122 141.3L166.585 143.757L167.343 143Z" fill="#67749E"/>
<path d="M172.08 138.712L169.496 141.29L170.255 142.047L172.839 139.469L172.08 138.712Z" fill="#67749E"/>
<path d="M172.714 143L170.251 140.543L169.492 141.3L171.955 143.757L172.714 143Z" fill="#67749E"/>
<path d="M177.45 138.712L174.866 141.29L175.625 142.047L178.209 139.469L177.45 138.712Z" fill="#67749E"/>
<path d="M178.084 143L175.621 140.543L174.862 141.3L177.325 143.757L178.084 143Z" fill="#67749E"/>
<path d="M182.821 138.712L180.236 141.29L180.995 142.047L183.579 139.469L182.821 138.712Z" fill="#67749E"/>
<path d="M183.454 143L180.991 140.543L180.232 141.3L182.695 143.757L183.454 143Z" fill="#67749E"/>
<path d="M37.8308 144.765L35.2463 147.343L36.0052 148.1L38.5896 145.522L37.8308 144.765Z" fill="#67749E"/>
<path d="M38.4641 149.051L36.0011 146.595L35.2423 147.352L37.7053 149.808L38.4641 149.051Z" fill="#67749E"/>
<path d="M43.2009 144.765L40.6165 147.343L41.3753 148.1L43.9597 145.522L43.2009 144.765Z" fill="#67749E"/>
<path d="M43.8344 149.051L41.3713 146.595L40.6125 147.352L43.0755 149.808L43.8344 149.051Z" fill="#67749E"/>
<path d="M48.5711 144.765L45.9867 147.343L46.7455 148.1L49.3299 145.522L48.5711 144.765Z" fill="#67749E"/>
<path d="M49.2045 149.051L46.7415 146.595L45.9826 147.352L48.4456 149.808L49.2045 149.051Z" fill="#67749E"/>
<path d="M53.9415 144.765L51.3571 147.343L52.1159 148.1L54.7003 145.522L53.9415 144.765Z" fill="#67749E"/>
<path d="M54.5747 149.051L52.1117 146.595L51.3529 147.352L53.8159 149.808L54.5747 149.051Z" fill="#67749E"/>
<path d="M59.3117 144.765L56.7273 147.343L57.4861 148.1L60.0705 145.522L59.3117 144.765Z" fill="#67749E"/>
<path d="M59.9451 149.051L57.4821 146.595L56.7232 147.352L59.1862 149.808L59.9451 149.051Z" fill="#67749E"/>
<path d="M64.6818 144.765L62.0974 147.343L62.8562 148.1L65.4407 145.522L64.6818 144.765Z" fill="#67749E"/>
<path d="M65.3153 149.051L62.8523 146.595L62.0935 147.352L64.5565 149.808L65.3153 149.051Z" fill="#67749E"/>
<path d="M70.0521 144.765L67.4677 147.343L68.2265 148.1L70.8109 145.522L70.0521 144.765Z" fill="#67749E"/>
<path d="M70.6835 149.051L68.2205 146.595L67.4616 147.352L69.9246 149.808L70.6835 149.051Z" fill="#67749E"/>
<path d="M75.4223 144.765L72.8379 147.343L73.5967 148.1L76.1811 145.522L75.4223 144.765Z" fill="#67749E"/>
<path d="M76.0536 149.051L73.5906 146.595L72.8317 147.352L75.2948 149.808L76.0536 149.051Z" fill="#67749E"/>
<path d="M80.7924 144.765L78.208 147.343L78.9668 148.1L81.5513 145.522L80.7924 144.765Z" fill="#67749E"/>
<path d="M81.4238 149.051L78.9608 146.595L78.202 147.352L80.665 149.808L81.4238 149.051Z" fill="#67749E"/>
<path d="M86.1627 144.765L83.5782 147.343L84.3371 148.1L86.9215 145.522L86.1627 144.765Z" fill="#67749E"/>
<path d="M86.7942 149.051L84.3312 146.595L83.5723 147.352L86.0354 149.808L86.7942 149.051Z" fill="#67749E"/>
<path d="M91.5311 144.765L88.9467 147.343L89.7055 148.1L92.2899 145.522L91.5311 144.765Z" fill="#67749E"/>
<path d="M92.1644 149.051L89.7014 146.595L88.9426 147.352L91.4056 149.808L92.1644 149.051Z" fill="#67749E"/>
<path d="M96.9011 144.765L94.3167 147.343L95.0755 148.1L97.6599 145.522L96.9011 144.765Z" fill="#67749E"/>
<path d="M97.5347 149.051L95.0717 146.595L94.3128 147.352L96.7758 149.808L97.5347 149.051Z" fill="#67749E"/>
<path d="M102.271 144.765L99.6869 147.343L100.446 148.1L103.03 145.522L102.271 144.765Z" fill="#67749E"/>
<path d="M102.905 149.051L100.442 146.595L99.6828 147.352L102.146 149.808L102.905 149.051Z" fill="#67749E"/>
<path d="M107.642 144.765L105.057 147.343L105.816 148.1L108.4 145.522L107.642 144.765Z" fill="#67749E"/>
<path d="M108.275 149.051L105.812 146.595L105.053 147.352L107.516 149.808L108.275 149.051Z" fill="#67749E"/>
<path d="M113.012 144.765L110.427 147.343L111.186 148.1L113.771 145.522L113.012 144.765Z" fill="#67749E"/>
<path d="M113.645 149.051L111.182 146.595L110.423 147.352L112.886 149.808L113.645 149.051Z" fill="#67749E"/>
<path d="M118.38 144.765L115.796 147.343L116.554 148.1L119.139 145.522L118.38 144.765Z" fill="#67749E"/>
<path d="M119.015 149.051L116.552 146.595L115.794 147.352L118.257 149.808L119.015 149.051Z" fill="#67749E"/>
<path d="M123.752 144.765L121.168 147.343L121.927 148.1L124.511 145.522L123.752 144.765Z" fill="#67749E"/>
<path d="M124.384 149.051L121.921 146.595L121.162 147.352L123.625 149.808L124.384 149.051Z" fill="#67749E"/>
<path d="M129.122 144.765L126.538 147.343L127.297 148.1L129.881 145.522L129.122 144.765Z" fill="#67749E"/>
<path d="M129.754 149.051L127.291 146.595L126.532 147.352L128.995 149.808L129.754 149.051Z" fill="#67749E"/>
<path d="M134.491 144.765L131.906 147.343L132.665 148.1L135.25 145.522L134.491 144.765Z" fill="#67749E"/>
<path d="M135.124 149.051L132.661 146.595L131.902 147.352L134.365 149.808L135.124 149.051Z" fill="#67749E"/>
<path d="M139.861 144.765L137.276 147.343L138.035 148.1L140.62 145.522L139.861 144.765Z" fill="#67749E"/>
<path d="M140.494 149.051L138.031 146.595L137.272 147.352L139.735 149.808L140.494 149.051Z" fill="#67749E"/>
<path d="M150.601 144.765L148.017 147.343L148.776 148.1L151.36 145.522L150.601 144.765Z" fill="#67749E"/>
<path d="M151.233 149.051L148.77 146.595L148.011 147.352L150.474 149.808L151.233 149.051Z" fill="#67749E"/>
<path d="M155.972 144.765L153.387 147.343L154.146 148.1L156.73 145.522L155.972 144.765Z" fill="#67749E"/>
<path d="M156.603 149.051L154.14 146.595L153.381 147.352L155.844 149.808L156.603 149.051Z" fill="#67749E"/>
<path d="M161.342 144.765L158.757 147.343L159.516 148.1L162.101 145.522L161.342 144.765Z" fill="#67749E"/>
<path d="M161.975 149.051L159.512 146.595L158.753 147.352L161.216 149.808L161.975 149.051Z" fill="#67749E"/>
<path d="M166.712 144.765L164.127 147.343L164.886 148.1L167.471 145.522L166.712 144.765Z" fill="#67749E"/>
<path d="M167.343 149.051L164.88 146.595L164.122 147.352L166.585 149.808L167.343 149.051Z" fill="#67749E"/>
<path d="M172.08 144.765L169.496 147.343L170.255 148.1L172.839 145.522L172.08 144.765Z" fill="#67749E"/>
<path d="M172.714 149.051L170.251 146.595L169.492 147.352L171.955 149.808L172.714 149.051Z" fill="#67749E"/>
<path d="M177.45 144.765L174.866 147.343L175.625 148.1L178.209 145.522L177.45 144.765Z" fill="#67749E"/>
<path d="M178.084 149.051L175.621 146.595L174.862 147.352L177.325 149.808L178.084 149.051Z" fill="#67749E"/>
<path d="M182.821 144.765L180.236 147.343L180.995 148.1L183.579 145.522L182.821 144.765Z" fill="#67749E"/>
<path d="M183.454 149.051L180.991 146.595L180.232 147.352L182.695 149.808L183.454 149.051Z" fill="#67749E"/>
<path d="M145.231 144.765L142.647 147.343L143.406 148.1L145.99 145.522L145.231 144.765Z" fill="#67749E"/>
<path d="M145.865 149.051L143.401 146.595L142.643 147.352L145.106 149.808L145.865 149.051Z" fill="#67749E"/>
<path d="M112.499 125.616H90.4191C88.9964 125.616 87.8431 126.796 87.8431 128.252C87.8431 129.707 88.9964 130.887 90.4191 130.887H112.499C113.921 130.887 115.075 129.707 115.075 128.252C115.075 126.796 113.921 125.616 112.499 125.616Z" fill="#67749E"/>
<path d="M112.499 116.832H90.4191C88.9964 116.832 87.8431 118.012 87.8431 119.467C87.8431 120.923 88.9964 122.103 90.4191 122.103H112.499C113.921 122.103 115.075 120.923 115.075 119.467C115.075 118.012 113.921 116.832 112.499 116.832Z" fill="#67749E"/>
<path d="M117.817 105.412H90.3711C88.9749 105.412 87.8431 106.592 87.8431 108.047C87.8431 109.503 88.9749 110.683 90.3711 110.683H117.817C119.213 110.683 120.345 109.503 120.345 108.047C120.345 106.592 119.213 105.412 117.817 105.412Z" fill="#67749E"/>
<path d="M115.16 96.6279H90.3927C88.9846 96.6279 87.8431 97.8078 87.8431 99.2632C87.8431 100.719 88.9846 101.899 90.3927 101.899H115.16C116.568 101.899 117.71 100.719 117.71 99.2632C117.71 97.8078 116.568 96.6279 115.16 96.6279Z" fill="#67749E"/>
<path d="M121.338 84.3301H90.3642C88.9719 84.3301 87.8431 85.5099 87.8431 86.9654C87.8431 88.4208 88.9719 89.6007 90.3642 89.6007H121.338C122.73 89.6007 123.859 88.4208 123.859 86.9654C123.859 85.5099 122.73 84.3301 121.338 84.3301Z" fill="#67749E"/>
<path d="M127.463 75.5459H90.3876C88.9823 75.5459 87.8431 76.7258 87.8431 78.1812C87.8431 79.6366 88.9823 80.8165 90.3876 80.8165H127.463C128.869 80.8165 130.008 79.6366 130.008 78.1812C130.008 76.7258 128.869 75.5459 127.463 75.5459Z" fill="#67749E"/>
<path d="M156.537 84.3301H143.887C142.529 84.3301 141.427 85.5099 141.427 86.9654C141.427 88.4208 142.529 89.6007 143.887 89.6007H156.537C157.895 89.6007 158.996 88.4208 158.996 86.9654C158.996 85.5099 157.895 84.3301 156.537 84.3301Z" fill="#67749E"/>
<path d="M159.965 75.5459H143.972C142.567 75.5459 141.427 76.7258 141.427 78.1812C141.427 79.6366 142.567 80.8165 143.972 80.8165H159.965C161.371 80.8165 162.51 79.6366 162.51 78.1812C162.51 76.7258 161.371 75.5459 159.965 75.5459Z" fill="#67749E"/>
<rect x="214.337" y="111.562" width="2.63529" height="14.0549" rx="1.31765" fill="#272736"/>
</svg>
