<svg width="115" height="36" viewBox="0 0 115 36" fill="none" xmlns="http://www.w3.org/2000/svg">
    <path d="M42.9816 13.0952L39.1145 24.8823H35.9992L41.2824 10.6636H43.2648L42.9816 13.0952ZM46.1945 24.8823L42.3176 13.0952L42.0051 10.6636H44.007L49.3195 24.8823H46.1945ZM46.0187 19.5894V21.8843H38.509V19.5894H46.0187ZM56.7949 22.353V14.3159H59.6074V24.8823H56.9609L56.7949 22.353ZM57.1074 20.1851L57.9375 20.1655C57.9375 20.8687 57.8561 21.5229 57.6934 22.1284C57.5306 22.7274 57.2865 23.2482 56.9609 23.6909C56.6354 24.1271 56.2253 24.4689 55.7305 24.7163C55.2357 24.9572 54.653 25.0776 53.9824 25.0776C53.4681 25.0776 52.9928 25.006 52.5566 24.8628C52.127 24.7131 51.7559 24.4819 51.4434 24.1694C51.1374 23.8504 50.8965 23.4435 50.7207 22.9487C50.5514 22.4474 50.4668 21.8452 50.4668 21.1421V14.3159H53.2793V21.1616C53.2793 21.4741 53.3151 21.7378 53.3867 21.9526C53.4648 22.1675 53.5723 22.3433 53.709 22.48C53.8457 22.6167 54.0052 22.7144 54.1875 22.7729C54.3763 22.8315 54.5846 22.8608 54.8125 22.8608C55.3919 22.8608 55.8477 22.7437 56.1797 22.5093C56.5182 22.2749 56.7559 21.9559 56.8926 21.5522C57.0358 21.1421 57.1074 20.6864 57.1074 20.1851ZM67.1316 14.3159V16.3081H60.9793V14.3159H67.1316ZM62.5027 11.7085H65.3152V21.6987C65.3152 22.0047 65.3543 22.2391 65.4324 22.4019C65.5171 22.5646 65.6408 22.6785 65.8035 22.7437C65.9663 22.8022 66.1714 22.8315 66.4187 22.8315C66.5945 22.8315 66.7508 22.825 66.8875 22.812C67.0307 22.7925 67.1512 22.7729 67.2488 22.7534L67.2586 24.8237C67.0177 24.9019 66.7573 24.9637 66.4773 25.0093C66.1974 25.0549 65.8881 25.0776 65.5496 25.0776C64.9311 25.0776 64.3908 24.9767 63.9285 24.7749C63.4728 24.5666 63.1212 24.2345 62.8738 23.7788C62.6264 23.3231 62.5027 22.7241 62.5027 21.9819V11.7085ZM71.6773 9.88232V24.8823H68.8648V9.88232H71.6773ZM71.277 19.228H70.5055C70.512 18.4924 70.6096 17.8153 70.7984 17.1968C70.9872 16.5718 71.2574 16.0314 71.609 15.5757C71.9605 15.1134 72.3805 14.7554 72.8688 14.5015C73.3635 14.2476 73.9104 14.1206 74.5094 14.1206C75.0302 14.1206 75.5022 14.1955 75.9254 14.3452C76.3551 14.4884 76.7229 14.7228 77.0289 15.0483C77.3414 15.3674 77.5823 15.7873 77.7516 16.3081C77.9208 16.8289 78.0055 17.4604 78.0055 18.2026V24.8823H75.1734V18.1831C75.1734 17.7144 75.1051 17.3465 74.9684 17.0796C74.8382 16.8062 74.6461 16.6141 74.3922 16.5034C74.1448 16.3862 73.8388 16.3276 73.4742 16.3276C73.0706 16.3276 72.7255 16.4025 72.4391 16.5522C72.1591 16.702 71.9345 16.9103 71.7652 17.1772C71.596 17.4377 71.4723 17.7437 71.3941 18.0952C71.316 18.4468 71.277 18.8244 71.277 19.228ZM90.1926 25.0776C89.4569 25.0776 88.7896 24.9539 88.1906 24.7065C87.5982 24.4526 87.0871 24.0978 86.6574 23.6421C86.2342 23.1864 85.9087 22.646 85.6809 22.021C85.453 21.396 85.3391 20.7124 85.3391 19.9702V19.5601C85.3391 18.7007 85.466 17.9357 85.7199 17.2651C85.9738 16.5881 86.3189 16.0151 86.7551 15.5464C87.1913 15.0776 87.6861 14.7228 88.2395 14.4819C88.7928 14.241 89.3658 14.1206 89.9582 14.1206C90.7134 14.1206 91.3645 14.2508 91.9113 14.5112C92.4647 14.7716 92.9172 15.1362 93.2687 15.605C93.6203 16.0672 93.8807 16.6141 94.05 17.2456C94.2193 17.8706 94.3039 18.5542 94.3039 19.2964V20.1069H86.4133V18.6323H92.4973V18.4956C92.4712 18.0269 92.3736 17.5711 92.2043 17.1284C92.0415 16.6857 91.7811 16.3211 91.423 16.0347C91.065 15.7482 90.5767 15.605 89.9582 15.605C89.548 15.605 89.1704 15.6929 88.8254 15.8687C88.4803 16.0379 88.1841 16.2918 87.9367 16.6304C87.6893 16.9689 87.4973 17.3823 87.3605 17.8706C87.2238 18.3589 87.1555 18.922 87.1555 19.5601V19.9702C87.1555 20.4715 87.2238 20.9435 87.3605 21.3862C87.5038 21.8224 87.7089 22.2065 87.9758 22.5386C88.2492 22.8706 88.578 23.131 88.9621 23.3198C89.3527 23.5086 89.7954 23.603 90.2902 23.603C90.9283 23.603 91.4686 23.4728 91.9113 23.2124C92.354 22.952 92.7414 22.6037 93.0734 22.1675L94.1672 23.0366C93.9393 23.3817 93.6496 23.7104 93.298 24.0229C92.9465 24.3354 92.5135 24.5894 91.9992 24.7847C91.4914 24.98 90.8892 25.0776 90.1926 25.0776ZM98.9082 10.6636V24.8823H97.0234V10.6636H98.9082ZM106.384 24.8823H103.415L103.434 23.3491H106.384C107.399 23.3491 108.246 23.1375 108.923 22.7144C109.6 22.2847 110.108 21.6857 110.446 20.9175C110.791 20.1427 110.964 19.2378 110.964 18.2026V17.3335C110.964 16.5197 110.866 15.797 110.671 15.1655C110.475 14.5275 110.189 13.9904 109.811 13.5542C109.434 13.1115 108.971 12.7762 108.425 12.5483C107.884 12.3205 107.262 12.2065 106.559 12.2065H103.356V10.6636H106.559C107.49 10.6636 108.34 10.8198 109.108 11.1323C109.876 11.4383 110.537 11.8843 111.091 12.4702C111.651 13.0496 112.08 13.7528 112.38 14.5796C112.679 15.3999 112.829 16.3244 112.829 17.353V18.2026C112.829 19.2313 112.679 20.159 112.38 20.9858C112.08 21.8062 111.647 22.506 111.081 23.0854C110.521 23.6649 109.844 24.1108 109.05 24.4233C108.262 24.7293 107.373 24.8823 106.384 24.8823ZM104.421 10.6636V24.8823H102.536V10.6636H104.421Z" fill="#DCE2FF"/>
    <path d="M22.4742 29.9344C23.4733 28.1765 24 26.1805 24 24.1651V11.8397C24 9.70781 23.4094 7.60988 22.2871 5.76932C20.0919 2.15621 16.2477 0 12 0C7.75226 0 3.90812 2.15621 1.71288 5.76932C0.590648 7.60988 0 9.70781 0 11.8397V24.1651C0 26.1805 0.526661 28.1765 1.52584 29.9344C3.64725 33.6787 7.66366 36.0049 12 36.0049C16.3363 36.0049 20.3478 33.6738 22.4742 29.9344ZM22.3216 24.1651C22.3216 25.8988 21.8687 27.6131 21.0074 29.1283C19.1813 32.348 15.726 34.3537 11.9951 34.3537C8.26415 34.3537 4.80886 32.3529 2.98277 29.1283C2.12633 27.6131 1.6735 25.894 1.6735 24.1651V11.8397C1.6735 10.0089 2.18048 8.20235 3.1452 6.61918C5.03527 3.50627 8.3429 1.65115 12 1.65115C15.6571 1.65115 18.9647 3.50627 20.8548 6.61433C21.8195 8.19749 22.3265 10.004 22.3265 11.8349V24.1651H22.3216Z" fill="#DCE2FF"/>
    <path d="M20.0379 28.4921C20.8009 27.1421 21.2094 25.6123 21.2094 24.068V20.2655C21.2094 19.809 20.8353 19.4399 20.3726 19.4399C19.91 19.4399 19.5359 19.809 19.5359 20.2655V24.068C19.5359 25.3307 19.2061 26.5836 18.5761 27.686C17.2422 30.0365 14.7221 31.5031 12.0002 31.5031C9.2783 31.5031 6.7582 30.0413 5.42432 27.686C4.79922 26.5836 4.46452 25.3307 4.46452 24.068V20.2655C4.46452 19.809 4.09044 19.4399 3.62777 19.4399C3.16509 19.4399 2.79102 19.809 2.79102 20.2655V24.068C2.79102 25.6123 3.19463 27.1421 3.96247 28.4921C5.59167 31.3671 8.67289 33.1542 12.0002 33.1542C15.3275 33.1542 18.4087 31.3671 20.0379 28.4921Z" fill="#DCE2FF"/>
    <path d="M21.2094 14.2291V11.4318C21.2094 11.359 21.1946 11.2861 21.1749 11.2181C20.8501 6.49777 16.8632 2.75354 12.0002 2.75354C7.1372 2.75354 3.15033 6.49777 2.82547 11.2181C2.80578 11.2861 2.79102 11.359 2.79102 11.4318V14.2291C2.79102 14.6855 3.16509 15.0546 3.62777 15.0546C4.09044 15.0546 4.46452 14.6855 4.46452 14.2291V11.8397C4.46452 7.74099 7.84598 4.40469 12.0002 4.40469C16.1544 4.40469 19.5359 7.74099 19.5359 11.8397V14.2291C19.5359 14.6855 19.91 15.0546 20.3726 15.0546C20.8353 15.0546 21.2094 14.6855 21.2094 14.2291Z" fill="#DCE2FF"/>
    <path d="M21.2093 17.1769C21.2093 16.7204 20.8352 16.3513 20.3726 16.3513C18.3742 16.3513 16.745 17.9588 16.745 19.9304C16.745 19.9644 16.7499 19.9936 16.7548 20.0227C16.7499 20.0518 16.745 20.081 16.745 20.115V23.9175C16.745 24.7091 16.5383 25.4958 16.1445 26.1902C15.3028 27.6763 13.7179 28.5941 12.005 28.5941C10.2922 28.5941 8.70726 27.6714 7.86559 26.1902C7.47182 25.4958 7.2651 24.7091 7.2651 23.9175V20.115C7.2651 20.081 7.26017 20.0518 7.25525 20.0227C7.26017 19.9936 7.2651 19.9644 7.2651 19.9304C7.2651 17.9588 5.63589 16.3513 3.63753 16.3513C3.17486 16.3513 2.80078 16.7204 2.80078 17.1769C2.80078 17.6334 3.17486 18.0025 3.63753 18.0025C4.71546 18.0025 5.59159 18.8669 5.59159 19.9304C5.59159 19.9644 5.59651 19.9936 5.60144 20.0227C5.59651 20.0518 5.59159 20.081 5.59159 20.115V23.9175C5.59159 24.9907 5.87215 26.0591 6.40866 26.9964C7.54565 29.0021 9.6966 30.2501 12.01 30.2501C14.3283 30.2501 16.4743 29.0021 17.6113 26.9964C18.1429 26.0543 18.4283 24.9907 18.4283 23.9175V20.115C18.4283 20.081 18.4234 20.0518 18.4185 20.0227C18.4234 19.9936 18.4283 19.9644 18.4283 19.9304C18.4283 18.8669 19.3045 18.0025 20.3824 18.0025C20.8352 18.0025 21.2093 17.6334 21.2093 17.1769Z" fill="#DCE2FF"/>
    <path d="M11.9659 27.249C10.0807 27.2296 8.57948 25.6902 8.57948 23.8302V17.6675C8.57948 17.4344 8.46627 17.2159 8.27431 17.0799C6.66971 15.9144 5.72468 14.0835 5.71975 12.1021C5.71483 10.4461 6.36947 8.88725 7.55569 7.71688C8.7419 6.54164 10.3219 5.89575 12.0003 5.89575C15.4654 5.89575 18.2809 8.67357 18.2809 12.0924C18.2809 14.0787 17.3309 15.9144 15.7263 17.0799C15.5344 17.2159 15.4211 17.4344 15.4211 17.6675V23.8739C15.4211 25.7436 13.8658 27.2685 11.9659 27.249ZM12.0003 7.44492C10.7452 7.44492 9.55897 7.93056 8.67299 8.80955C7.7821 9.68855 7.29482 10.8541 7.29482 12.0973C7.29974 13.6805 8.10696 15.1374 9.4556 15.9969C9.89367 16.2737 10.1545 16.7497 10.1545 17.2693V23.8788C10.1545 24.884 10.9814 25.6999 12.0003 25.6999C13.0192 25.6999 13.8461 24.884 13.8461 23.8788V17.2596C13.8461 16.7448 14.107 16.2737 14.5401 15.9969C15.8937 15.1374 16.7009 13.6756 16.7009 12.0876C16.7058 9.52829 14.5942 7.44492 12.0003 7.44492Z" fill="#DCE2FF"/>
</svg>
