<svg width="48" height="48" viewBox="0 0 48 48" fill="url(#paint0_linear_4001_377)" xmlns="http://www.w3.org/2000/svg">
    <path fill-rule="evenodd" clip-rule="evenodd" d="M24 3.5C17.0964 3.5 11.5 9.09644 11.5 16C11.5 22.9036 17.0964 28.5 24 28.5C30.9036 28.5 36.5 22.9036 36.5 16C36.5 9.09644 30.9036 3.5 24 3.5ZM8.5 16C8.5 7.43959 15.4396 0.5 24 0.5C32.5604 0.5 39.5 7.43959 39.5 16C39.5 24.5604 32.5604 31.5 24 31.5C15.4396 31.5 8.5 24.5604 8.5 16Z" />
    <path fill-rule="evenodd" clip-rule="evenodd" d="M31.3828 26.273C32.204 26.164 32.958 26.7414 33.067 27.5627L35.487 45.8027C35.5628 46.3736 35.3049 46.9375 34.8235 47.2537C34.3421 47.5699 33.7222 47.5825 33.2283 47.2862L24 41.7492L14.7718 47.2862C14.2779 47.5825 13.6579 47.5699 13.1765 47.2536C12.6951 46.9374 12.4373 46.3734 12.5131 45.8024L14.9331 27.5824C15.0422 26.7612 15.7963 26.1839 16.6175 26.293C17.4387 26.4021 18.0161 27.1562 17.907 27.9774L15.8967 43.1127L23.2283 38.7137C23.7033 38.4287 24.2968 38.4287 24.7718 38.7137L32.1039 43.1129L30.0931 27.9572C29.9841 27.136 30.5615 26.3819 31.3828 26.273Z" />
    <defs>
        <linearGradient id="paint0_linear_4001_377" x1="0" y1="41.5" x2="28.3996" y2="0" gradientUnits="userSpaceOnUse">
            <stop stop-color="#FF0387"/>
            <stop offset="1" stop-color="#FE7803"/>
        </linearGradient>
    </defs>
</svg>
