<svg viewBox="0 0 175 32" fill="#DCE2FF" xmlns="http://www.w3.org/2000/svg">
    <path d="M40 25.3333V6.37492H46.6089C48.8983 6.37492 50.6348 6.81763 51.8183 7.70304C53.0019 8.57978 53.5937 9.86884 53.5937 11.5702C53.5937 12.4991 53.3561 13.3194 52.8809 14.0312C52.4058 14.7343 51.7449 15.2508 50.8983 15.5806C51.8658 15.8237 52.6261 16.3142 53.179 17.052C53.7405 17.7898 54.0213 18.6926 54.0213 19.7603C54.0213 21.5833 53.4425 22.9635 52.2848 23.901C51.1272 24.8385 49.4771 25.3159 47.3346 25.3333H40ZM43.8876 17.078V22.1952H47.218C48.1337 22.1952 48.8465 21.9782 49.3562 21.5442C49.8745 21.1015 50.1337 20.4938 50.1337 19.7213C50.1337 17.9852 49.2395 17.1041 47.4512 17.078H43.8876ZM43.8876 14.3176H46.7644C48.7255 14.2829 49.7061 13.4973 49.7061 11.9609C49.7061 11.1015 49.4555 10.4852 48.9545 10.1119C48.462 9.72995 47.6802 9.53898 46.6089 9.53898H43.8876V14.3176Z"/>
    <path d="M60.6561 25.3333H56.8981V5.33325H60.6561V25.3333Z"/>
    <path d="M63.1701 18.1588C63.1701 16.7612 63.4379 15.5155 63.9736 14.4218C64.5092 13.328 65.2781 12.4817 66.2802 11.8827C67.291 11.2838 68.4616 10.9843 69.792 10.9843C71.684 10.9843 73.2261 11.5659 74.4183 12.7291C75.6191 13.8923 76.2886 15.4721 76.4269 17.4687L76.4528 18.4322C76.4528 20.5937 75.8524 22.3298 74.6515 23.6405C73.4507 24.9426 71.8395 25.5937 69.8179 25.5937C67.7964 25.5937 66.1809 24.9426 64.9714 23.6405C63.7705 22.3385 63.1701 20.5676 63.1701 18.328V18.1588ZM66.9152 18.4322C66.9152 19.769 67.1657 20.7933 67.6668 21.5051C68.1679 22.2083 68.8849 22.5598 69.8179 22.5598C70.725 22.5598 71.4335 22.2126 71.9432 21.5181C72.4529 20.815 72.7077 19.6952 72.7077 18.1588C72.7077 16.848 72.4529 15.8324 71.9432 15.1119C71.4335 14.3914 70.7164 14.0312 69.792 14.0312C68.8763 14.0312 68.1679 14.3914 67.6668 15.1119C67.1657 15.8237 66.9152 16.9305 66.9152 18.4322Z"/>
    <path d="M84.5908 22.5598C85.282 22.5598 85.8435 22.3688 86.2755 21.9869C86.7074 21.605 86.932 21.0971 86.9493 20.4635H90.4611C90.4525 21.4183 90.1933 22.2951 89.6836 23.0937C89.1739 23.8836 88.4741 24.4999 87.5843 24.9426C86.7031 25.3767 85.7269 25.5937 84.6556 25.5937C82.6514 25.5937 81.0704 24.9556 79.9128 23.6796C78.7551 22.3949 78.1763 20.6241 78.1763 18.3671V18.1197C78.1763 15.9496 78.7508 14.2178 79.8998 12.9244C81.0488 11.631 82.6254 10.9843 84.6297 10.9843C86.3835 10.9843 87.7873 11.4878 88.8413 12.4947C89.9039 13.493 90.4438 14.8254 90.4611 16.4921H86.9493C86.932 15.7629 86.7074 15.1727 86.2755 14.7213C85.8435 14.2612 85.2733 14.0312 84.5649 14.0312C83.6924 14.0312 83.0315 14.3523 82.5822 14.9947C82.1416 15.6284 81.9214 16.6614 81.9214 18.0937V18.4843C81.9214 19.9339 82.1416 20.9756 82.5822 21.6093C83.0228 22.243 83.6924 22.5598 84.5908 22.5598Z"/>
    <path d="M97.6921 19.6822L96.3444 21.0364V25.3333H92.5993V5.33325H96.3444V16.414L97.0701 15.4765L100.66 11.2447H105.156L100.089 17.1171L105.597 25.3333H101.295L97.6921 19.6822Z"/>
    <path d="M116.806 20.3593C116.806 19.6214 116.547 19.0572 116.029 18.6666C115.51 18.2673 114.577 17.8506 113.23 17.4166C111.882 16.9739 110.815 16.5398 110.029 16.1145C107.886 14.9513 106.815 13.3845 106.815 11.414C106.815 10.3897 107.1 9.47822 107.67 8.67961C108.249 7.87231 109.074 7.24297 110.145 6.79159C111.225 6.3402 112.435 6.1145 113.774 6.1145C115.122 6.1145 116.322 6.3619 117.376 6.85669C118.43 7.3428 119.247 8.0329 119.826 8.927C120.413 9.8211 120.707 10.8367 120.707 11.9739H116.819C116.819 11.1058 116.547 10.4331 116.003 9.95565C115.458 9.46954 114.694 9.22648 113.709 9.22648C112.759 9.22648 112.02 9.43047 111.493 9.83846C110.966 10.2378 110.703 10.7673 110.703 11.427C110.703 12.0433 111.009 12.5598 111.623 12.9765C112.245 13.3931 113.156 13.7838 114.357 14.1484C116.569 14.8168 118.18 15.6458 119.191 16.6353C120.201 17.6249 120.707 18.8576 120.707 20.3333C120.707 21.9739 120.089 23.2629 118.854 24.2004C117.618 25.1293 115.955 25.5937 113.865 25.5937C112.413 25.5937 111.091 25.3289 109.899 24.7994C108.707 24.2612 107.796 23.5277 107.165 22.5989C106.543 21.6701 106.232 20.5937 106.232 19.3697H110.132C110.132 21.4617 111.376 22.5077 113.865 22.5077C114.789 22.5077 115.51 22.3211 116.029 21.9478C116.547 21.5659 116.806 21.0364 116.806 20.3593Z"/>
    <path d="M129.557 25.5937C127.501 25.5937 125.825 24.96 124.53 23.6926C123.242 22.4253 122.599 20.7369 122.599 18.6275V18.2629C122.599 16.848 122.871 15.585 123.415 14.4739C123.959 13.3541 124.728 12.4947 125.722 11.8958C126.724 11.2881 127.864 10.9843 129.143 10.9843C131.061 10.9843 132.568 11.5919 133.665 12.8072C134.771 14.0225 135.324 15.7456 135.324 17.9765V19.5129H126.396C126.517 20.4331 126.879 21.1709 127.484 21.7265C128.097 22.282 128.871 22.5598 129.804 22.5598C131.246 22.5598 132.374 22.0346 133.186 20.9843L135.026 23.0546C134.465 23.8532 133.704 24.4782 132.745 24.9296C131.786 25.3723 130.724 25.5937 129.557 25.5937ZM129.13 14.0312C128.387 14.0312 127.782 14.2829 127.316 14.7864C126.858 15.2898 126.564 16.0103 126.434 16.9478H131.644V16.6484C131.627 15.815 131.402 15.1727 130.97 14.7213C130.538 14.2612 129.925 14.0312 129.13 14.0312Z"/>
    <path d="M141.946 7.78117V11.2447H144.343V14.0051H141.946V21.0364C141.946 21.5572 142.045 21.9305 142.244 22.1562C142.443 22.3819 142.823 22.4947 143.384 22.4947C143.799 22.4947 144.166 22.4643 144.486 22.4036V25.2551C143.752 25.4808 142.996 25.5937 142.218 25.5937C139.592 25.5937 138.253 24.2612 138.201 21.5963V14.0051H136.153V11.2447H138.201V7.78117H141.946Z"/>
    <path d="M150.913 7.78117V11.2447H153.311V14.0051H150.913V21.0364C150.913 21.5572 151.013 21.9305 151.211 22.1562C151.41 22.3819 151.79 22.4947 152.352 22.4947C152.766 22.4947 153.134 22.4643 153.453 22.4036V25.2551C152.719 25.4808 151.963 25.5937 151.186 25.5937C148.559 25.5937 147.22 24.2612 147.168 21.5963V14.0051H145.121V11.2447H147.168V7.78117H150.913Z"/>
    <path d="M159.35 25.3333H155.591V5.33325H159.35V25.3333Z"/>
    <path d="M168.9 25.5937C166.844 25.5937 165.168 24.96 163.872 23.6926C162.585 22.4253 161.941 20.7369 161.941 18.6275V18.2629C161.941 16.848 162.213 15.585 162.758 14.4739C163.302 13.3541 164.071 12.4947 165.064 11.8958C166.066 11.2881 167.207 10.9843 168.485 10.9843C170.403 10.9843 171.911 11.5919 173.008 12.8072C174.114 14.0225 174.667 15.7456 174.667 17.9765V19.5129H165.738C165.859 20.4331 166.222 21.1709 166.827 21.7265C167.44 22.282 168.213 22.5598 169.146 22.5598C170.589 22.5598 171.716 22.0346 172.528 20.9843L174.369 23.0546C173.807 23.8532 173.047 24.4782 172.088 24.9296C171.129 25.3723 170.066 25.5937 168.9 25.5937ZM168.472 14.0312C167.729 14.0312 167.125 14.2829 166.658 14.7864C166.2 15.2898 165.907 16.0103 165.777 16.9478H170.986V16.6484C170.969 15.815 170.745 15.1727 170.313 14.7213C169.881 14.2612 169.267 14.0312 168.472 14.0312Z"/>
    <path fill-rule="evenodd" clip-rule="evenodd" d="M0 16H25.3333V32H0V16Z" fill="#DCE2FF" />
    <path fill-rule="evenodd" clip-rule="evenodd" d="M0 0H21.3333V14.6667H0V0Z" fill="#E8ECFF" />
</svg>
