<svg width="32" height="32" viewBox="0 0 32 32" fill="#FFF" xmlns="http://www.w3.org/2000/svg">
    <path fill-rule="evenodd" clip-rule="evenodd" d="M16 32C24.8366 32 32 24.8366 32 16C32 7.16344 24.8366 0 16 0C7.16344 0 0 7.16344 0 16C0 24.8366 7.16344 32 16 32ZM19.2808 8.12085C20.7568 8.37574 22.1685 8.82077 23.4849 9.42482C23.4963 9.42973 23.5061 9.43793 23.5118 9.4494C25.8443 12.8802 26.9963 16.7503 26.5656 21.2056C26.564 21.2244 26.5542 21.2417 26.5387 21.2531C24.7721 22.5505 23.0608 23.3382 21.3731 23.8602C21.3462 23.8684 21.3169 23.8586 21.3006 23.8356C20.9107 23.2931 20.5565 22.721 20.2463 22.1202C20.2284 22.085 20.2447 22.0424 20.2813 22.0285C20.8439 21.8162 21.3788 21.5621 21.8933 21.2613C21.934 21.2376 21.9365 21.1793 21.899 21.1515C21.7899 21.0703 21.6817 20.9851 21.5782 20.8999C21.5587 20.8843 21.5327 20.881 21.5107 20.8917C18.1703 22.435 14.5108 22.435 11.1305 20.8917C11.1085 20.8818 11.0825 20.8851 11.0638 20.9007C10.9604 20.9859 10.8521 21.0703 10.7438 21.1515C10.7064 21.1793 10.7096 21.2376 10.7503 21.2613C11.2648 21.5564 11.7997 21.8162 12.3615 22.0293C12.3981 22.0432 12.4152 22.085 12.3973 22.1202C12.0936 22.7218 11.7395 23.2939 11.3422 23.8365C11.3251 23.8586 11.2966 23.8684 11.2697 23.8602C9.5902 23.3382 7.87888 22.5505 6.11222 21.2531C6.09757 21.2417 6.08698 21.2236 6.08536 21.2048C5.72551 17.3511 6.45904 13.449 9.13673 9.44858C9.14321 9.43793 9.15299 9.42973 9.16439 9.42482C10.4817 8.81996 11.8934 8.37492 13.3686 8.12085C13.3954 8.11675 13.4223 8.12904 13.4361 8.15281C13.6185 8.47572 13.8269 8.88963 13.9678 9.2281C15.5228 8.99043 17.1022 8.99043 18.6897 9.2281C18.8305 8.89699 19.0317 8.47572 19.2132 8.15281C19.2271 8.12822 19.2539 8.11593 19.2808 8.12085ZM11.0458 16.7765C11.0458 17.924 11.8844 18.8583 12.9021 18.8583C13.936 18.8583 14.7583 17.924 14.7583 16.7765C14.7746 15.6373 13.9441 14.6948 12.9021 14.6948C11.8681 14.6948 11.0458 15.6291 11.0458 16.7765ZM17.909 16.7765C17.909 17.924 18.7475 18.8583 19.7652 18.8583C20.8073 18.8583 21.6214 17.924 21.6214 16.7765C21.6377 15.6373 20.8073 14.6948 19.7652 14.6948C18.7312 14.6948 17.909 15.6291 17.909 16.7765Z" />
</svg>
