<svg width="48" height="48" viewBox="0 0 48 48" fill="#A07EFF" xmlns="http://www.w3.org/2000/svg">
    <path fill-rule="evenodd" clip-rule="evenodd" d="M30.5 6C30.5 5.17157 31.1716 4.5 32 4.5H42C42.8284 4.5 43.5 5.17157 43.5 6V16C43.5 16.8284 42.8284 17.5 42 17.5C41.1716 17.5 40.5 16.8284 40.5 16V7.5H32C31.1716 7.5 30.5 6.82843 30.5 6Z" />
    <path fill-rule="evenodd" clip-rule="evenodd" d="M43.0607 4.93934C43.6464 5.52513 43.6464 6.47487 43.0607 7.06066L9.06066 41.0607C8.47487 41.6464 7.52513 41.6464 6.93934 41.0607C6.35355 40.4749 6.35355 39.5251 6.93934 38.9393L40.9393 4.93934C41.5251 4.35355 42.4749 4.35355 43.0607 4.93934Z" />
    <path fill-rule="evenodd" clip-rule="evenodd" d="M42 30.5C42.8284 30.5 43.5 31.1716 43.5 32V42C43.5 42.8284 42.8284 43.5 42 43.5H32C31.1716 43.5 30.5 42.8284 30.5 42C30.5 41.1716 31.1716 40.5 32 40.5H40.5V32C40.5 31.1716 41.1716 30.5 42 30.5Z" />
    <path fill-rule="evenodd" clip-rule="evenodd" d="M28.9393 28.9393C29.5251 28.3536 30.4749 28.3536 31.0607 28.9393L43.0607 40.9393C43.6464 41.5251 43.6464 42.4749 43.0607 43.0607C42.4749 43.6464 41.5251 43.6464 40.9393 43.0607L28.9393 31.0607C28.3536 30.4749 28.3536 29.5251 28.9393 28.9393Z" />
    <path fill-rule="evenodd" clip-rule="evenodd" d="M6.93934 6.93934C7.52513 6.35355 8.47487 6.35355 9.06066 6.93934L19.0607 16.9393C19.6464 17.5251 19.6464 18.4749 19.0607 19.0607C18.4749 19.6464 17.5251 19.6464 16.9393 19.0607L6.93934 9.06066C6.35355 8.47487 6.35355 7.52513 6.93934 6.93934Z" />
</svg>
