<svg width="48" height="48" viewBox="0 0 48 48" fill="#0085FF" xmlns="http://www.w3.org/2000/svg">
    <path fill-rule="evenodd" clip-rule="evenodd" d="M24 18.5C24.8284 18.5 25.5 19.1716 25.5 20V40C25.5 40.8284 24.8284 41.5 24 41.5C23.1716 41.5 22.5 40.8284 22.5 40V20C22.5 19.1716 23.1716 18.5 24 18.5Z" />
    <path fill-rule="evenodd" clip-rule="evenodd" d="M36 6.5C36.8284 6.5 37.5 7.17157 37.5 8V40C37.5 40.8284 36.8284 41.5 36 41.5C35.1716 41.5 34.5 40.8284 34.5 40V8C34.5 7.17157 35.1716 6.5 36 6.5Z" />
    <path fill-rule="evenodd" clip-rule="evenodd" d="M12 30.5C12.8284 30.5 13.5 31.1716 13.5 32V40C13.5 40.8284 12.8284 41.5 12 41.5C11.1716 41.5 10.5 40.8284 10.5 40V32C10.5 31.1716 11.1716 30.5 12 30.5Z" />
</svg>
