<svg width="116" height="36" viewBox="0 0 116 36" fill="none" xmlns="http://www.w3.org/2000/svg">
    <path fill-rule="evenodd" clip-rule="evenodd" d="M6.65721 24.328C6.02525 24.328 5.42442 23.9589 5.16153 23.3443C4.2682 21.2561 3.81592 19.0375 3.81592 16.7503C3.81592 8.24432 10.2096 1.04787 18.6886 0.0119042C19.5804 -0.0951948 20.3895 0.532172 20.4992 1.4179C20.609 2.30311 19.9755 3.10915 19.0852 3.21777C12.2321 4.05578 7.06457 9.87314 7.06457 16.7503C7.06457 18.6009 7.43058 20.3942 8.15137 22.0799C8.50258 22.9006 8.11768 23.8498 7.29224 24.1985C7.08448 24.2863 6.86906 24.328 6.65721 24.328Z" fill="#DCE2FF"/>
    <path fill-rule="evenodd" clip-rule="evenodd" d="M10.1673 15.5031C10.0765 15.5031 9.98375 15.4918 9.89198 15.4678C9.3018 15.3148 8.94687 14.708 9.09848 14.113C10.5019 8.61126 15.4181 4.77014 21.0548 4.77014C23.9307 4.77014 26.7305 5.78925 28.9386 7.64075C29.4071 8.03263 29.4715 8.73455 29.0821 9.20676C28.6937 9.67949 27.9981 9.74446 27.5296 9.35206C25.7164 7.83209 23.417 6.99459 21.0548 6.99459C16.4246 6.99459 12.3866 10.1496 11.2341 14.6671C11.1063 15.17 10.6581 15.5031 10.1673 15.5031Z" fill="#DCE2FF"/>
    <path fill-rule="evenodd" clip-rule="evenodd" d="M20.2454 28.5921C18.9344 28.5031 17.6557 28.2094 16.4453 27.7173C15.8725 27.4843 15.5932 26.822 15.8211 26.2377C16.0501 25.6539 16.6989 25.3691 17.2717 25.6015C18.265 26.0057 19.3152 26.2471 20.3937 26.3204C21.8828 26.4214 23.3391 26.2005 24.7225 25.6628C25.2989 25.4397 25.9436 25.7345 26.1628 26.322C26.382 26.9094 26.093 27.5675 25.5171 27.7916C23.8308 28.4461 22.0579 28.7152 20.2454 28.5921Z" fill="#DCE2FF"/>
    <mask id="mask0_168_1286" style="mask-type:alpha" maskUnits="userSpaceOnUse" x="0" y="5" width="16" height="31">
        <path d="M0 5.43433H15.2129V35.7764H0V5.43433Z" fill="white"/>
    </mask>
    <g mask="url(#mask0_168_1286)">
        <path fill-rule="evenodd" clip-rule="evenodd" d="M14.1065 35.7766C13.9997 35.7766 13.8908 35.7608 13.7834 35.7277C5.66825 33.2528 0 25.3127 0 16.5203C0 12.7555 1.07005 9.09812 3.09464 5.94343C3.42385 5.42902 4.10821 5.27942 4.62314 5.61016C5.13756 5.93987 5.28715 6.62474 4.95692 7.13916C3.16181 9.93614 2.21286 13.1804 2.21286 16.5203C2.21286 24.348 7.23644 31.418 14.4291 33.611C15.0138 33.7896 15.343 34.4078 15.1644 34.9925C15.0188 35.4692 14.5807 35.7766 14.1065 35.7766Z" fill="#DCE2FF"/>
    </g>
    <path fill-rule="evenodd" clip-rule="evenodd" d="M20.8791 32.9143C16.0486 32.9143 11.6375 31.0998 8.67832 27.8694C8.20597 27.3536 8.24432 26.5562 8.7636 26.0869C9.28288 25.6187 10.0868 25.6562 10.5596 26.1721C13.1732 29.0243 17.1937 30.5604 21.5729 30.3766C22.2769 30.3435 22.8663 30.8889 22.8956 31.5851C22.9249 32.2808 22.3799 32.8692 21.6779 32.8983C21.4109 32.9088 21.1435 32.9143 20.8791 32.9143Z" fill="#DCE2FF"/>
    <path fill-rule="evenodd" clip-rule="evenodd" d="M51.1448 3.57764C50.6933 3.57764 50.3257 3.93596 50.3257 4.37619V14.7876H52.4723V3.57764H51.1448Z" fill="#DCE2FF"/>
    <path fill-rule="evenodd" clip-rule="evenodd" d="M68.5277 3.57764C68.0914 3.57764 67.7368 3.93394 67.7368 4.37247V10.9022C67.7368 13.1532 69.4419 14.7876 71.7915 14.7876C74.141 14.7876 75.8461 13.1532 75.8461 10.9022V3.57764H74.588C74.1516 3.57764 73.7971 3.93394 73.7971 4.37247V10.823C73.7971 12.1341 73.0284 12.9487 71.7915 12.9487C70.5642 12.9487 69.802 12.1341 69.802 10.823V3.57764H68.5277Z" fill="#DCE2FF"/>
    <path fill-rule="evenodd" clip-rule="evenodd" d="M80.4823 3.57764C80.0297 3.57764 79.6621 3.93596 79.6621 4.37721V14.7876H81.8087V3.57764H80.4823Z" fill="#DCE2FF"/>
    <path fill-rule="evenodd" clip-rule="evenodd" d="M87.9555 5.43171H89.6854C90.4378 5.43171 90.9783 5.66053 91.3857 6.15297V6.15348C91.8053 6.66998 91.8765 7.35131 91.8765 9.13423C91.8765 10.8788 91.8084 11.6916 91.3857 12.2112C90.9788 12.7042 90.4383 12.933 89.6854 12.933H87.9555V5.43171ZM85.8633 14.7876H89.8922C91.1252 14.7876 92.1447 14.42 92.8407 13.7228C93.9897 12.5742 93.9805 11.1107 93.9708 9.56013C93.9698 9.41884 93.9693 9.27705 93.9693 9.13423C93.9693 8.99141 93.9698 8.84962 93.9708 8.70834C93.98 7.20849 93.9897 5.79055 92.8407 4.64186C92.1447 3.94569 91.1252 3.57764 89.8922 3.57764H86.6658C86.2231 3.57764 85.8633 3.9375 85.8633 4.38028V14.7876Z" fill="#DCE2FF"/>
    <path fill-rule="evenodd" clip-rule="evenodd" d="M41.4098 12.933V3.57764H40.1385C39.7055 3.57764 39.354 3.93596 39.354 4.37619V14.7876H46.3478L47.2248 12.933H41.4098Z" fill="#DCE2FF"/>
    <path fill-rule="evenodd" clip-rule="evenodd" d="M58.3368 9.18235C58.3368 7.07656 58.4335 6.51438 58.881 6.0146C59.2188 5.62505 59.7455 5.40058 60.3263 5.40058C60.9056 5.40058 61.4132 5.61901 61.7565 6.0146C62.1824 6.49122 62.3157 6.991 62.3157 9.18235C62.3157 11.3747 62.1824 11.874 61.756 12.3506C61.4132 12.7462 60.9056 12.9641 60.3263 12.9641C59.7455 12.9641 59.2188 12.7402 58.8805 12.3496C58.4335 11.8508 58.3368 11.2887 58.3368 9.18235ZM63.5365 13.2777C64.3558 12.2374 64.3648 10.965 64.3648 9.25986V9.10485C64.3648 7.22956 64.3653 5.87519 63.2759 4.78102C62.4701 3.97121 61.5049 3.57764 60.3263 3.57764C59.1371 3.57764 58.1669 3.97121 57.3611 4.78102C56.2867 5.85959 56.2872 7.1893 56.2881 9.02935V9.33536C56.2872 11.1754 56.2867 12.5051 57.3611 13.5847C58.1674 14.3935 59.1376 14.7876 60.3263 14.7876H64.8745V13.2777H63.5365Z" fill="#DCE2FF"/>
    <path fill-rule="evenodd" clip-rule="evenodd" d="M57.9578 22.8424V20.9888H51.3706C50.9258 20.9888 50.564 21.3476 50.564 21.7889V32.1987H57.9578V30.3445H52.6709V27.4732H57.1728V25.6191H52.6709V22.8424H57.9578Z" fill="#DCE2FF"/>
    <path fill-rule="evenodd" clip-rule="evenodd" d="M91.3529 29.7622C91.0088 30.1573 90.4991 30.3758 89.918 30.3758C89.3349 30.3758 88.8056 30.1513 88.466 29.7612C88.0172 29.262 87.9201 28.6998 87.9201 26.5935C87.9201 24.4882 88.0172 23.9255 88.467 23.4257C88.8056 23.0362 89.3349 22.8122 89.918 22.8122C90.4991 22.8122 91.0088 23.0301 91.3534 23.4262C91.7816 23.9029 91.9149 24.4026 91.9149 26.5935C91.9149 28.7864 91.7816 29.2856 91.3529 29.7622ZM89.918 20.9888C88.7236 20.9888 87.7496 21.3829 86.9406 22.1927C85.8619 23.2712 85.8624 24.6009 85.8633 26.4405V26.7465C85.8624 28.5865 85.8619 29.9163 86.9406 30.9958C87.7501 31.8051 88.7241 32.1987 89.918 32.1987C91.1009 32.1987 92.0694 31.8051 92.8794 30.9953C93.9732 29.9012 93.9727 28.5463 93.9727 26.671V26.5165C93.9727 24.6407 93.9732 23.2863 92.8789 22.1927C92.0699 21.3829 91.1014 20.9888 89.918 20.9888Z" fill="#DCE2FF"/>
    <path fill-rule="evenodd" clip-rule="evenodd" d="M115.2 32.1987L111.591 26.2042L111.609 26.1735L114.622 20.9888H112.689C112.402 20.9888 112.137 21.1439 111.996 21.3952L109.418 25.9902V20.9888H108.128C107.687 20.9888 107.329 21.3476 107.329 21.7884V32.1987H109.418V26.4074L112.802 32.1987H115.2Z" fill="#DCE2FF"/>
    <path fill-rule="evenodd" clip-rule="evenodd" d="M47.2248 32.1987V20.9888H45.9611C45.529 20.9888 45.178 21.3476 45.178 21.7889V28.089L41.192 20.9888H40.1376C39.7055 20.9888 39.354 21.3476 39.354 21.7889V32.1987H41.4013V25.0815L45.3873 32.1987H47.2248Z" fill="#DCE2FF"/>
    <path fill-rule="evenodd" clip-rule="evenodd" d="M69.1676 20.9888H62.2258C61.2064 20.9888 60.374 21.8145 60.3428 22.8424H63.7242V32.1987H65.7857V22.8424H67.2841C68.3035 22.8424 69.1364 22.0162 69.1676 20.9888Z" fill="#DCE2FF"/>
    <path fill-rule="evenodd" clip-rule="evenodd" d="M98.8821 22.8423H100.978C101.938 22.8423 102.608 23.4817 102.608 24.3975C102.608 25.3132 101.938 25.9526 100.978 25.9526H98.8821V22.8423ZM102.357 32.1987H104.706L101.94 27.5067L102.019 27.4893C102.26 27.4376 102.473 27.3808 102.673 27.3168C103.913 26.8571 104.656 25.7658 104.656 24.3975C104.656 22.3903 103.201 20.9888 101.118 20.9888H97.594C97.1754 20.9888 96.835 21.3374 96.835 21.7648V32.1987H98.8821V27.6802H99.7693L102.357 32.1987Z" fill="#DCE2FF"/>
    <path fill-rule="evenodd" clip-rule="evenodd" d="M82.2029 21.2268L80.4644 28.3022L78.5437 21.6302C78.4343 21.2503 78.0883 20.9888 77.6949 20.9888H77.4643C77.0719 20.9888 76.7269 21.2493 76.618 21.6281L74.6963 28.3032L72.9151 20.9888H71.1461C70.9436 20.9888 70.796 21.1818 70.8479 21.3783L73.7182 32.1987H75.4648L77.5804 25.1801L77.6369 25.3675L79.6964 32.1987H81.4425L84.4324 20.9888H82.5052C82.3616 20.9888 82.237 21.0871 82.2029 21.2268Z" fill="#DCE2FF"/>
</svg>
