<svg width="48" height="48" viewBox="0 0 48 48" fill="none" xmlns="http://www.w3.org/2000/svg">
<path d="M24.3523 41.8636C22.2045 41.8636 20.2841 41.4773 18.5909 40.7045C16.8977 39.9205 15.5568 38.8352 14.5682 37.4489C13.5795 36.0625 13.0568 34.4659 13 32.6591H16.2216C16.2784 33.9318 16.6705 35.0455 17.3977 36C18.125 36.9432 19.0909 37.6818 20.2955 38.2159C21.5 38.7386 22.8409 39 24.3182 39C25.9318 39 27.3523 38.6989 28.5795 38.0966C29.8182 37.4943 30.7841 36.6705 31.4773 35.625C32.1818 34.5682 32.5341 33.375 32.5341 32.0455C32.5341 30.6364 32.1761 29.392 31.4602 28.3125C30.7443 27.233 29.7159 26.392 28.375 25.7898C27.0455 25.1875 25.4545 24.8864 23.6023 24.8864H21.5568V22.0227H23.6023C25.1136 22.0227 26.4489 21.75 27.608 21.2045C28.7784 20.6477 29.6989 19.8693 30.3693 18.8693C31.0398 17.8693 31.375 16.6932 31.375 15.3409C31.375 14.0568 31.0852 12.9261 30.5057 11.9489C29.9261 10.9716 29.108 10.2045 28.0511 9.64773C27.0057 9.09091 25.7841 8.8125 24.3864 8.8125C23.0341 8.8125 21.7955 9.07386 20.6705 9.59659C19.5455 10.1193 18.6364 10.858 17.9432 11.8125C17.2614 12.767 16.8977 13.8977 16.8523 15.2045H13.767C13.8125 13.3864 14.3125 11.7898 15.267 10.4148C16.233 9.02841 17.5114 7.94886 19.1023 7.17614C20.7045 6.39204 22.4773 6 24.4205 6C26.4773 6 28.2557 6.42045 29.7557 7.26136C31.2557 8.10227 32.4148 9.22159 33.233 10.6193C34.0625 12.0057 34.4773 13.5341 34.4773 15.2045C34.4773 17.1932 33.9375 18.8977 32.858 20.3182C31.7784 21.7273 30.3239 22.7045 28.4943 23.25V23.4716C30.7216 23.9148 32.4716 24.9034 33.7443 26.4375C35.0284 27.9602 35.6705 29.8295 35.6705 32.0455C35.6705 33.9091 35.1818 35.5852 34.2045 37.0739C33.2273 38.5511 31.8864 39.7216 30.1818 40.5852C28.4886 41.4375 26.5455 41.8636 24.3523 41.8636Z" fill="#A07EFF"/>
</svg>
