<svg width="680" height="460" viewBox="0 0 680 460" fill="none" xmlns="http://www.w3.org/2000/svg">
    <path d="M652 0H376C360.536 0 348 12.536 348 28V432C348 447.464 360.536 460 376 460H652C667.464 460 680 447.464 680 432V28C680 12.536 667.464 0 652 0Z" fill="white" fill-opacity="0.1"/>
    <path d="M648 16H380C371.163 16 364 23.1634 364 32V428C364 436.837 371.163 444 380 444H648C656.837 444 664 436.837 664 428V32C664 23.1634 656.837 16 648 16Z" fill="#21212E"/>
    <path d="M364.5 32C364.5 23.44 371.44 16.5 380 16.5H648C656.56 16.5 663.5 23.44 663.5 32V79.5H364.5V32Z" fill="#272736"/>
    <path d="M411.518 51.871C410.491 55.9869 407.871 59.5264 404.235 61.7112C400.599 63.896 396.244 64.5474 392.127 63.522C388.012 62.4938 384.474 59.8739 382.29 56.2379C380.106 52.602 379.455 48.2477 380.48 44.132C382.616 35.56 391.298 30.343 399.867 32.48C403.983 33.5073 407.523 36.1272 409.708 39.7637C411.893 43.4002 412.544 47.7555 411.518 51.872V51.871Z" fill="#50AF95"/>
    <path fill-rule="evenodd" clip-rule="evenodd" d="M397.628 48.601C397.537 48.608 397.067 48.639 396.02 48.639C395.187 48.639 394.595 48.612 394.387 48.601C391.166 48.447 388.763 47.839 388.763 47.11C388.763 46.381 391.167 45.773 394.387 45.617V47.995L396.034 48.05L397.625 47.996V45.619C400.839 45.774 403.237 46.383 403.237 47.11C403.237 47.837 400.839 48.446 397.625 48.6L397.628 48.601V48.601ZM397.628 45.373V43.245H402.113V40H389.902V43.245H394.386V45.372C390.741 45.554 388 46.338 388 47.277C388 48.216 390.741 48.999 394.386 49.182V56H397.627V49.179C401.263 48.997 404 48.214 404 47.276C404 46.338 401.266 45.555 397.627 45.372L397.628 45.373Z" fill="white"/>
    <path d="M429.233 52.9999H432.912C435.318 52.9999 436.313 51.8269 436.313 50.2949C436.313 48.6839 435.199 47.8089 434.265 47.7499V47.6509C435.14 47.4119 435.916 46.8359 435.916 45.5229C435.916 44.0309 434.922 42.8179 432.794 42.8179H429.234V52.9999H429.233ZM430.466 51.9059V48.3659H432.972C434.304 48.3659 435.14 49.2609 435.14 50.2949C435.14 51.1899 434.523 51.9059 432.913 51.9059H430.467H430.466ZM430.466 47.2919V43.9109H432.793C434.145 43.9109 434.742 44.6269 434.742 45.5219C434.742 46.5959 433.867 47.2919 432.753 47.2919H430.466V47.2919ZM437.782 43.9109H440.984V52.9999H442.217V43.9119H445.419V42.8179H437.783V43.9119L437.782 43.9109ZM455.09 45.9999C454.712 43.9119 453.042 42.6789 450.994 42.6789C448.388 42.6789 446.499 44.6869 446.499 47.9089C446.499 51.1309 448.388 53.1389 450.994 53.1389C453.042 53.1389 454.712 51.9059 455.09 49.8179H453.857C453.559 51.2299 452.346 51.9859 450.994 51.9859C449.144 51.9859 447.692 50.5539 447.692 47.9089C447.692 45.2639 449.144 43.8319 450.994 43.8319C452.346 43.8319 453.559 44.5879 453.857 45.9999H455.09V45.9999ZM460.523 42.3409H459.449L456.168 54.5309H457.242L460.523 42.3409ZM468.755 42.8179V49.4599C468.755 50.9519 467.73 52.0249 466.03 52.0249C464.33 52.0249 463.306 50.9509 463.306 49.4599V42.8179H462.073V49.5599C462.073 51.6479 463.634 53.1789 466.03 53.1789C468.426 53.1789 469.988 51.6479 469.988 49.5599V42.8179H468.755V42.8179ZM478.018 45.3629H479.211C479.156 43.8269 477.74 42.6779 475.771 42.6779C473.822 42.6779 472.291 43.8109 472.291 45.5219C472.291 46.8939 473.285 47.7099 474.876 48.1669L476.129 48.5249C477.203 48.8229 478.157 49.2009 478.157 50.2149C478.157 51.3289 477.083 52.0639 475.671 52.0639C474.458 52.0639 473.384 51.5269 473.285 50.3739H472.012C472.132 52.0439 473.484 53.1779 475.671 53.1779C478.018 53.1779 479.35 51.8849 479.35 50.2349C479.35 48.3259 477.541 47.7089 476.487 47.4309L475.453 47.1529C474.697 46.9539 473.484 46.5559 473.484 45.4629C473.484 44.4889 474.379 43.7729 475.731 43.7729C476.964 43.7729 477.899 44.3599 478.018 45.3639V45.3629ZM484.52 52.9999C487.622 52.9999 489.372 51.0709 489.372 47.8889C489.372 44.7269 487.622 42.8179 484.659 42.8179H481.377V52.9999H484.52ZM482.61 51.9059V43.9119H484.579C486.966 43.9119 488.179 45.4229 488.179 47.8889C488.179 50.3749 486.966 51.9059 484.44 51.9059H482.61V51.9059ZM490.459 43.9119H493.661V52.9999H494.894V43.9119H498.096V42.8179H490.459V43.9119Z" fill="white"/>
    <path d="M562.415 52L563.293 49.528H566.821L567.699 52H568.807L565.602 43.2729H564.511L561.307 52H562.415ZM563.625 48.591L565.023 44.6539H565.091L566.489 48.5919H563.625V48.591ZM571.036 43.2729H570.03V52H571.036V43.2729V43.2729ZM573.883 43.2729H572.877V52H573.883V43.2729V43.2729ZM579.1 52H580.106V47.909C580.106 46.95 580.805 46.2729 581.589 46.2729C582.352 46.2729 582.884 46.7719 582.884 47.5169V52H583.907V47.7389C583.907 46.8949 584.435 46.2729 585.356 46.2729C586.072 46.2729 586.685 46.6519 586.685 47.6199V52H587.691V47.6189C587.691 46.0809 586.864 45.3689 585.697 45.3689C584.759 45.3689 584.073 45.799 583.737 46.477H583.668C583.344 45.778 582.773 45.3689 581.913 45.3689C581.06 45.3689 580.43 45.778 580.157 46.477H580.072V45.4539H579.1V52ZM591.456 52.153C592.598 52.153 593.195 51.5389 593.399 51.1129H593.45V52H594.456V47.688C594.456 45.608 592.871 45.3699 592.036 45.3699C591.047 45.3699 589.922 45.7109 589.411 46.9039L590.365 47.2449C590.587 46.7679 591.111 46.256 592.07 46.256C592.994 46.256 593.45 46.7459 593.45 47.5859V47.6199C593.45 48.1059 592.956 48.0629 591.763 48.2169C590.548 48.3749 589.223 48.643 589.223 50.143C589.223 51.421 590.212 52.1539 591.456 52.1539V52.153ZM591.609 51.25C590.808 51.25 590.229 50.892 590.229 50.193C590.229 49.426 590.928 49.1869 591.712 49.0849C592.138 49.0339 593.28 48.9149 593.45 48.7099V49.63C593.45 50.448 592.803 51.249 591.609 51.249V51.25ZM596.292 52H597.297V47.858C597.297 46.972 597.996 46.324 598.951 46.324C599.219 46.324 599.496 46.3749 599.564 46.3919V45.3689L599.036 45.352C598.252 45.352 597.57 45.795 597.331 46.443H597.263V45.4539H596.292V52V52ZM600.756 52H601.762V49.5499L602.465 48.8979L604.915 52H606.194L603.224 48.25L605.989 45.455H604.745L601.881 48.3699H601.762V43.2729H600.756V52V52ZM609.759 52.136C611.088 52.136 612.06 51.471 612.366 50.483L611.395 50.2099C611.139 50.8919 610.547 51.233 609.759 51.233C608.578 51.233 607.764 50.47 607.717 49.068H612.469V48.6419C612.469 46.2049 611.02 45.3689 609.656 45.3689C607.884 45.3689 606.707 46.767 606.707 48.778C606.707 50.789 607.866 52.136 609.759 52.136V52.136ZM607.717 48.199C607.786 47.18 608.506 46.2729 609.656 46.2729C610.747 46.2729 611.446 47.091 611.446 48.199H607.717V48.199ZM616.845 45.455H615.447V43.887H614.442V45.455H613.453V46.3069H614.442V50.3979C614.442 51.5399 615.362 52.0859 616.214 52.0859C616.589 52.0859 616.828 52.0179 616.964 51.9669L616.76 51.0639C616.675 51.0809 616.538 51.115 616.317 51.115C615.874 51.115 615.447 50.9789 615.447 50.1259V46.3079H616.845V45.456V45.455ZM622.877 46.921C622.562 45.992 621.854 45.3699 620.559 45.3699C619.178 45.3699 618.156 46.154 618.156 47.262C618.156 48.165 618.692 48.7699 619.894 49.0519L620.985 49.3079C621.646 49.4609 621.957 49.777 621.957 50.228C621.957 50.791 621.36 51.2509 620.423 51.2509C619.6 51.2509 619.085 50.897 618.906 50.194L617.951 50.4329C618.185 51.5449 619.102 52.138 620.44 52.138C621.961 52.138 622.996 51.307 622.996 50.178C622.996 49.266 622.425 48.6909 621.258 48.4049L620.286 48.166C619.511 47.974 619.161 47.7139 619.161 47.2109C619.161 46.6489 619.758 46.2389 620.559 46.2389C621.437 46.2389 621.799 46.7249 621.974 47.1769L622.877 46.921V46.921Z" fill="#636383"/>
    <path fill-rule="evenodd" clip-rule="evenodd" d="M644.495 45.505C644.56 45.57 644.611 45.6471 644.647 45.7321C644.682 45.817 644.7 45.908 644.7 46C644.7 46.0919 644.682 46.1829 644.647 46.2679C644.611 46.3528 644.56 46.43 644.495 46.495L640.495 50.495C640.43 50.56 640.353 50.6116 640.268 50.6467C640.183 50.6819 640.092 50.7 640 50.7C639.908 50.7 639.817 50.6819 639.732 50.6467C639.647 50.6116 639.57 50.56 639.505 50.495L635.505 46.495C635.374 46.3637 635.3 46.1856 635.3 46C635.3 45.8143 635.374 45.6363 635.505 45.505C635.636 45.3737 635.814 45.2999 636 45.2999C636.186 45.2999 636.364 45.3737 636.495 45.505L640 49.01L643.505 45.505C643.57 45.44 643.647 45.3884 643.732 45.3532C643.817 45.318 643.908 45.2999 644 45.2999C644.092 45.2999 644.183 45.318 644.268 45.3532C644.353 45.3884 644.43 45.44 644.495 45.505V45.505Z" fill="#636383"/>
    <path d="M364.5 32C364.5 23.44 371.44 16.5 380 16.5H648C656.56 16.5 663.5 23.44 663.5 32V79.5H364.5V32Z" stroke="#3B3B4E"/>
    <path d="M499.233 117V106.818H500.466V115.906H505.199V117H499.233ZM506.949 117V109.364H508.122V117H506.949ZM507.545 108.091C507.317 108.091 507.12 108.013 506.954 107.857C506.876 107.786 506.814 107.699 506.772 107.602C506.73 107.505 506.709 107.401 506.71 107.295C506.71 107.077 506.791 106.889 506.954 106.734C507.117 106.579 507.317 106.5 507.545 106.5C507.773 106.5 507.97 106.578 508.132 106.734C508.212 106.804 508.275 106.891 508.318 106.987C508.361 107.084 508.382 107.189 508.381 107.295C508.381 107.514 508.298 107.701 508.132 107.857C508.055 107.933 507.963 107.993 507.862 108.033C507.762 108.073 507.654 108.093 507.545 108.091V108.091ZM510.271 117V109.364H511.405V110.557H511.504C511.651 110.165 511.922 109.831 512.275 109.607C512.629 109.379 513.055 109.264 513.552 109.264C514.056 109.264 514.475 109.379 514.81 109.607C515.157 109.845 515.43 110.174 515.601 110.557H515.68C515.876 110.162 516.169 109.849 516.56 109.617C516.951 109.385 517.42 109.264 517.967 109.264C518.65 109.264 519.208 109.478 519.643 109.906C520.078 110.334 520.294 110.991 520.294 111.889V117H519.121V111.889C519.121 111.326 518.966 110.923 518.658 110.681C518.348 110.438 517.963 110.31 517.569 110.318C517.032 110.318 516.617 110.481 516.322 110.805C516.027 111.129 515.879 111.535 515.879 112.028V117H514.686V111.77C514.686 111.336 514.545 110.986 514.263 110.721C513.981 110.456 513.619 110.318 513.175 110.318C512.873 110.317 512.576 110.402 512.319 110.562C512.053 110.729 511.834 110.962 511.683 111.238C511.524 111.523 511.444 111.853 511.444 112.227V117H510.271V117ZM522.439 117V109.364H523.612V117H522.439ZM523.036 108.091C522.807 108.091 522.61 108.013 522.444 107.857C522.366 107.786 522.304 107.699 522.262 107.602C522.219 107.505 522.199 107.401 522.2 107.295C522.199 107.19 522.221 107.085 522.263 106.988C522.305 106.892 522.367 106.805 522.444 106.734C522.61 106.578 522.807 106.5 523.036 106.5C523.265 106.5 523.46 106.578 523.622 106.734C523.702 106.804 523.765 106.891 523.808 106.987C523.851 107.084 523.872 107.189 523.871 107.295C523.871 107.514 523.788 107.701 523.622 107.857C523.545 107.933 523.453 107.992 523.353 108.033C523.252 108.073 523.145 108.093 523.036 108.091V108.091ZM529.082 109.364V110.358H525.125V109.364H529.082ZM526.278 107.534H527.452V114.812C527.452 115.144 527.5 115.393 527.596 115.558C527.679 115.709 527.813 115.825 527.974 115.886C528.132 115.941 528.299 115.968 528.466 115.966C528.595 115.966 528.701 115.959 528.784 115.946L528.983 115.906L529.222 116.96C529.142 116.99 529.031 117.02 528.888 117.05C528.71 117.086 528.529 117.103 528.347 117.099C528.011 117.098 527.679 117.025 527.372 116.886C527.057 116.743 526.786 116.518 526.587 116.234C526.381 115.943 526.278 115.575 526.278 115.131V107.534V107.534ZM592.477 117V106.818H593.71V115.906H598.443V117H592.477ZM602.44 117.179C601.956 117.179 601.517 117.088 601.123 116.906C600.741 116.732 600.415 116.455 600.183 116.105C599.951 115.757 599.835 115.33 599.835 114.832C599.835 114.395 599.921 114.04 600.094 113.768C600.264 113.496 600.502 113.273 600.785 113.122C601.073 112.966 601.391 112.85 601.739 112.774L602.798 112.585L603.927 112.451C604.218 112.418 604.43 112.363 604.563 112.287C604.696 112.211 604.767 112.078 604.767 111.889V111.849C604.767 111.359 604.633 110.978 604.364 110.706C604.095 110.434 603.696 110.298 603.156 110.298C602.596 110.298 602.157 110.421 601.839 110.666C601.521 110.911 601.297 111.173 601.167 111.452L600.054 111.054C600.253 110.59 600.518 110.229 600.849 109.97C601.172 109.714 601.545 109.528 601.943 109.423C602.341 109.317 602.732 109.264 603.116 109.264C603.362 109.264 603.643 109.294 603.961 109.354C604.29 109.415 604.605 109.535 604.891 109.707C605.189 109.886 605.443 110.156 605.642 110.517C605.841 110.878 605.94 111.362 605.94 111.969V117H604.767V115.966H604.707C604.628 116.132 604.495 116.309 604.309 116.498C604.123 116.687 603.877 116.848 603.569 116.98C603.261 117.112 602.884 117.179 602.44 117.179V117.179ZM602.619 116.125C603.083 116.125 603.474 116.034 603.792 115.852C604.11 115.67 604.356 115.434 604.518 115.146C604.681 114.87 604.767 114.556 604.767 114.236V113.162C604.717 113.222 604.608 113.276 604.439 113.326C604.27 113.376 604.081 113.414 603.862 113.45L603.231 113.54L602.738 113.599C602.448 113.636 602.161 113.701 601.883 113.793C601.641 113.867 601.422 114.002 601.247 114.186C601.088 114.358 601.008 114.594 601.008 114.892C601.008 115.3 601.159 115.608 601.461 115.817C601.763 116.026 602.152 116.125 602.619 116.125V116.125ZM610.965 117.159C610.329 117.159 609.767 116.998 609.28 116.677C608.793 116.356 608.411 115.895 608.136 115.305C607.861 114.715 607.724 114.01 607.724 113.202C607.724 112.4 607.861 111.704 608.136 111.114C608.411 110.524 608.794 110.068 609.285 109.746C609.776 109.424 610.342 109.264 610.985 109.264C611.482 109.264 611.875 109.347 612.163 109.513C612.451 109.679 612.677 109.861 612.83 110.07L613.192 110.577H613.292V106.818H614.465V117H613.332V115.827H613.192C613.106 115.966 612.984 116.142 612.825 116.354C612.666 116.566 612.438 116.75 612.143 116.915C611.848 117.08 611.456 117.159 610.965 117.159ZM611.124 116.105C611.595 116.105 611.993 115.982 612.317 115.737C612.641 115.492 612.889 115.146 613.058 114.708C613.227 114.27 613.312 113.759 613.312 113.182C613.312 112.612 613.229 112.113 613.063 111.685C612.897 111.257 612.652 110.92 612.327 110.681C612.002 110.442 611.602 110.318 611.124 110.318C610.627 110.318 610.213 110.446 609.881 110.701C609.549 110.956 609.306 111.296 609.141 111.73C608.973 112.195 608.89 112.687 608.897 113.182C608.897 113.725 608.98 114.219 609.146 114.663C609.312 115.107 609.563 115.455 609.891 115.717C610.219 115.979 610.634 116.105 611.124 116.105ZM619.661 117.159C619.024 117.159 618.462 116.998 617.975 116.677C617.488 116.356 617.107 115.895 616.832 115.305C616.557 114.715 616.419 114.01 616.419 113.202C616.419 112.4 616.557 111.704 616.832 111.114C617.107 110.524 617.49 110.068 617.98 109.746C618.47 109.424 619.037 109.264 619.68 109.264C620.178 109.264 620.57 109.347 620.859 109.513C621.148 109.679 621.372 109.861 621.525 110.07L621.888 110.577H621.987V106.818H623.161V117H622.027V115.827H621.888C621.802 115.966 621.679 116.142 621.52 116.354C621.361 116.566 621.134 116.75 620.839 116.915C620.544 117.08 620.151 117.159 619.661 117.159ZM619.82 116.105C620.29 116.105 620.688 115.982 621.013 115.737C621.338 115.492 621.585 115.146 621.754 114.708C621.923 114.27 622.007 113.759 622.007 113.182C622.007 112.612 621.924 112.113 621.759 111.685C621.594 111.257 621.348 110.92 621.023 110.681C620.698 110.442 620.297 110.318 619.82 110.318C619.322 110.318 618.908 110.446 618.577 110.701C618.238 110.967 617.982 111.324 617.836 111.73C617.67 112.164 617.592 112.645 617.592 113.182C617.592 113.725 617.675 114.219 617.841 114.663C618.007 115.107 618.259 115.455 618.587 115.717C618.915 115.979 619.329 116.105 619.82 116.105ZM628.674 117.159C627.938 117.159 627.304 116.997 626.77 116.672C626.236 116.347 625.83 115.886 625.542 115.3C625.254 114.714 625.114 114.024 625.114 113.241C625.114 112.458 625.257 111.77 625.542 111.173C625.827 110.576 626.231 110.106 626.745 109.771C627.259 109.436 627.865 109.264 628.555 109.264C628.956 109.264 629.355 109.332 629.733 109.463C630.121 109.596 630.474 109.811 630.792 110.109C631.11 110.407 631.364 110.795 631.553 111.283C631.742 111.771 631.836 112.37 631.836 113.082V113.58H625.95V112.565H630.643C630.643 112.134 630.557 111.75 630.384 111.412C630.222 111.083 629.97 110.806 629.658 110.612C629.343 110.417 628.979 110.318 628.555 110.318C628.087 110.318 627.683 110.434 627.342 110.666C627.008 110.89 626.738 111.199 626.561 111.561C626.379 111.929 626.286 112.334 626.288 112.744V113.42C626.288 113.997 626.387 114.486 626.586 114.887C626.771 115.266 627.063 115.583 627.426 115.797C627.784 116.002 628.2 116.105 628.674 116.105C628.958 116.109 629.24 116.065 629.509 115.976C629.753 115.892 629.975 115.756 630.161 115.578C630.343 115.399 630.484 115.177 630.583 114.912L631.717 115.23C631.6 115.611 631.394 115.959 631.115 116.244C630.833 116.533 630.485 116.758 630.071 116.92C629.657 117.082 629.191 117.159 628.674 117.159V117.159ZM633.621 117V109.364H634.754V110.517H634.834C634.973 110.139 635.225 109.833 635.589 109.597C635.957 109.361 636.386 109.238 636.822 109.244L637.146 109.249L637.439 109.264V110.457C637.399 110.447 637.308 110.433 637.165 110.413C637.019 110.391 636.871 110.379 636.723 110.378C636.352 110.378 636.02 110.456 635.729 110.612C635.447 110.758 635.21 110.978 635.043 111.248C634.877 111.516 634.794 111.823 634.794 112.168V117H633.621V117Z" fill="#636383"/>
    <path d="M498 169H388C384.134 169 381 172.134 381 176V224C381 227.866 384.134 231 388 231H498C501.866 231 505 227.866 505 224V176C505 172.134 501.866 169 498 169Z" stroke="#3B3B4E" stroke-width="2"/>
    <path d="M396.625 215.455H397.693L397.699 214.176C400.102 214 401.477 212.625 401.477 210.784C401.477 208.688 399.608 207.875 398.13 207.511L397.715 207.403L397.726 203.756C398.789 203.898 399.516 204.489 399.624 205.42H401.317C401.272 203.688 399.84 202.392 397.732 202.222L397.738 200.909H396.67L396.664 202.233C394.624 202.438 393.13 203.71 393.13 205.545C393.13 207.165 394.289 208.114 396.158 208.619L396.647 208.75L396.636 212.619C395.528 212.483 394.67 211.881 394.579 210.784H392.818C392.926 212.744 394.341 214.006 396.631 214.176L396.625 215.455V215.455ZM397.705 212.619L397.716 209.045C398.869 209.364 399.739 209.784 399.739 210.767C399.739 211.761 398.91 212.46 397.705 212.619V212.619ZM396.654 207.119C395.807 206.869 394.876 206.42 394.881 205.443C394.881 204.591 395.557 203.926 396.659 203.761L396.653 207.119H396.654ZM407.468 214.193C410.156 214.193 411.729 212 411.729 208.188C411.729 204.403 410.132 202.205 407.468 202.205C404.798 202.205 403.207 204.398 403.201 208.188C403.201 211.994 404.775 214.188 407.468 214.193ZM407.468 212.676C405.894 212.676 404.945 211.097 404.945 208.188C404.951 205.29 405.899 203.693 407.468 203.693C409.031 203.693 409.985 205.29 409.985 208.188C409.985 211.097 409.036 212.676 407.468 212.676ZM414.45 214.108C414.751 214.107 415.04 213.987 415.252 213.774C415.465 213.561 415.585 213.273 415.586 212.972C415.586 212.352 415.069 211.841 414.45 211.841C414.15 211.842 413.863 211.961 413.65 212.173C413.437 212.385 413.317 212.672 413.314 212.972C413.314 213.602 413.825 214.108 414.45 214.108ZM421.38 214.159C423.8 214.159 425.511 212.784 425.522 210.898C425.511 209.432 424.482 208.199 423.181 207.966V207.898C424.312 207.625 425.079 206.562 425.09 205.307C425.079 203.528 423.51 202.205 421.38 202.205C419.227 202.205 417.658 203.528 417.67 205.307C417.659 206.557 418.426 207.625 419.579 207.898V207.966C418.255 208.199 417.227 209.432 417.238 210.898C417.227 212.784 418.937 214.159 421.38 214.159V214.159ZM421.38 212.722C419.925 212.722 419.005 211.949 419.016 210.784C419.005 209.574 420.005 208.71 421.38 208.71C422.732 208.71 423.732 209.574 423.744 210.784C423.733 211.949 422.818 212.722 421.38 212.722ZM421.38 207.307C420.204 207.307 419.369 206.562 419.38 205.455C419.369 204.364 420.175 203.642 421.38 203.642C422.562 203.642 423.369 204.364 423.38 205.455C423.369 206.562 422.539 207.307 421.38 207.307ZM427.95 214H429.785L434.848 203.92V202.364H427.155V203.869H433.03V203.955L427.949 214H427.95Z" fill="url(#paint0_linear_23_857)"/>
    <path d="M397.83 185.455H398.853C398.806 184.138 397.592 183.153 395.904 183.153C394.234 183.153 392.921 184.125 392.921 185.591C392.921 186.767 393.773 187.466 395.137 187.858L396.211 188.165C397.131 188.42 397.95 188.744 397.95 189.614C397.95 190.568 397.029 191.199 395.819 191.199C394.779 191.199 393.859 190.739 393.774 189.75H392.683C392.785 191.182 393.944 192.153 395.819 192.153C397.83 192.153 398.972 191.045 398.972 189.631C398.972 187.994 397.421 187.466 396.517 187.227L395.631 186.989C394.983 186.818 393.944 186.477 393.944 185.54C393.944 184.705 394.711 184.091 395.87 184.091C396.927 184.091 397.728 184.594 397.83 185.455V185.455ZM403.318 192.136C404.648 192.136 405.619 191.472 405.926 190.483L404.954 190.21C404.698 190.892 404.106 191.233 403.318 191.233C402.138 191.233 401.324 190.47 401.277 189.068H406.028V188.642C406.028 186.205 404.579 185.369 403.216 185.369C401.443 185.369 400.267 186.767 400.267 188.778C400.267 190.789 401.426 192.136 403.318 192.136V192.136ZM401.277 188.199C401.345 187.18 402.065 186.273 403.216 186.273C404.307 186.273 405.006 187.091 405.006 188.199H401.277ZM408.564 183.273H407.558V192H408.564V183.273V183.273ZM411.412 183.273H410.406V192H411.412V183.273V183.273ZM421.265 186.92C420.95 185.991 420.242 185.369 418.947 185.369C417.566 185.369 416.544 186.153 416.544 187.261C416.544 188.165 417.081 188.77 418.283 189.051L419.374 189.307C420.035 189.46 420.346 189.776 420.346 190.227C420.346 190.79 419.749 191.25 418.812 191.25C417.99 191.25 417.474 190.896 417.295 190.193L416.34 190.432C416.574 191.544 417.491 192.136 418.829 192.136C420.35 192.136 421.386 191.305 421.386 190.176C421.386 189.264 420.815 188.689 419.647 188.403L418.675 188.165C417.9 187.973 417.55 187.713 417.55 187.21C417.55 186.648 418.147 186.239 418.948 186.239C419.826 186.239 420.188 186.724 420.363 187.176L421.266 186.92H421.265ZM423.904 188.062C423.904 186.92 424.633 186.273 425.626 186.273C426.572 186.273 427.143 186.869 427.143 187.909V192H428.149V187.841C428.149 186.158 427.254 185.369 425.916 185.369C424.885 185.369 424.297 185.8 423.99 186.477H423.905V183.273H422.899V192H423.905V188.062H423.904ZM432.647 192.136C434.42 192.136 435.613 190.79 435.613 188.761C435.613 186.716 434.42 185.369 432.647 185.369C430.874 185.369 429.681 186.716 429.681 188.761C429.681 190.79 430.874 192.136 432.647 192.136ZM432.647 191.233C431.3 191.233 430.687 190.074 430.687 188.761C430.687 187.448 431.301 186.273 432.647 186.273C433.993 186.273 434.607 187.449 434.607 188.761C434.607 190.073 433.993 191.233 432.647 191.233ZM437.148 192H438.154V187.858C438.154 186.972 438.853 186.324 439.807 186.324C440.013 186.326 440.219 186.349 440.421 186.392V185.369L439.893 185.352C439.109 185.352 438.427 185.795 438.189 186.443H438.121V185.455H437.149V192H437.148ZM444.87 185.455H443.472V183.886H442.466V185.455H441.477V186.307H442.466V190.398C442.466 191.54 443.387 192.085 444.239 192.085C444.614 192.085 444.853 192.017 444.989 191.966L444.785 191.062C444.7 191.08 444.563 191.114 444.342 191.114C443.899 191.114 443.473 190.977 443.473 190.125V186.307H444.871V185.455H444.87Z" fill="#636383"/>
    <path d="M636 169H534C527.925 169 523 173.925 523 180V220C523 226.075 527.925 231 534 231H636C642.075 231 647 226.075 647 220V180C647 173.925 642.075 169 636 169Z" fill="url(#paint1_linear_23_857)" fill-opacity="0.2" stroke="url(#paint2_linear_23_857)" stroke-width="2"/>
    <path d="M538.625 215.455H539.693L539.699 214.176C542.102 214 543.477 212.625 543.477 210.784C543.477 208.688 541.608 207.875 540.131 207.511L539.716 207.403L539.727 203.756C540.79 203.898 541.517 204.489 541.625 205.42H543.318C543.273 203.688 541.841 202.392 539.733 202.222L539.739 200.909H538.67L538.665 202.233C536.625 202.438 535.131 203.71 535.131 205.545C535.131 207.165 536.29 208.114 538.159 208.619L538.648 208.75L538.636 212.619C537.528 212.483 536.67 211.881 536.58 210.784H534.818C534.926 212.744 536.341 214.006 538.631 214.176L538.625 215.455V215.455ZM539.705 212.619L539.716 209.045C540.869 209.364 541.739 209.784 541.739 210.767C541.739 211.761 540.909 212.46 539.705 212.619ZM538.653 207.119C537.807 206.869 536.875 206.42 536.881 205.443C536.881 204.591 537.557 203.926 538.659 203.761L538.653 207.119V207.119ZM549.467 214.193C552.155 214.193 553.729 212 553.729 208.188C553.729 204.403 552.132 202.205 549.467 202.205C546.797 202.205 545.206 204.398 545.2 208.188C545.2 211.994 546.774 214.188 549.467 214.193ZM549.467 212.676C547.893 212.676 546.945 211.097 546.945 208.188C546.95 205.29 547.899 203.693 549.467 203.693C551.03 203.693 551.984 205.29 551.984 208.188C551.984 211.097 551.036 212.676 549.467 212.676ZM556.449 214.108C556.75 214.107 557.039 213.987 557.251 213.774C557.464 213.561 557.584 213.273 557.585 212.972C557.585 212.352 557.068 211.841 556.449 211.841C556.149 211.842 555.861 211.961 555.648 212.173C555.435 212.384 555.315 212.672 555.312 212.972C555.312 213.602 555.824 214.108 556.449 214.108ZM563.379 214.159C565.8 214.159 567.51 212.784 567.521 210.898C567.51 209.432 566.482 208.199 565.18 207.966V207.898C566.311 207.625 567.078 206.562 567.089 205.307C567.078 203.528 565.51 202.205 563.379 202.205C561.226 202.205 559.658 203.528 559.669 205.307C559.658 206.557 560.425 207.625 561.578 207.898V207.966C560.254 208.199 559.226 209.432 559.237 210.898C559.226 212.784 560.936 214.159 563.379 214.159V214.159ZM563.379 212.722C561.925 212.722 561.004 211.949 561.016 210.784C561.004 209.574 562.004 208.71 563.379 208.71C564.732 208.71 565.732 209.574 565.743 210.784C565.732 211.949 564.817 212.722 563.379 212.722ZM563.379 207.307C562.203 207.307 561.368 206.562 561.379 205.455C561.368 204.364 562.175 203.642 563.379 203.642C564.561 203.642 565.368 204.364 565.379 205.455C565.368 206.562 564.538 207.307 563.379 207.307ZM573.489 214.159C575.909 214.159 577.619 212.784 577.631 210.898C577.619 209.432 576.591 208.199 575.29 207.966V207.898C576.42 207.625 577.188 206.562 577.199 205.307C577.188 203.528 575.619 202.205 573.489 202.205C571.335 202.205 569.767 203.528 569.778 205.307C569.767 206.557 570.534 207.625 571.688 207.898V207.966C570.364 208.199 569.335 209.432 569.347 210.898C569.335 212.784 571.045 214.159 573.489 214.159V214.159ZM573.489 212.722C572.034 212.722 571.114 211.949 571.125 210.784C571.114 209.574 572.114 208.71 573.489 208.71C574.841 208.71 575.841 209.574 575.852 210.784C575.841 211.949 574.926 212.722 573.489 212.722ZM573.489 207.307C572.312 207.307 571.477 206.562 571.489 205.455C571.477 204.364 572.284 203.642 573.489 203.642C574.67 203.642 575.477 204.364 575.489 205.455C575.477 206.562 574.648 207.307 573.489 207.307Z" fill="url(#paint3_linear_23_857)"/>
    <path d="M535.057 192H538.21C540.273 192 541.125 190.994 541.125 189.682C541.125 188.301 540.17 187.551 539.369 187.5V187.415C540.119 187.21 540.784 186.716 540.784 185.591C540.784 184.312 539.932 183.273 538.108 183.273H535.057V192ZM536.114 191.062V188.028H538.261C539.403 188.028 540.119 188.795 540.119 189.682C540.119 190.449 539.591 191.062 538.21 191.062H536.114ZM536.114 187.108V184.21H538.108C539.267 184.21 539.778 184.824 539.778 185.591C539.778 186.511 539.028 187.108 538.074 187.108H536.114V187.108ZM546.85 189.324C546.85 190.551 545.913 191.114 545.163 191.114C544.327 191.114 543.731 190.5 543.731 189.545V185.455H542.725V189.614C542.725 191.284 543.612 192.085 544.839 192.085C545.827 192.085 546.475 191.557 546.782 190.892H546.85V192H547.856V185.455H546.85V189.324V189.324ZM550.346 194.455C551.253 194.455 551.892 193.973 552.272 192.955L555.059 185.472L553.959 185.455L552.152 190.67H552.084L550.277 185.455H549.186L551.607 192.034L551.419 192.545C551.053 193.543 550.601 193.636 549.868 193.449L549.613 194.335C549.715 194.386 550.005 194.455 550.346 194.455V194.455ZM560.77 183.273H559.764V192H560.77V183.273V183.273ZM565.271 192.136C567.044 192.136 568.237 190.79 568.237 188.761C568.237 186.716 567.044 185.369 565.271 185.369C563.498 185.369 562.305 186.716 562.305 188.761C562.305 190.79 563.498 192.136 565.271 192.136ZM565.271 191.233C563.924 191.233 563.311 190.074 563.311 188.761C563.311 187.448 563.924 186.273 565.271 186.273C566.618 186.273 567.231 187.449 567.231 188.761C567.231 190.073 566.618 191.233 565.271 191.233ZM570.778 188.062C570.778 186.92 571.485 186.273 572.448 186.273C573.381 186.273 573.948 186.882 573.948 187.909V192H574.954V187.841C574.954 186.17 574.063 185.369 572.738 185.369C571.749 185.369 571.136 185.812 570.829 186.477H570.744V185.455H569.772V192H570.778V188.062V188.062ZM579.434 194.591C581.002 194.591 582.263 193.875 582.263 192.188V185.455H581.292V186.494H581.189C580.968 186.153 580.559 185.369 579.28 185.369C577.627 185.369 576.485 186.682 576.485 188.693C576.485 190.739 577.678 191.898 579.263 191.898C580.542 191.898 580.951 191.148 581.172 190.79H581.257V192.119C581.257 193.21 580.49 193.705 579.434 193.705C578.245 193.705 577.827 193.078 577.559 192.716L576.757 193.278C577.167 193.964 577.972 194.591 579.434 194.591V194.591ZM579.4 190.994C578.138 190.994 577.49 190.04 577.49 188.676C577.49 187.347 578.121 186.273 579.4 186.273C580.627 186.273 581.275 187.261 581.275 188.676C581.275 190.125 580.61 190.994 579.4 190.994Z" fill="url(#paint4_linear_23_857)"/>
    <path d="M364 143.5H664" stroke="#3B3B4E"/>
    <path d="M640 256H388C383.582 256 380 259.582 380 264V304C380 308.418 383.582 312 388 312H640C644.418 312 648 308.418 648 304V264C648 259.582 644.418 256 640 256Z" fill="#272736"/>
    <path d="M401 298.159C400.144 298.159 399.415 297.926 398.813 297.46C398.211 296.994 397.751 296.311 397.432 295.42C397.113 294.529 396.955 293.447 396.955 292.182C396.955 290.924 397.114 289.85 397.432 288.96C397.75 288.07 398.216 287.384 398.818 286.915C399.424 286.441 400.151 286.205 401 286.205C401.849 286.205 402.574 286.441 403.176 286.915C403.782 287.384 404.244 288.066 404.562 288.96C404.88 289.854 405.045 290.924 405.045 292.182C405.045 293.447 404.886 294.527 404.568 295.42C404.25 296.313 403.79 296.991 403.187 297.46C402.584 297.929 401.856 298.159 401 298.159V298.159ZM401 296.909C401.849 296.909 402.508 296.5 402.977 295.682C403.446 294.864 403.682 293.697 403.682 292.182C403.682 291.174 403.574 290.316 403.358 289.608C403.142 288.9 402.839 288.36 402.438 287.989C402.037 287.618 401.561 287.432 401.001 287.432C400.16 287.432 399.503 287.847 399.029 288.676C398.555 289.505 398.319 290.67 398.319 292.182C398.319 293.189 398.425 294.045 398.637 294.75C398.849 295.455 399.154 295.991 399.552 296.358C399.95 296.725 400.437 296.909 401.001 296.909H401ZM407.798 298.091C407.518 298.091 407.277 297.991 407.076 297.79C406.875 297.589 406.775 297.348 406.775 297.068C406.773 296.934 406.799 296.8 406.851 296.676C406.902 296.552 406.979 296.44 407.076 296.347C407.277 296.146 407.517 296.045 407.798 296.045C408.079 296.045 408.319 296.146 408.52 296.347C408.617 296.44 408.694 296.552 408.746 296.676C408.797 296.8 408.823 296.934 408.821 297.068C408.821 297.254 408.774 297.424 408.679 297.58C408.584 297.736 408.465 297.86 408.31 297.955C408.155 298.05 407.988 298.091 407.799 298.091H407.798ZM414.594 298.159C413.738 298.159 413.009 297.926 412.406 297.46C411.803 296.994 411.344 296.311 411.025 295.42C410.706 294.529 410.548 293.447 410.548 292.182C410.548 290.924 410.707 289.85 411.025 288.96C411.343 288.07 411.809 287.384 412.411 286.915C413.017 286.441 413.744 286.205 414.593 286.205C415.442 286.205 416.167 286.441 416.769 286.915C417.375 287.384 417.837 288.066 418.155 288.96C418.473 289.854 418.638 290.924 418.638 292.182C418.638 293.447 418.479 294.527 418.161 295.42C417.843 296.313 417.383 296.991 416.78 297.46C416.177 297.929 415.449 298.159 414.593 298.159H414.594ZM414.594 296.909C415.442 296.909 416.101 296.5 416.571 295.682C417.041 294.864 417.276 293.697 417.276 292.182C417.276 291.174 417.168 290.316 416.952 289.608C416.736 288.9 416.433 288.36 416.031 287.989C415.629 287.618 415.154 287.432 414.594 287.432C413.753 287.432 413.096 287.847 412.622 288.676C412.148 289.505 411.912 290.67 411.912 292.182C411.912 293.189 412.018 294.045 412.23 294.75C412.442 295.455 412.747 295.991 413.145 296.358C413.543 296.725 414.029 296.909 414.594 296.909V296.909ZM424.594 298.159C423.738 298.159 423.009 297.926 422.406 297.46C421.803 296.994 421.344 296.311 421.025 295.42C420.706 294.529 420.548 293.447 420.548 292.182C420.548 290.924 420.707 289.85 421.025 288.96C421.343 288.07 421.809 287.384 422.411 286.915C423.017 286.441 423.744 286.205 424.593 286.205C425.442 286.205 426.167 286.441 426.769 286.915C427.375 287.384 427.837 288.066 428.155 288.96C428.473 289.854 428.638 290.924 428.638 292.182C428.638 293.447 428.479 294.527 428.161 295.42C427.843 296.313 427.383 296.991 426.78 297.46C426.177 297.929 425.449 298.159 424.593 298.159H424.594ZM424.594 296.909C425.442 296.909 426.101 296.5 426.571 295.682C427.041 294.864 427.276 293.697 427.276 292.182C427.276 291.174 427.168 290.316 426.952 289.608C426.736 288.9 426.433 288.36 426.031 287.989C425.629 287.618 425.154 287.432 424.594 287.432C423.753 287.432 423.096 287.847 422.622 288.676C422.148 289.505 421.912 290.67 421.912 292.182C421.912 293.189 422.018 294.045 422.23 294.75C422.442 295.455 422.747 295.991 423.145 296.358C423.543 296.725 424.029 296.909 424.594 296.909V296.909ZM434.594 298.159C433.738 298.159 433.009 297.926 432.406 297.46C431.803 296.994 431.344 296.311 431.025 295.42C430.706 294.529 430.548 293.447 430.548 292.182C430.548 290.924 430.707 289.85 431.025 288.96C431.343 288.07 431.809 287.384 432.411 286.915C433.017 286.441 433.744 286.205 434.593 286.205C435.442 286.205 436.167 286.441 436.769 286.915C437.375 287.384 437.837 288.066 438.155 288.96C438.473 289.854 438.638 290.924 438.638 292.182C438.638 293.447 438.479 294.527 438.161 295.42C437.843 296.313 437.383 296.991 436.78 297.46C436.177 297.929 435.449 298.159 434.593 298.159H434.594ZM434.594 296.909C435.442 296.909 436.101 296.5 436.571 295.682C437.041 294.864 437.276 293.697 437.276 292.182C437.276 291.174 437.168 290.316 436.952 289.608C436.736 288.9 436.433 288.36 436.031 287.989C435.629 287.618 435.154 287.432 434.594 287.432C433.753 287.432 433.096 287.847 432.622 288.676C432.148 289.505 431.912 290.67 431.912 292.182C431.912 293.189 432.018 294.045 432.23 294.75C432.442 295.455 432.747 295.991 433.145 296.358C433.543 296.725 434.029 296.909 434.594 296.909V296.909ZM444.594 298.159C443.738 298.159 443.009 297.926 442.406 297.46C441.803 296.994 441.344 296.311 441.025 295.42C440.706 294.529 440.548 293.447 440.548 292.182C440.548 290.924 440.707 289.85 441.025 288.96C441.343 288.07 441.809 287.384 442.411 286.915C443.017 286.441 443.744 286.205 444.593 286.205C445.442 286.205 446.167 286.441 446.769 286.915C447.375 287.384 447.837 288.066 448.155 288.96C448.473 289.854 448.638 290.924 448.638 292.182C448.638 293.447 448.479 294.527 448.161 295.42C447.843 296.313 447.382 296.991 446.78 297.46C446.178 297.929 445.449 298.159 444.593 298.159H444.594ZM444.594 296.909C445.442 296.909 446.101 296.5 446.571 295.682C447.041 294.864 447.276 293.697 447.276 292.182C447.276 291.174 447.168 290.316 446.952 289.608C446.736 288.9 446.433 288.36 446.031 287.989C445.629 287.618 445.154 287.432 444.594 287.432C443.753 287.432 443.096 287.847 442.622 288.676C442.148 289.505 441.912 290.67 441.912 292.182C441.912 293.189 442.018 294.045 442.23 294.75C442.442 295.455 442.747 295.991 443.145 296.358C443.543 296.725 444.029 296.909 444.594 296.909V296.909ZM454.594 298.159C453.738 298.159 453.009 297.926 452.406 297.46C451.803 296.994 451.344 296.311 451.026 295.42C450.708 294.529 450.548 293.447 450.548 292.182C450.548 290.924 450.707 289.85 451.026 288.96C451.345 288.07 451.81 287.384 452.412 286.915C453.018 286.441 453.745 286.205 454.594 286.205C455.443 286.205 456.168 286.441 456.77 286.915C457.376 287.384 457.838 288.066 458.156 288.96C458.474 289.854 458.639 290.924 458.639 292.182C458.639 293.447 458.48 294.527 458.162 295.42C457.844 296.313 457.384 296.991 456.781 297.46C456.178 297.929 455.45 298.159 454.594 298.159ZM454.594 296.909C455.442 296.909 456.101 296.5 456.571 295.682C457.041 294.864 457.276 293.697 457.276 292.182C457.276 291.174 457.168 290.316 456.952 289.608C456.736 288.9 456.433 288.36 456.031 287.989C455.629 287.618 455.154 287.432 454.594 287.432C453.753 287.432 453.096 287.847 452.622 288.676C452.148 289.505 451.912 290.67 451.912 292.182C451.912 293.189 452.018 294.045 452.23 294.75C452.442 295.455 452.747 295.991 453.145 296.358C453.538 296.722 454.058 296.92 454.594 296.909V296.909Z" fill="white"/>
    <path d="M397.413 275H396.248L398.865 267.727H400.133L402.751 275H401.586L399.53 269.048H399.473L397.413 275ZM397.608 272.152H401.386V273.075H397.608V272.152ZM403.716 275V269.545H404.735V270.433H404.802C404.907 270.144 405.102 269.897 405.36 269.73C405.618 269.56 405.927 269.474 406.287 269.474C406.647 269.474 406.957 269.56 407.203 269.73C407.453 269.904 407.645 270.149 407.753 270.433H407.81C407.94 270.142 408.147 269.91 408.431 269.737C408.715 269.564 409.054 269.474 409.447 269.474C409.942 269.474 410.345 269.629 410.658 269.94C410.971 270.251 411.13 270.717 411.13 271.342V275H410.068V271.442C410.068 271.072 409.967 270.805 409.766 270.639C409.565 270.473 409.324 270.391 409.045 270.391C408.699 270.391 408.431 270.497 408.239 270.71C408.047 270.923 407.951 271.192 407.951 271.523V275H406.893V271.374C406.893 271.078 406.801 270.84 406.616 270.661C406.431 270.482 406.191 270.391 405.895 270.391C405.694 270.391 405.508 270.444 405.338 270.55C405.167 270.658 405.026 270.809 404.93 270.987C404.825 271.187 404.772 271.411 404.777 271.637V275H403.715H403.716ZM414.852 275.11C414.341 275.11 413.894 274.993 413.513 274.759C413.132 274.525 412.836 274.196 412.625 273.775C412.414 273.354 412.309 272.861 412.309 272.298C412.309 271.735 412.414 271.237 412.625 270.813C412.836 270.389 413.132 270.06 413.513 269.826C413.894 269.592 414.34 269.474 414.852 269.474C415.364 269.474 415.81 269.592 416.191 269.826C416.572 270.06 416.868 270.389 417.079 270.813C417.29 271.237 417.395 271.732 417.395 272.298C417.395 272.864 417.29 273.353 417.079 273.775C416.868 274.197 416.572 274.524 416.191 274.759C415.81 274.994 415.364 275.11 414.852 275.11ZM414.856 274.219C415.187 274.219 415.462 274.131 415.68 273.956C415.898 273.781 416.059 273.548 416.163 273.256C416.267 272.964 416.323 272.644 416.323 272.294C416.323 271.944 416.27 271.626 416.163 271.335C416.071 271.059 415.904 270.815 415.68 270.629C415.462 270.451 415.188 270.362 414.856 270.362C414.524 270.362 414.245 270.451 414.025 270.629C413.805 270.807 413.645 271.042 413.539 271.335C413.433 271.628 413.383 271.946 413.383 272.294C413.379 272.621 413.432 272.947 413.539 273.256C413.633 273.53 413.801 273.772 414.025 273.956C414.245 274.131 414.522 274.219 414.856 274.219ZM422.036 272.738V269.545H423.1V275H422.056V274.055H421.999C421.871 274.35 421.661 274.602 421.395 274.783C421.118 274.977 420.778 275.071 420.369 275.071C420.019 275.071 419.709 274.994 419.439 274.84C419.169 274.686 418.961 274.453 418.807 274.148C418.653 273.843 418.58 273.465 418.58 273.015V269.545H419.642V272.887C419.642 273.259 419.745 273.555 419.951 273.775C420.157 273.995 420.424 274.105 420.754 274.105C420.953 274.105 421.151 274.055 421.347 273.956C421.543 273.857 421.71 273.706 421.841 273.505C421.972 273.304 422.039 273.048 422.036 272.738V272.738ZM425.59 271.761V275H424.528V269.545H425.547V270.433H425.614C425.737 270.147 425.942 269.905 426.204 269.737C426.472 269.562 426.814 269.474 427.223 269.474C427.564 269.467 427.9 269.548 428.2 269.709C428.479 269.863 428.696 270.092 428.85 270.398C429.004 270.704 429.081 271.081 429.081 271.531V275H428.019V271.658C428.019 271.263 427.916 270.954 427.71 270.732C427.504 270.51 427.221 270.394 426.861 270.394C426.615 270.394 426.396 270.447 426.204 270.554C426.012 270.661 425.864 270.817 425.753 271.023C425.642 271.229 425.59 271.473 425.59 271.761V271.761ZM433.051 269.545V270.398H430.07V269.545H433.049H433.051ZM430.871 268.239H431.933V273.398C431.933 273.604 431.964 273.759 432.025 273.864C432.086 273.969 432.166 274.035 432.263 274.073C432.367 274.109 432.476 274.127 432.586 274.126C432.661 274.127 432.736 274.122 432.81 274.109L432.959 274.08L433.151 274.957C433.09 274.981 433.002 275.005 432.888 275.028C432.748 275.056 432.605 275.07 432.462 275.071C432.183 275.076 431.922 275.026 431.681 274.922C431.443 274.821 431.24 274.653 431.095 274.439C430.946 274.221 430.871 273.948 430.871 273.619V268.239V268.239ZM608.842 288V279.273H612.038C612.657 279.273 613.17 279.375 613.576 279.58C613.982 279.785 614.286 280.055 614.488 280.402C614.692 280.755 614.796 281.157 614.79 281.565C614.79 281.929 614.724 282.236 614.59 282.486C614.464 282.727 614.279 282.932 614.053 283.082C613.829 283.231 613.581 283.341 613.32 283.406V283.491C613.61 283.506 613.893 283.599 614.168 283.773C614.455 283.955 614.692 284.205 614.859 284.501C615.041 284.816 615.131 285.2 615.131 285.652C615.131 286.098 615.026 286.499 614.816 286.854C614.606 287.209 614.288 287.486 613.853 287.693C613.418 287.9 612.863 288 612.187 288H608.842V288ZM610.158 286.871H612.059C612.69 286.871 613.141 286.749 613.414 286.504C613.687 286.259 613.823 285.955 613.823 285.588C613.823 285.312 613.754 285.06 613.614 284.83C613.474 284.6 613.276 284.416 613.018 284.28C612.76 284.144 612.458 284.075 612.106 284.075H610.158V286.871V286.871ZM610.158 283.048H611.923C612.218 283.048 612.484 282.991 612.719 282.878C612.954 282.765 613.147 282.605 613.286 282.401C613.43 282.184 613.504 281.928 613.499 281.668C613.503 281.499 613.471 281.33 613.406 281.174C613.341 281.017 613.243 280.876 613.12 280.76C612.867 280.516 612.479 280.393 611.957 280.393H610.158V283.048V283.048ZM616.263 280.406V279.273H623.017V280.406H620.294V288H618.982V280.406H616.263ZM631.383 282.111H630.054C630.002 281.827 629.907 281.577 629.768 281.361C629.632 281.149 629.459 280.962 629.257 280.811C629.052 280.659 628.823 280.544 628.579 280.47C628.332 280.393 628.069 280.355 627.791 280.355C627.288 280.355 626.838 280.482 626.44 280.734C626.042 280.986 625.733 281.358 625.502 281.847C625.271 282.336 625.162 282.932 625.162 283.636C625.162 284.347 625.275 284.946 625.502 285.435C625.729 285.924 626.047 286.293 626.444 286.543C626.846 286.794 627.313 286.925 627.787 286.918C628.052 286.92 628.317 286.882 628.571 286.807C628.814 286.734 629.043 286.62 629.248 286.47C629.45 286.322 629.623 286.139 629.76 285.929C629.902 285.713 630 285.466 630.054 285.188L631.383 285.192C631.317 285.608 631.177 286.009 630.97 286.376C630.77 286.732 630.506 287.047 630.19 287.305C629.875 287.564 629.514 287.764 629.108 287.906C628.68 288.052 628.23 288.124 627.778 288.119C627.022 288.119 626.349 287.94 625.758 287.582C625.167 287.224 624.701 286.706 624.36 286.036C624.019 285.366 623.853 284.565 623.853 283.636C623.853 282.707 624.024 281.905 624.365 281.237C624.706 280.569 625.172 280.053 625.762 279.695C626.352 279.337 627.025 279.153 627.778 279.153C628.241 279.153 628.673 279.22 629.074 279.354C629.468 279.48 629.836 279.676 630.16 279.933C630.481 280.186 630.747 280.496 630.957 280.862C631.175 281.249 631.319 281.672 631.383 282.111V282.111Z" fill="#636383"/>
    <path d="M405.065 328H388C383.582 328 380 331.582 380 336V352C380 356.418 383.582 360 388 360H405.065C409.483 360 413.065 356.418 413.065 352V336C413.065 331.582 409.483 328 405.065 328Z" fill="#272736"/>
    <path d="M389.033 348.121C390.713 348.121 391.696 346.75 391.696 344.367C391.696 342.002 390.698 340.628 389.033 340.628C387.368 340.628 386.37 341.999 386.366 344.367C386.366 346.746 387.35 348.117 389.033 348.121ZM389.033 347.173C388.049 347.173 387.456 346.185 387.456 344.367C387.459 342.556 388.053 341.558 389.033 341.558C390.013 341.558 390.606 342.556 390.606 344.367C390.606 346.185 390.013 347.173 389.033 347.173ZM393.397 348.067C393.784 348.067 394.107 347.751 394.107 347.357C394.107 346.97 393.784 346.651 393.397 346.651C393.21 346.651 393.03 346.725 392.897 346.857C392.764 346.99 392.688 347.169 392.687 347.357C392.687 347.545 392.762 347.726 392.895 347.859C393.028 347.992 393.209 348.067 393.397 348.067V348.067ZM397.774 348.121C399.454 348.121 400.437 346.75 400.437 344.367C400.437 342.002 399.439 340.628 397.774 340.628C396.109 340.628 395.111 341.999 395.107 344.367C395.107 346.746 396.091 348.117 397.774 348.121ZM397.774 347.173C396.79 347.173 396.197 346.185 396.197 344.367C396.201 342.556 396.794 341.558 397.774 341.558C398.754 341.558 399.347 342.556 399.347 344.367C399.347 346.185 398.754 347.173 397.774 347.173ZM404.098 348.099C405.561 348.099 406.605 347.066 406.602 345.649C406.606 344.243 405.625 343.22 404.301 343.22C403.761 343.22 403.26 343.426 402.976 343.703H402.933L403.164 341.668H406.25V340.727H402.251L401.843 344.392L402.848 344.541C403.121 344.296 403.612 344.129 404.052 344.129C404.915 344.136 405.54 344.783 405.54 345.67C405.54 346.544 404.933 347.176 404.098 347.176C403.395 347.176 402.837 346.729 402.78 346.104H401.715C401.758 347.261 402.763 348.099 404.098 348.099V348.099Z" fill="#636383"/>
    <path d="M448.571 328H431.506C427.088 328 423.506 331.582 423.506 336V352C423.506 356.418 427.088 360 431.506 360H448.571C452.989 360 456.571 356.418 456.571 352V336C456.571 331.582 452.989 328 448.571 328Z" fill="#272736"/>
    <path d="M434.073 348.121C435.753 348.121 436.736 346.75 436.736 344.367C436.736 342.002 435.738 340.628 434.073 340.628C432.408 340.628 431.41 341.999 431.406 344.367C431.406 346.746 432.39 348.117 434.073 348.121ZM434.073 347.173C433.089 347.173 432.496 346.185 432.496 344.367C432.5 342.556 433.093 341.558 434.073 341.558C435.053 341.558 435.646 342.556 435.646 344.367C435.646 346.185 435.053 347.173 434.073 347.173ZM438.437 348.067C438.824 348.067 439.147 347.751 439.147 347.357C439.147 346.97 438.824 346.651 438.437 346.651C438.25 346.651 438.07 346.725 437.937 346.857C437.804 346.99 437.728 347.169 437.727 347.357C437.727 347.545 437.802 347.726 437.935 347.859C438.068 347.992 438.249 348.067 438.437 348.067V348.067ZM442.436 340.727H441.367L439.552 341.913V342.964L441.292 341.828H441.335V348H442.436V340.727V340.727ZM446.935 348.121C448.614 348.121 449.598 346.75 449.598 344.367C449.598 342.002 448.6 340.628 446.935 340.628C445.27 340.628 444.272 341.999 444.268 344.367C444.268 346.746 445.252 348.117 446.935 348.121ZM446.935 347.173C445.951 347.173 445.358 346.185 445.358 344.367C445.362 342.556 445.954 341.558 446.935 341.558C447.916 341.558 448.508 342.556 448.508 344.367C448.508 346.185 447.915 347.173 446.935 347.173Z" fill="#636383"/>
    <path d="M492.078 328H475.013C470.594 328 467.013 331.582 467.013 336V352C467.013 356.418 470.594 360 475.013 360H492.078C496.496 360 500.078 356.418 500.078 352V336C500.078 331.582 496.496 328 492.078 328Z" fill="#272736"/>
    <path d="M476.058 348.121C477.737 348.121 478.721 346.75 478.721 344.367C478.721 342.002 477.723 340.628 476.058 340.628C474.393 340.628 473.394 341.999 473.391 344.367C473.391 346.746 474.374 348.117 476.058 348.121ZM476.058 347.173C475.074 347.173 474.481 346.185 474.481 344.367C474.485 342.556 475.078 341.558 476.058 341.558C477.038 341.558 477.631 342.556 477.631 344.367C477.631 346.185 477.038 347.173 476.058 347.173ZM480.421 348.067C480.808 348.067 481.131 347.751 481.131 347.357C481.131 346.97 480.808 346.651 480.421 346.651C480.233 346.651 480.053 346.725 479.92 346.857C479.787 346.99 479.712 347.169 479.711 347.357C479.711 347.545 479.785 347.726 479.919 347.859C480.052 347.992 480.232 348.067 480.421 348.067V348.067ZM482.539 348H487.326V347.059H484.052V347.006L485.498 345.493C486.829 344.147 487.209 343.504 487.209 342.691C487.209 341.523 486.257 340.628 484.887 340.628C483.527 340.628 482.532 341.509 482.532 342.837H483.58C483.576 342.055 484.081 341.544 484.865 341.544C485.604 341.544 486.165 341.999 486.165 342.723C486.165 343.366 485.782 343.827 485 344.655L482.539 347.205V348V348ZM491.073 348.099C492.536 348.099 493.58 347.066 493.576 345.649C493.58 344.243 492.6 343.22 491.275 343.22C490.735 343.22 490.235 343.426 489.951 343.703H489.908L490.139 341.668H493.225V340.727H489.226L488.818 344.392L489.823 344.541C490.096 344.296 490.586 344.129 491.027 344.129C491.89 344.136 492.515 344.783 492.515 345.67C492.515 346.544 491.907 347.176 491.073 347.176C490.37 347.176 489.812 346.729 489.755 346.104H488.69C488.733 347.261 489.738 348.099 491.073 348.099V348.099Z" fill="#636383"/>
    <path d="M535.585 328H518.52C514.101 328 510.52 331.582 510.52 336V352C510.52 356.418 514.101 360 518.52 360H535.585C540.003 360 543.585 356.418 543.585 352V336C543.585 331.582 540.003 328 535.585 328Z" fill="#272736"/>
    <path d="M519.955 348.121C521.635 348.121 522.619 346.75 522.619 344.367C522.619 342.002 521.621 340.628 519.955 340.628C518.289 340.628 517.292 341.999 517.288 344.367C517.288 346.746 518.272 348.117 519.955 348.121ZM519.955 347.173C518.972 347.173 518.378 346.185 518.378 344.367C518.382 342.556 518.975 341.558 519.955 341.558C520.935 341.558 521.528 342.556 521.528 344.367C521.528 346.185 520.935 347.173 519.955 347.173ZM524.319 348.067C524.706 348.067 525.029 347.751 525.029 347.357C525.029 346.97 524.706 346.651 524.319 346.651C524.131 346.651 523.951 346.725 523.818 346.857C523.685 346.989 523.609 347.169 523.608 347.357C523.608 347.45 523.626 347.543 523.662 347.629C523.698 347.715 523.75 347.793 523.816 347.859C523.882 347.925 523.961 347.978 524.047 348.013C524.133 348.049 524.226 348.067 524.319 348.067V348.067ZM528.72 348.099C530.183 348.099 531.227 347.066 531.224 345.649C531.227 344.243 530.247 343.22 528.923 343.22C528.383 343.22 527.882 343.426 527.598 343.703H527.555L527.786 341.668H530.872V340.727H526.874L526.465 344.392L527.47 344.541C527.744 344.296 528.234 344.129 528.674 344.129C529.537 344.136 530.162 344.783 530.162 345.67C530.162 346.544 529.555 347.176 528.72 347.176C528.017 347.176 527.46 346.729 527.403 346.104H526.337C526.38 347.261 527.385 348.099 528.72 348.099V348.099ZM535.053 348.121C536.733 348.121 537.716 346.75 537.716 344.367C537.716 342.002 536.718 340.628 535.053 340.628C533.388 340.628 532.389 341.999 532.386 344.367C532.386 346.746 533.37 348.117 535.053 348.121ZM535.053 347.173C534.069 347.173 533.476 346.185 533.476 344.367C533.48 342.556 534.073 341.558 535.053 341.558C536.033 341.558 536.626 342.556 536.626 344.367C536.626 346.185 536.033 347.173 535.053 347.173Z" fill="#636383"/>
    <path d="M579.091 328H562.026C557.608 328 554.026 331.582 554.026 336V352C554.026 356.418 557.608 360 562.026 360H579.091C583.51 360 587.091 356.418 587.091 352V336C587.091 331.582 583.51 328 579.091 328Z" fill="#272736"/>
    <path d="M564.066 340.727H562.997L561.183 341.913V342.964L562.923 341.828H562.965V348H564.066V340.727V340.727ZM566.337 348.067C566.724 348.067 567.047 347.751 567.047 347.357C567.047 346.97 566.724 346.651 566.337 346.651C566.149 346.651 565.969 346.725 565.836 346.857C565.703 346.99 565.628 347.169 565.627 347.357C565.627 347.545 565.701 347.726 565.835 347.859C565.968 347.992 566.148 348.067 566.337 348.067ZM570.714 348.121C572.394 348.121 573.377 346.75 573.377 344.367C573.377 342.002 572.379 340.628 570.714 340.628C569.049 340.628 568.051 341.999 568.047 344.367C568.047 346.746 569.031 348.117 570.714 348.121ZM570.714 347.173C569.73 347.173 569.137 346.185 569.137 344.367C569.141 342.556 569.734 341.558 570.714 341.558C571.694 341.558 572.287 342.556 572.287 344.367C572.287 346.185 571.694 347.173 570.714 347.173ZM577.169 348.121C578.849 348.121 579.832 346.75 579.832 344.367C579.832 342.002 578.835 340.628 577.169 340.628C575.503 340.628 574.506 341.999 574.502 344.367C574.502 346.746 575.486 348.117 577.169 348.121ZM577.169 347.173C576.185 347.173 575.592 346.185 575.592 344.367C575.596 342.556 576.189 341.558 577.169 341.558C578.149 341.558 578.742 342.556 578.742 344.367C578.742 346.185 578.149 347.173 577.169 347.173Z" fill="#636383"/>
    <path d="M640 328H605.532C601.114 328 597.532 331.582 597.532 336V352C597.532 356.418 601.114 360 605.532 360H640C644.419 360 648 356.418 648 352V336C648 331.582 644.419 328 640 328Z" fill="#0085FF" fill-opacity="0.15"/>
    <path d="M611.06 343.025H612.185C611.94 341.608 610.729 340.628 609.16 340.628C607.278 340.628 605.903 342.045 605.903 344.367C605.903 346.668 607.239 348.099 609.21 348.099C610.975 348.099 612.235 346.942 612.235 345.106V344.278H609.377V345.184H611.173C611.149 346.356 610.374 347.098 609.21 347.098C607.928 347.098 606.994 346.129 606.994 344.36C606.994 342.599 607.935 341.629 609.167 341.629C610.133 341.629 610.786 342.162 611.06 343.025V343.025ZM615.894 348.11C617.083 348.11 617.925 347.524 618.166 346.636L617.161 346.455C616.97 346.97 616.508 347.233 615.904 347.233C614.995 347.233 614.384 346.643 614.356 345.592H618.234V345.216C618.234 343.245 617.055 342.474 615.819 342.474C614.299 342.474 613.298 343.632 613.298 345.308C613.298 347.002 614.285 348.11 615.894 348.11V348.11ZM614.36 344.797C614.402 344.023 614.963 343.352 615.826 343.352C616.65 343.352 617.19 343.962 617.193 344.797H614.36ZM621.958 342.545H620.84V341.239H619.778V342.545H618.979V343.398H619.778V346.619C619.774 347.609 620.531 348.089 621.369 348.071C621.706 348.067 621.933 348.004 622.058 347.957L621.866 347.08C621.795 347.094 621.663 347.126 621.493 347.126C621.149 347.126 620.84 347.013 620.84 346.398V343.398H621.958V342.545ZM628.375 342.545H627.2V342.055C627.2 341.572 627.399 341.31 627.917 341.31C628.137 341.31 628.293 341.359 628.393 341.391L628.641 340.532C628.492 340.475 628.183 340.386 627.754 340.386C626.891 340.386 626.134 340.891 626.134 341.913V342.545H625.293V343.398H626.134V348H627.2V343.398H628.375V342.545V342.545ZM630.532 340.727H629.471V348H630.532V340.727ZM633.548 348.121C634.45 348.121 634.958 347.663 635.16 347.254H635.203V348H636.24V344.378C636.24 342.79 634.99 342.474 634.123 342.474C633.136 342.474 632.227 342.872 631.872 343.866L632.87 344.094C633.026 343.707 633.424 343.334 634.138 343.334C634.823 343.334 635.175 343.692 635.175 344.31V344.335C635.175 344.722 634.777 344.715 633.797 344.829C632.763 344.95 631.705 345.219 631.705 346.459C631.705 347.531 632.511 348.121 633.548 348.121ZM633.779 347.268C633.179 347.268 632.746 346.999 632.746 346.473C632.746 345.905 633.25 345.702 633.864 345.621C634.209 345.575 635.025 345.482 635.178 345.33V346.033C635.178 346.679 634.663 347.268 633.779 347.268ZM640.2 342.545H639.082V341.239H638.02V342.545H637.221V343.398H638.02V346.619C638.016 347.609 638.773 348.089 639.611 348.071C639.948 348.067 640.176 348.004 640.3 347.957L640.108 347.08C640.037 347.094 639.906 347.126 639.735 347.126C639.391 347.126 639.082 347.013 639.082 346.398V343.398H640.2V342.545Z" fill="#0085FF"/>
    <path d="M628.211 387.727V395H629.255V389.734H629.323L631.468 394.989H632.334L634.479 389.737H634.546V395H635.59V387.727H634.259L631.943 393.381H631.858L629.543 387.727H628.211V387.727ZM638.688 395.121C639.59 395.121 640.098 394.663 640.3 394.254H640.343V395H641.38V391.378C641.38 389.79 640.13 389.474 639.263 389.474C638.276 389.474 637.367 389.872 637.012 390.866L638.01 391.094C638.166 390.707 638.564 390.334 639.277 390.334C639.963 390.334 640.314 390.692 640.314 391.31V391.335C640.314 391.722 639.917 391.715 638.936 391.829C637.903 391.95 636.845 392.219 636.845 393.459C636.845 394.531 637.651 395.121 638.688 395.121ZM638.919 394.268C638.319 394.268 637.885 393.999 637.885 393.473C637.885 392.905 638.39 392.702 639.004 392.621C639.348 392.575 640.165 392.482 640.318 392.33V393.033C640.318 393.679 639.803 394.268 638.919 394.268V394.268ZM643.632 389.545H642.467L644.143 392.273L642.446 395H643.611L644.836 392.962L646.064 395H647.226L645.51 392.273L647.211 389.545H646.05L644.836 391.669L643.632 389.545ZM381.078 387.727V395H382.122V389.734H382.189L384.334 394.989H385.201L387.346 389.737H387.413V395H388.457V387.727H387.125L384.81 393.381H384.725L382.41 387.727H381.078ZM389.968 395H391.03V389.545H389.968V395ZM390.504 388.704C390.87 388.704 391.175 388.42 391.175 388.072C391.175 387.724 390.87 387.436 390.504 387.436C390.138 387.436 389.833 387.724 389.833 388.072C389.833 388.42 390.135 388.704 390.504 388.704ZM393.52 391.761C393.52 390.891 394.053 390.394 394.791 390.394C395.512 390.394 395.949 390.866 395.949 391.658V395H397.011V391.531C397.011 390.181 396.269 389.474 395.154 389.474C394.334 389.474 393.798 389.854 393.545 390.433H393.477V389.545H392.458V395H393.52V391.761Z" fill="#636383"/>
    <path d="M647 407H384C383.448 407 383 407.448 383 408C383 408.552 383.448 409 384 409H647C647.552 409 648 408.552 648 408C648 407.448 647.552 407 647 407Z" fill="#3B3B4E"/>
    <path d="M448 407H381C380.448 407 380 407.448 380 408C380 408.552 380.448 409 381 409H448C448.552 409 449 408.552 449 408C449 407.448 448.552 407 448 407Z" fill="#0085FF"/>
    <path d="M452 416C456.418 416 460 412.418 460 408C460 403.582 456.418 400 452 400C447.582 400 444 403.582 444 408C444 412.418 447.582 416 452 416Z" fill="#1E4D79"/>
    <g filter="url(#filter0_d_23_857)">
        <path d="M452 412C454.209 412 456 410.209 456 408C456 405.791 454.209 404 452 404C449.791 404 448 405.791 448 408C448 410.209 449.791 412 452 412Z" fill="#0085FF"/>
        <path d="M452 411.5C453.933 411.5 455.5 409.933 455.5 408C455.5 406.067 453.933 404.5 452 404.5C450.067 404.5 448.5 406.067 448.5 408C448.5 409.933 450.067 411.5 452 411.5Z" stroke="white" stroke-opacity="0.15"/>
    </g>
    <path d="M564.5 80V143M464.5 80V143V80ZM364.5 80V143V80Z" stroke="#3B3B4E"/>
    <path d="M364 79H465V144H364V79Z" fill="#0085FF" fill-opacity="0.05"/>
    <path d="M364 142H465V144H364V142ZM391.233 106.818V117H392.386V109.264H392.485L395.668 117H396.782L399.964 109.264H400.063V117H401.216V106.818H399.744L396.284 115.27H396.165L392.705 106.818H391.233V106.818ZM405.776 117.179C407.108 117.179 407.804 116.463 408.043 115.966H408.103V117H409.276V111.969C409.276 109.543 407.427 109.264 406.452 109.264C405.299 109.264 403.986 109.662 403.39 111.054L404.504 111.452C404.762 110.895 405.374 110.298 406.493 110.298C407.572 110.298 408.104 110.87 408.104 111.849V111.889C408.104 112.456 407.527 112.406 406.135 112.585C404.718 112.769 403.172 113.082 403.172 114.832C403.172 116.324 404.325 117.179 405.777 117.179H405.776ZM405.955 116.125C405.02 116.125 404.344 115.707 404.344 114.892C404.344 113.997 405.159 113.719 406.074 113.599C406.571 113.54 407.904 113.401 408.102 113.162V114.236C408.102 115.19 407.346 116.125 405.954 116.125H405.955ZM411.417 117H412.59V112.168C412.59 111.134 413.405 110.378 414.519 110.378C414.76 110.381 415 110.407 415.235 110.457V109.264L414.618 109.244C413.703 109.244 412.908 109.761 412.629 110.517H412.549V109.364H411.415V117H411.417ZM416.626 117H417.8V114.141L418.62 113.381L421.479 117H422.97L419.505 112.625L422.732 109.364H421.28L417.939 112.764H417.8V106.818H416.627V117H416.626ZM427.128 117.159C428.679 117.159 429.813 116.384 430.171 115.23L429.038 114.912C428.74 115.707 428.049 116.105 427.129 116.105C425.752 116.105 424.802 115.215 424.748 113.58H430.291V113.082C430.291 110.239 428.601 109.264 427.01 109.264C424.942 109.264 423.57 110.895 423.57 113.241C423.57 115.587 424.922 117.159 427.13 117.159H427.128ZM424.747 112.565C424.827 111.377 425.667 110.318 427.009 110.318C428.282 110.318 429.097 111.273 429.097 112.565H424.747ZM435.396 109.364H433.765V107.534H432.592V109.364H431.44V110.358H432.593V115.131C432.593 116.463 433.667 117.099 434.661 117.099C435.099 117.099 435.377 117.02 435.536 116.96L435.297 115.906C435.198 115.926 435.039 115.966 434.78 115.966C434.263 115.966 433.766 115.807 433.766 114.812V110.358H435.397V109.364H435.396Z" fill="#0085FF"/>
    <path d="M304 193H28C12.536 193 0 205.536 0 221V432C0 447.464 12.536 460 28 460H304C319.464 460 332 447.464 332 432V221C332 205.536 319.464 193 304 193Z" fill="white" fill-opacity="0.1"/>
    <path d="M300 209H32C23.1634 209 16 216.163 16 225V428C16 436.837 23.1634 444 32 444H300C308.837 444 316 436.837 316 428V225C316 216.163 308.837 209 300 209Z" fill="#21212E"/>
    <path d="M284 233.5H48C39.4396 233.5 32.5 240.44 32.5 249V333C32.5 341.56 39.4396 348.5 48 348.5H284C292.56 348.5 299.5 341.56 299.5 333V249C299.5 240.44 292.56 233.5 284 233.5Z" fill="#272736"/>
    <path d="M49.2334 285.818V296H50.3864V288.264H50.4854L53.6684 296H54.7824L57.9644 288.264H58.0634V296H59.2164V285.818H57.7444L54.2844 294.27H54.1654L50.7054 285.818H49.2334V285.818ZM63.7764 296.179C65.1084 296.179 65.8044 295.463 66.0434 294.966H66.1034V296H67.2764V290.969C67.2764 288.543 65.4274 288.264 64.4524 288.264C63.2994 288.264 61.9864 288.662 61.3894 290.054L62.5034 290.452C62.7614 289.895 63.3734 289.299 64.4924 289.299C65.5714 289.299 66.1034 289.871 66.1034 290.85V290.89C66.1034 291.457 65.5264 291.407 64.1344 291.586C62.7174 291.77 61.1714 292.083 61.1714 293.833C61.1714 295.325 62.3244 296.18 63.7764 296.18V296.179ZM63.9554 295.125C63.0204 295.125 62.3444 294.707 62.3444 293.892C62.3444 292.997 63.1594 292.719 64.0744 292.599C64.5714 292.539 65.9034 292.4 66.1024 292.162V293.236C66.1024 294.19 65.3464 295.125 63.9544 295.125H63.9554ZM69.4174 296H70.5904V291.168C70.5904 290.134 71.4054 289.378 72.5194 289.378C72.8324 289.378 73.1554 289.438 73.2354 289.458V288.265L72.6184 288.245C71.7034 288.245 70.9084 288.762 70.6294 289.518H70.5494V288.365H69.4154V296H69.4174ZM77.4764 299.023C79.3054 299.023 80.7774 298.188 80.7774 296.219V288.364H79.6444V289.577H79.5254C79.2664 289.179 78.7894 288.265 77.2984 288.265C75.3694 288.265 74.0374 289.796 74.0374 292.143C74.0374 294.529 75.4294 295.882 77.2794 295.882C78.7714 295.882 79.2484 295.007 79.5064 294.589H79.6054V296.14C79.6054 297.413 78.7104 297.99 77.4774 297.99C76.0904 297.99 75.6034 297.259 75.2904 296.836L74.3554 297.492C74.8324 298.293 75.7724 299.024 77.4774 299.024L77.4764 299.023ZM77.4364 294.827C75.9644 294.827 75.2094 293.713 75.2094 292.122C75.2094 290.571 75.9454 289.318 77.4364 289.318C78.8684 289.318 79.6244 290.471 79.6244 292.122C79.6244 293.812 78.8484 294.827 77.4374 294.827H77.4364ZM82.9254 296H84.0984V288.364H82.9254V296ZM83.5224 287.091C83.9794 287.091 84.3574 286.733 84.3574 286.296C84.3574 285.859 83.9794 285.5 83.5224 285.5C83.0654 285.5 82.6874 285.858 82.6874 286.296C82.6874 286.734 83.0654 287.091 83.5224 287.091ZM87.4214 291.406C87.4214 290.074 88.2464 289.318 89.3704 289.318C90.4594 289.318 91.1204 290.029 91.1204 291.227V296H92.2934V291.148C92.2934 289.199 91.2544 288.265 89.7084 288.265C88.5554 288.265 87.8394 288.782 87.4814 289.558H87.3824V288.365H86.2484V296H87.4214V291.406V291.406ZM101.477 296.159C103.167 296.159 104.281 295.125 104.48 293.773H103.306C103.088 294.608 102.392 295.105 101.477 295.105C100.085 295.105 99.1904 293.952 99.1904 292.182C99.1904 290.452 100.105 289.318 101.477 289.318C102.511 289.318 103.127 289.954 103.306 290.65H104.48C104.281 289.218 103.068 288.264 101.457 288.264C99.3894 288.264 98.0174 289.895 98.0174 292.221C98.0174 294.508 99.3304 296.158 101.477 296.158V296.159ZM107.368 291.406C107.368 290.074 108.218 289.318 109.377 289.318C110.48 289.318 111.147 290.014 111.147 291.227V296H112.32V291.148C112.32 289.184 111.276 288.265 109.715 288.265C108.512 288.265 107.826 288.767 107.468 289.558H107.368V285.819H106.195V296H107.368V291.406V291.406ZM116.714 296.179C118.046 296.179 118.742 295.463 118.981 294.966H119.04V296H120.214V290.969C120.214 288.543 118.364 288.264 117.39 288.264C116.236 288.264 114.924 288.662 114.327 290.054L115.441 290.452C115.699 289.895 116.311 289.299 117.43 289.299C118.508 289.299 119.04 289.871 119.04 290.85V290.89C119.04 291.457 118.464 291.407 117.072 291.586C115.655 291.77 114.108 292.083 114.108 293.833C114.108 295.325 115.262 296.18 116.714 296.18V296.179ZM116.893 295.125C115.958 295.125 115.282 294.707 115.282 293.892C115.282 292.997 116.097 292.719 117.012 292.599C117.509 292.539 118.841 292.4 119.04 292.162V293.236C119.04 294.19 118.285 295.125 116.893 295.125V295.125ZM123.528 291.406C123.528 290.074 124.354 289.318 125.477 289.318C126.566 289.318 127.227 290.029 127.227 291.227V296H128.401V291.148C128.401 289.199 127.362 288.265 125.815 288.265C124.662 288.265 123.946 288.782 123.588 289.558H123.489V288.365H122.355V296H123.528V291.406V291.406ZM133.627 299.023C135.456 299.023 136.928 298.188 136.928 296.219V288.364H135.795V289.577H135.675C135.417 289.179 134.939 288.265 133.448 288.265C131.519 288.265 130.187 289.796 130.187 292.143C130.187 294.529 131.579 295.882 133.428 295.882C134.92 295.882 135.397 295.007 135.655 294.589H135.755V296.14C135.755 297.413 134.86 297.99 133.627 297.99C132.24 297.99 131.753 297.259 131.439 296.836L130.505 297.492C130.982 298.293 131.922 299.024 133.627 299.024V299.023ZM133.587 294.827C132.116 294.827 131.36 293.713 131.36 292.122C131.36 290.571 132.096 289.318 133.587 289.318C135.019 289.318 135.775 290.471 135.775 292.122C135.775 293.812 134.999 294.827 133.587 294.827ZM142.278 296.159C143.829 296.159 144.962 295.384 145.32 294.23L144.187 293.912C143.888 294.707 143.197 295.105 142.278 295.105C140.9 295.105 139.951 294.215 139.896 292.579H145.439V292.082C145.439 289.238 143.749 288.264 142.158 288.264C140.09 288.264 138.718 289.895 138.718 292.241C138.718 294.587 140.07 296.159 142.278 296.159V296.159ZM139.896 291.565C139.976 290.377 140.816 289.318 142.158 289.318C143.431 289.318 144.246 290.272 144.246 291.565H139.896ZM49.2334 328H52.9124C55.3184 328 56.3134 326.827 56.3134 325.295C56.3134 323.685 55.1994 322.81 54.2654 322.75V322.651C55.1404 322.412 55.9164 321.835 55.9164 320.523C55.9164 319.031 54.9224 317.818 52.7944 317.818H49.2344V328H49.2334ZM50.4664 326.906V323.366H52.9724C54.3044 323.366 55.1404 324.261 55.1404 325.295C55.1404 326.19 54.5234 326.906 52.9134 326.906H50.4674H50.4664ZM50.4664 322.293V318.912H52.7934C54.1454 318.912 54.7424 319.628 54.7424 320.523C54.7424 321.597 53.8674 322.293 52.7534 322.293H50.4664ZM62.9924 324.878C62.9924 326.31 61.8984 326.966 61.0234 326.966C60.0494 326.966 59.3534 326.25 59.3534 325.136V320.364H58.1804V325.216C58.1804 327.165 59.2144 328.099 60.6464 328.099C61.7994 328.099 62.5554 327.483 62.9134 326.707H62.9924V328H64.1654V320.364H62.9924V324.878V324.878ZM67.0704 330.864C68.1294 330.864 68.8754 330.302 69.3174 329.114L72.5684 320.384L71.2854 320.364L69.1774 326.449H69.0984L66.9904 320.364H65.7174L68.5414 328.04L68.3224 328.636C67.8954 329.8 67.3684 329.909 66.5124 329.69L66.2144 330.724C66.3334 330.784 66.6714 330.864 67.0694 330.864H67.0704ZM74.1214 328H75.2944V320.364H74.1214V328ZM74.7184 319.091C75.1754 319.091 75.5534 318.733 75.5534 318.295C75.5534 317.857 75.1754 317.5 74.7184 317.5C74.2614 317.5 73.8834 317.858 73.8834 318.295C73.8834 318.732 74.2614 319.091 74.7184 319.091ZM78.6174 323.406C78.6174 322.074 79.4424 321.318 80.5664 321.318C81.6554 321.318 82.3164 322.029 82.3164 323.227V328H83.4894V323.148C83.4894 321.199 82.4504 320.264 80.9044 320.264C79.7514 320.264 79.0354 320.781 78.6774 321.557H78.5774V320.364H77.4444V328H78.6174V323.406V323.406ZM88.7164 331.023C90.5464 331.023 92.0174 330.188 92.0174 328.219V320.364H90.8834V321.577H90.7644C90.5064 321.179 90.0284 320.264 88.5374 320.264C86.6084 320.264 85.2764 321.795 85.2764 324.142C85.2764 326.528 86.6684 327.881 88.5184 327.881C90.0094 327.881 90.4874 327.006 90.7454 326.588H90.8444V328.139C90.8444 329.412 89.9494 329.989 88.7164 329.989C87.3294 329.989 86.8424 329.258 86.5294 328.835L85.5944 329.491C86.0714 330.292 87.0114 331.023 88.7164 331.023V331.023ZM88.6764 326.827C87.2044 326.827 86.4494 325.713 86.4494 324.122C86.4494 322.571 87.1854 321.318 88.6764 321.318C90.1084 321.318 90.8644 322.472 90.8644 324.122C90.8644 325.812 90.0884 326.827 88.6774 326.827H88.6764ZM98.1024 330.864H99.2754V326.827H99.3744C99.6334 327.244 100.13 328.159 101.601 328.159C103.51 328.159 104.843 326.628 104.843 324.202C104.843 321.795 103.51 320.264 101.581 320.264C100.09 320.264 99.6324 321.179 99.3744 321.577H99.2354V320.364H98.1024V330.864V330.864ZM99.2554 324.182C99.2554 322.472 100.01 321.318 101.442 321.318C102.934 321.318 103.669 322.571 103.669 324.182C103.669 325.812 102.914 327.105 101.442 327.105C100.03 327.105 99.2554 325.912 99.2554 324.182ZM109.735 328.159C111.803 328.159 113.195 326.588 113.195 324.222C113.195 321.835 111.803 320.264 109.735 320.264C107.667 320.264 106.275 321.835 106.275 324.222C106.275 326.588 107.667 328.159 109.735 328.159ZM109.735 327.105C108.164 327.105 107.448 325.753 107.448 324.222C107.448 322.691 108.164 321.318 109.735 321.318C111.306 321.318 112.022 322.69 112.022 324.222C112.022 325.754 111.306 327.105 109.735 327.105ZM116.456 328H117.61L119.28 322.134H119.4L121.07 328H122.223L124.55 320.364H123.317L121.667 326.19H121.587L119.976 320.364H118.723L117.093 326.21H117.013L115.363 320.364H114.13L116.456 328V328ZM129.043 328.159C130.594 328.159 131.728 327.384 132.086 326.23L130.952 325.912C130.654 326.707 129.963 327.105 129.043 327.105C127.666 327.105 126.716 326.215 126.662 324.58H132.205V324.082C132.205 321.239 130.515 320.264 128.924 320.264C126.856 320.264 125.483 321.895 125.483 324.241C125.483 326.587 126.836 328.159 129.043 328.159V328.159ZM126.662 323.565C126.741 322.377 127.581 321.318 128.924 321.318C130.197 321.318 131.012 322.273 131.012 323.565H126.662V323.565ZM133.99 328H135.163V323.168C135.163 322.134 135.979 321.378 137.092 321.378C137.333 321.381 137.573 321.407 137.808 321.457V320.264L137.192 320.244C136.277 320.244 135.481 320.761 135.203 321.517H135.123V320.364H133.99V328V328Z" fill="#636383"/>
    <path d="M185.913 293.912H190.706V296H191.879V293.912H193.271V292.818H191.879V285.818H190.387L185.913 292.897V293.911V293.912ZM190.706 292.818H187.245V292.738L190.626 287.389H190.706V292.818ZM196.425 294.608H195.153L195.093 295.165C194.949 296.512 194.665 297.854 194.536 298.486H195.431C195.67 297.81 196.177 296.278 196.346 295.145L196.425 294.608V294.608ZM198.341 293.912H203.133V296H204.307V293.912H205.699V292.818H204.307V285.818H202.815L198.341 292.897V293.911V293.912ZM203.133 292.818H199.673V292.738L203.054 287.389H203.133V292.818ZM211.005 285.818H209.772L207.226 287.508V288.761L209.712 287.11H209.772V296H211.005V285.818V285.818ZM217.314 296.139C219.372 296.164 220.714 294.613 220.714 292.719C220.714 290.75 219.257 289.338 217.512 289.338C216.463 289.338 215.564 289.85 215.007 290.69H214.927C214.932 288.209 215.897 286.772 217.473 286.772C218.547 286.772 219.193 287.448 219.422 288.363H220.635C220.386 286.782 219.183 285.678 217.473 285.678C215.181 285.678 213.774 287.706 213.774 291.306C213.774 295.069 215.643 296.118 217.314 296.138V296.139ZM217.314 295.045C216.036 295.045 215.101 293.957 215.106 292.739C215.111 291.521 216.091 290.432 217.353 290.432C218.601 290.432 219.521 291.456 219.521 292.719C219.521 294.011 218.561 295.045 217.314 295.045V295.045ZM223.066 296.08C223.303 296.079 223.53 295.984 223.697 295.816C223.865 295.649 223.96 295.422 223.961 295.185C223.96 294.948 223.865 294.721 223.697 294.554C223.53 294.386 223.303 294.291 223.066 294.29C222.829 294.291 222.602 294.386 222.435 294.554C222.267 294.721 222.172 294.948 222.171 295.185C222.172 295.422 222.267 295.649 222.435 295.816C222.602 295.984 222.829 296.079 223.066 296.08V296.08ZM229.012 296.139C231.259 296.139 232.551 294.235 232.551 290.909C232.551 287.608 231.239 285.679 229.012 285.679C226.785 285.679 225.472 287.608 225.472 290.909C225.472 294.235 226.765 296.139 229.012 296.139ZM229.012 295.045C227.53 295.045 226.665 293.559 226.665 290.909C226.665 288.264 227.54 286.753 229.012 286.753C230.484 286.753 231.358 288.264 231.358 290.909C231.358 293.559 230.493 295.045 229.012 295.045ZM237.762 296.139C240.009 296.139 241.301 294.235 241.301 290.909C241.301 287.608 239.989 285.679 237.762 285.679C235.535 285.679 234.222 287.608 234.222 290.909C234.222 294.235 235.515 296.139 237.762 296.139ZM237.762 295.045C236.28 295.045 235.415 293.559 235.415 290.909C235.415 288.264 236.29 286.753 237.762 286.753C239.234 286.753 240.108 288.264 240.108 290.909C240.108 293.559 239.243 295.045 237.762 295.045ZM253.989 285.818V292.46C253.989 293.952 252.965 295.026 251.265 295.026C249.565 295.026 248.54 293.952 248.54 292.46V285.818H247.307V292.56C247.307 294.648 248.868 296.179 251.265 296.179C253.662 296.179 255.222 294.648 255.222 292.56V285.818H253.989ZM263.252 288.363H264.445C264.391 286.827 262.974 285.678 261.005 285.678C259.056 285.678 257.525 286.811 257.525 288.522C257.525 289.894 258.519 290.71 260.11 291.167L261.363 291.525C262.437 291.823 263.392 292.201 263.392 293.215C263.392 294.329 262.318 295.064 260.906 295.064C259.693 295.064 258.619 294.527 258.519 293.374H257.247C257.366 295.044 258.718 296.178 260.906 296.178C263.252 296.178 264.585 294.885 264.585 293.235C264.585 291.326 262.775 290.709 261.721 290.431L260.687 290.153C259.931 289.954 258.718 289.556 258.718 288.463C258.718 287.489 259.613 286.773 260.965 286.773C262.198 286.773 263.133 287.36 263.252 288.364V288.363ZM269.754 295.999C272.856 295.999 274.606 294.07 274.606 290.888C274.606 287.726 272.856 285.817 269.893 285.817H266.612V296H269.754V295.999ZM267.845 294.905V286.911H269.814C272.2 286.911 273.413 288.422 273.413 290.888C273.413 293.374 272.2 294.905 269.674 294.905H267.845ZM275.694 286.911H278.895V296H280.128V286.912H283.33V285.818H275.694V286.912V286.911Z" fill="white"/>
    <path d="M49.2334 264H50.4664V259.446H54.8814V258.352H50.4664V254.912H55.3384V253.818H49.2334V264V264ZM59.9324 264.159C61.4834 264.159 62.6174 263.383 62.9754 262.23L61.8414 261.912C61.5434 262.708 60.8524 263.105 59.9324 263.105C58.5554 263.105 57.6054 262.215 57.5514 260.579H63.0944V260.082C63.0944 257.238 61.4044 256.264 59.8134 256.264C57.7454 256.264 56.3734 257.895 56.3734 260.241C56.3734 262.587 57.7254 264.159 59.9334 264.159H59.9324ZM57.5514 259.565C57.6314 258.377 58.4714 257.318 59.8134 257.318C61.0864 257.318 61.9014 258.272 61.9014 259.565H57.5514ZM68.0814 264.159C69.6324 264.159 70.7664 263.383 71.1244 262.23L69.9904 261.912C69.6924 262.708 69.0014 263.105 68.0814 263.105C66.7044 263.105 65.7544 262.215 65.7004 260.579H71.2434V260.082C71.2434 257.238 69.5534 256.264 67.9624 256.264C65.8944 256.264 64.5224 257.895 64.5224 260.241C64.5224 262.587 65.8744 264.159 68.0824 264.159H68.0814ZM65.7004 259.565C65.7804 258.377 66.6204 257.318 67.9624 257.318C69.2354 257.318 70.0504 258.272 70.0504 259.565H65.7004Z" fill="#636383"/>
    <path d="M116 249H83C81.3431 249 80 250.343 80 252V266C80 267.657 81.3431 269 83 269H116C117.657 269 119 267.657 119 266V252C119 250.343 117.657 249 116 249Z" fill="#3B3B4E"/>
    <path d="M86.4404 256.672H88.7064V263H89.8004V256.672H92.0694V255.727H86.4404V256.672ZM94.0724 263.121C94.9744 263.121 95.4824 262.663 95.6844 262.255H95.7274V263H96.7644V259.378C96.7644 257.791 95.5144 257.475 94.6484 257.475C93.6614 257.475 92.7524 257.873 92.3974 258.867L93.3954 259.094C93.5514 258.707 93.9494 258.334 94.6634 258.334C95.3484 258.334 95.7004 258.693 95.7004 259.311V259.336C95.7004 259.723 95.3024 259.716 94.3224 259.83C93.2894 259.951 92.2304 260.221 92.2304 261.46C92.2304 262.532 93.0364 263.122 94.0734 263.122L94.0724 263.121ZM94.3034 262.269C93.7034 262.269 93.2704 261.999 93.2704 261.473C93.2704 260.905 93.7744 260.702 94.3894 260.621C94.7334 260.575 95.5504 260.483 95.7034 260.33V261.033C95.7034 261.679 95.1884 262.269 94.3044 262.269H94.3034ZM98.1784 263H99.2404V261.065L99.7694 260.536L101.623 263H102.926L100.569 259.886L102.777 257.546H101.506L99.3334 259.854H99.2414V255.728H98.1794V263H98.1784ZM105.87 263.11C107.06 263.11 107.902 262.524 108.143 261.636L107.138 261.455C106.946 261.97 106.485 262.233 105.881 262.233C104.972 262.233 104.361 261.643 104.333 260.592H108.21V260.216C108.21 258.245 107.031 257.474 105.796 257.474C104.276 257.474 103.274 258.632 103.274 260.308C103.274 262.002 104.262 263.11 105.87 263.11V263.11ZM104.336 259.797C104.379 259.023 104.94 258.352 105.803 258.352C106.627 258.352 107.166 258.963 107.17 259.797H104.336ZM109.39 263H110.451V259.669C110.451 258.955 111.002 258.44 111.755 258.44C111.975 258.44 112.223 258.479 112.309 258.504V257.488C112.16 257.472 112.009 257.464 111.858 257.463C111.218 257.463 110.672 257.825 110.473 258.411H110.416V257.545H109.39V263Z" fill="#636383"/>
    <path d="M217.117 264.139C219.364 264.139 220.657 262.235 220.657 258.909C220.657 255.608 219.344 253.679 217.117 253.679C214.89 253.679 213.577 255.608 213.577 258.909C213.577 262.235 214.87 264.139 217.117 264.139ZM217.117 263.045C215.636 263.045 214.771 261.558 214.771 258.909C214.771 256.26 215.646 254.753 217.117 254.753C218.588 254.753 219.464 256.264 219.464 258.909C219.464 261.554 218.599 263.045 217.117 263.045ZM223.066 264.079C223.303 264.078 223.53 263.983 223.697 263.815C223.865 263.648 223.96 263.421 223.961 263.184C223.96 262.947 223.865 262.72 223.697 262.553C223.53 262.385 223.303 262.29 223.066 262.289C222.829 262.29 222.602 262.385 222.435 262.553C222.267 262.72 222.172 262.947 222.171 263.184C222.172 263.421 222.267 263.648 222.435 263.815C222.602 263.983 222.829 264.078 223.066 264.079V264.079ZM229.012 264.139C231.259 264.139 232.551 262.235 232.551 258.909C232.551 255.608 231.239 253.679 229.012 253.679C226.785 253.679 225.472 255.608 225.472 258.909C225.472 262.235 226.765 264.139 229.012 264.139ZM229.012 263.045C227.53 263.045 226.665 261.558 226.665 258.909C226.665 256.26 227.54 254.753 229.012 254.753C230.484 254.753 231.358 256.264 231.358 258.909C231.358 261.554 230.493 263.045 229.012 263.045ZM237.762 264.139C240.009 264.139 241.301 262.235 241.301 258.909C241.301 255.608 239.989 253.679 237.762 253.679C235.535 253.679 234.222 255.608 234.222 258.909C234.222 262.235 235.515 264.139 237.762 264.139ZM237.762 263.045C236.28 263.045 235.415 261.558 235.415 258.909C235.415 256.26 236.29 254.753 237.762 254.753C239.234 254.753 240.108 256.264 240.108 258.909C240.108 261.554 239.243 263.045 237.762 263.045ZM253.989 253.818V260.46C253.989 261.952 252.965 263.025 251.265 263.025C249.565 263.025 248.54 261.951 248.54 260.46V253.818H247.307V260.56C247.307 262.648 248.868 264.179 251.265 264.179C253.662 264.179 255.222 262.648 255.222 260.56V253.818H253.989V253.818ZM263.252 256.363H264.445C264.391 254.827 262.974 253.678 261.005 253.678C259.056 253.678 257.525 254.811 257.525 256.522C257.525 257.894 258.519 258.71 260.11 259.167L261.363 259.525C262.437 259.823 263.392 260.201 263.392 261.215C263.392 262.329 262.318 263.064 260.906 263.064C259.693 263.064 258.619 262.527 258.519 261.374H257.247C257.366 263.045 258.718 264.178 260.906 264.178C263.252 264.178 264.585 262.885 264.585 261.235C264.585 259.326 262.775 258.709 261.721 258.431L260.687 258.153C259.931 257.954 258.718 257.556 258.718 256.463C258.718 255.489 259.613 254.773 260.965 254.773C262.198 254.773 263.133 255.36 263.252 256.364V256.363ZM269.754 264C272.856 264 274.606 262.071 274.606 258.889C274.606 255.727 272.856 253.818 269.893 253.818H266.612V264H269.754V264ZM267.845 262.906V254.912H269.814C272.2 254.912 273.413 256.423 273.413 258.889C273.413 261.375 272.2 262.906 269.674 262.906H267.845ZM275.694 254.912H278.895V264H280.128V254.912H283.33V253.818H275.694V254.912V254.912ZM184.081 325.912H188.874V328H190.047V325.912H191.439V324.818H190.047V317.818H188.555L184.081 324.898V325.912V325.912ZM188.874 324.818H185.413V324.739L188.794 319.389H188.874V324.818ZM194.593 326.608H193.321L193.261 327.165C193.117 328.512 192.833 329.854 192.704 330.486H193.599C193.838 329.81 194.345 328.278 194.514 327.145L194.593 326.608V326.608ZM199.724 328.139C201.663 328.139 203.085 326.707 203.085 324.759C203.085 322.785 201.713 321.338 199.843 321.338C199.157 321.338 198.491 321.582 198.074 321.915H198.014L198.372 318.912H202.627V317.818H197.338L196.721 322.83L197.875 322.969C198.297 322.665 199.018 322.447 199.645 322.452C200.942 322.462 201.892 323.446 201.892 324.778C201.892 326.086 200.977 327.045 199.724 327.045C198.68 327.045 197.85 326.374 197.755 325.455H196.562C196.637 327.006 197.974 328.139 199.724 328.139V328.139ZM208.321 328.139C210.355 328.139 211.771 326.951 211.781 325.295C211.771 324.008 210.911 322.914 209.813 322.71V322.651C210.767 322.402 211.394 321.467 211.404 320.384C211.394 318.832 210.091 317.679 208.321 317.679C206.531 317.679 205.229 318.832 205.239 320.384C205.229 321.467 205.855 322.402 206.83 322.651V322.71C205.711 322.914 204.851 324.008 204.861 325.295C204.851 326.951 206.268 328.139 208.321 328.139V328.139ZM208.321 327.045C206.924 327.045 206.064 326.33 206.074 325.236C206.064 324.087 207.014 323.267 208.321 323.267C209.609 323.267 210.558 324.087 210.568 325.236C210.558 326.33 209.698 327.045 208.321 327.045ZM208.321 322.213C207.208 322.213 206.422 321.517 206.432 320.463C206.422 319.429 207.178 318.753 208.321 318.753C209.445 318.753 210.2 319.429 210.21 320.463C210.2 321.517 209.415 322.213 208.321 322.213ZM213.448 325.912H218.241V328H219.414V325.912H220.806V324.818H219.414V317.818H217.923L213.448 324.898V325.912ZM218.241 324.818H214.781V324.739L218.161 319.389H218.241V324.818ZM223.066 328.08C223.303 328.079 223.53 327.984 223.697 327.816C223.865 327.649 223.96 327.422 223.961 327.185C223.96 326.948 223.865 326.721 223.697 326.554C223.53 326.386 223.303 326.291 223.066 326.29C222.829 326.291 222.602 326.386 222.435 326.554C222.267 326.721 222.172 326.948 222.171 327.185C222.172 327.422 222.267 327.649 222.435 327.816C222.602 327.984 222.829 328.079 223.066 328.08V328.08ZM229.012 328.139C231.259 328.139 232.551 326.235 232.551 322.909C232.551 319.608 231.239 317.679 229.012 317.679C226.785 317.679 225.472 319.608 225.472 322.909C225.472 326.235 226.765 328.139 229.012 328.139ZM229.012 327.045C227.53 327.045 226.665 325.559 226.665 322.909C226.665 320.264 227.54 318.753 229.012 318.753C230.484 318.753 231.358 320.264 231.358 322.909C231.358 325.554 230.493 327.045 229.012 327.045ZM237.762 328.139C240.009 328.139 241.301 326.235 241.301 322.909C241.301 319.608 239.989 317.679 237.762 317.679C235.535 317.679 234.222 319.608 234.222 322.909C234.222 326.235 235.515 328.139 237.762 328.139ZM237.762 327.045C236.28 327.045 235.415 325.559 235.415 322.909C235.415 320.264 236.29 318.753 237.762 318.753C239.234 318.753 240.108 320.264 240.108 322.909C240.108 325.554 239.243 327.045 237.762 327.045ZM253.989 317.818V324.46C253.989 325.952 252.965 327.026 251.265 327.026C249.565 327.026 248.54 325.952 248.54 324.46V317.818H247.307V324.56C247.307 326.648 248.868 328.179 251.265 328.179C253.662 328.179 255.222 326.648 255.222 324.56V317.818H253.989V317.818ZM263.252 320.364H264.445C264.391 318.827 262.974 317.679 261.005 317.679C259.056 317.679 257.525 318.812 257.525 320.523C257.525 321.895 258.519 322.71 260.11 323.168L261.363 323.526C262.437 323.824 263.392 324.202 263.392 325.216C263.392 326.33 262.318 327.065 260.906 327.065C259.693 327.065 258.619 326.528 258.519 325.375H257.247C257.366 327.045 258.718 328.179 260.906 328.179C263.252 328.179 264.585 326.886 264.585 325.236C264.585 323.327 262.775 322.71 261.721 322.432L260.687 322.153C259.931 321.955 258.718 321.557 258.718 320.463C258.718 319.489 259.613 318.773 260.965 318.773C262.198 318.773 263.133 319.359 263.252 320.364V320.364ZM269.754 328C272.856 328 274.606 326.071 274.606 322.889C274.606 319.727 272.856 317.818 269.893 317.818H266.612V328H269.754V328ZM267.845 326.906V318.912H269.814C272.2 318.912 273.413 320.423 273.413 322.889C273.413 325.375 272.2 326.906 269.674 326.906H267.845ZM275.694 318.912H278.895V328H280.128V318.912H283.33V317.818H275.694V318.912V318.912Z" fill="white"/>
    <path fill-rule="evenodd" clip-rule="evenodd" d="M175.423 288.494L181 287L179.506 292.577L177.818 290.889L173.354 295.354L172.647 294.646L177.111 290.182L175.423 288.494V288.494Z" fill="#25D160"/>
    <path d="M284 233.5H48C39.4396 233.5 32.5 240.44 32.5 249V333C32.5 341.56 39.4396 348.5 48 348.5H284C292.56 348.5 299.5 341.56 299.5 333V249C299.5 240.44 292.56 233.5 284 233.5Z" stroke="#3B3B4E"/>
    <g opacity="0.85">
        <path opacity="0.85" d="M284 373H48C39.1634 373 32 380.163 32 389V412C32 420.837 39.1634 428 48 428H284C292.837 428 300 420.837 300 412V389C300 380.163 292.837 373 284 373Z" fill="url(#paint5_linear_23_857)"/>
        <g opacity="0.85" filter="url(#filter1_d_23_857)">
            <path opacity="0.85" d="M143.316 397.106V395.078H152.873V397.106H149.31V406.714H146.878V397.106H143.316ZM153.495 406.714V397.987H155.841V399.51H155.932C156.091 398.968 156.358 398.559 156.733 398.282C157.108 398.005 157.54 397.862 158.029 397.862C158.15 397.862 158.281 397.87 158.421 397.885C158.561 397.9 158.684 397.921 158.79 397.947V400.095C158.636 400.053 158.478 400.023 158.319 400.004C158.118 399.978 157.934 399.964 157.767 399.964C157.411 399.964 157.093 400.042 156.813 400.197C156.533 400.352 156.317 400.561 156.154 400.834C155.991 401.107 155.915 401.421 155.915 401.777V406.714H153.495V406.714ZM162.28 406.879C161.723 406.879 161.227 406.782 160.792 406.589C160.357 406.396 160.011 406.103 159.758 405.72C159.505 405.337 159.383 404.853 159.383 404.277C159.383 403.792 159.472 403.385 159.65 403.055C159.828 402.725 160.07 402.461 160.377 402.26C160.684 402.059 161.032 401.907 161.422 401.805C161.812 401.703 162.229 401.631 162.661 401.589L163.888 401.442C164.199 401.392 164.424 401.32 164.564 401.226C164.704 401.132 164.775 400.991 164.775 400.805V400.771C164.775 400.411 164.661 400.133 164.434 399.936C164.207 399.739 163.892 399.64 163.479 399.64C163.043 399.64 162.697 399.737 162.439 399.93C162.181 400.123 162.011 400.358 161.928 400.646L159.689 400.464C159.803 399.934 160.026 399.476 160.36 399.089C160.694 398.702 161.123 398.4 161.65 398.192C162.177 397.984 162.793 397.873 163.49 397.873C163.96 397.871 164.428 397.929 164.883 398.044C165.307 398.148 165.71 398.326 166.07 398.572C166.416 398.808 166.698 399.124 166.894 399.493C167.095 399.864 167.195 400.309 167.195 400.828V406.714H164.9V405.504H164.831C164.691 405.777 164.504 406.017 164.269 406.226C164.034 406.435 163.752 406.591 163.422 406.709C163.092 406.827 162.712 406.879 162.28 406.879ZM162.973 405.209C163.329 405.209 163.644 405.139 163.917 404.998C164.19 404.857 164.403 404.661 164.559 404.419C164.715 404.177 164.792 403.902 164.792 403.595V402.669C164.716 402.718 164.612 402.764 164.479 402.805L164.042 402.913L163.553 402.998L163.11 403.061C162.826 403.103 162.578 403.169 162.365 403.26C162.152 403.351 161.989 403.474 161.871 403.629C161.753 403.784 161.695 403.97 161.695 404.197C161.695 404.527 161.814 404.779 162.053 404.953C162.292 405.127 162.602 405.209 162.973 405.209V405.209ZM172.289 406.856C171.652 406.864 171.027 406.686 170.488 406.345C169.954 406 169.529 405.495 169.215 404.828C168.901 404.161 168.749 403.336 168.749 402.362C168.749 401.362 168.91 400.531 169.232 399.868C169.554 399.205 169.982 398.703 170.516 398.373C171.05 398.043 171.643 397.873 172.283 397.873C172.772 397.873 173.179 397.957 173.505 398.123C173.811 398.268 174.083 398.478 174.3 398.737C174.488 398.953 174.645 399.194 174.766 399.453H174.84V395.078H177.255V406.714H174.868V405.317H174.766C174.652 405.559 174.491 405.8 174.283 406.038C174.075 406.276 173.811 406.468 173.482 406.623C173.153 406.778 172.758 406.856 172.289 406.856V406.856ZM173.056 404.93C173.446 404.93 173.775 404.824 174.044 404.612C174.313 404.4 174.525 404.095 174.669 403.709C174.813 403.323 174.891 402.87 174.891 402.351C174.891 401.832 174.819 401.381 174.675 400.998C174.531 400.615 174.323 400.32 174.05 400.112C173.777 399.904 173.446 399.8 173.056 399.8C172.658 399.8 172.323 399.907 172.05 400.123C171.777 400.339 171.571 400.639 171.431 401.021C171.291 401.403 171.221 401.847 171.221 402.351C171.221 402.855 171.291 403.307 171.431 403.697C171.571 404.087 171.781 404.387 172.05 404.606C172.319 404.825 172.658 404.93 173.056 404.93ZM183.222 406.885C182.324 406.885 181.552 406.703 180.904 406.339C180.256 405.975 179.764 405.453 179.415 404.782C179.066 404.111 178.892 403.311 178.892 402.39C178.892 401.493 179.067 400.705 179.415 400.027C179.745 399.369 180.256 398.819 180.887 398.442C181.523 398.063 182.269 397.873 183.125 397.873C183.701 397.873 184.237 397.966 184.733 398.152C185.224 398.328 185.67 398.609 186.04 398.976C186.415 399.343 186.707 399.805 186.915 400.362C187.123 400.919 187.228 401.563 187.228 402.305V402.97H179.858V401.47H184.949C184.949 401.121 184.874 400.813 184.722 400.544C184.57 400.275 184.36 400.065 184.091 399.913C183.822 399.761 183.517 399.68 183.165 399.68C182.798 399.68 182.472 399.765 182.188 399.936C181.904 400.107 181.688 400.328 181.529 400.612C181.37 400.896 181.288 401.205 181.284 401.55V402.976C181.284 403.407 181.364 403.781 181.523 404.095C181.682 404.409 181.915 404.652 182.211 404.822C182.507 404.992 182.856 405.078 183.262 405.078C183.531 405.078 183.777 405.04 184 404.964C184.223 404.888 184.415 404.775 184.574 404.623C184.736 404.468 184.861 404.278 184.938 404.067L187.177 404.214C187.071 404.737 186.83 405.222 186.478 405.623C186.129 406.021 185.678 406.332 185.125 406.555C184.572 406.778 183.942 406.885 183.222 406.885V406.885Z" fill="white"/>
        </g>
    </g>
    <defs>
        <filter id="filter0_d_23_857" x="426" y="382" width="52" height="52" filterUnits="userSpaceOnUse" color-interpolation-filters="sRGB">
            <feFlood flood-opacity="0" result="BackgroundImageFix"/>
            <feColorMatrix in="SourceAlpha" type="matrix" values="0 0 0 0 0 0 0 0 0 0 0 0 0 0 0 0 0 0 127 0" result="hardAlpha"/>
            <feOffset/>
            <feGaussianBlur stdDeviation="11"/>
            <feColorMatrix type="matrix" values="0 0 0 0 0 0 0 0 0 0.517647 0 0 0 0 1 0 0 0 1 0"/>
            <feBlend mode="normal" in2="BackgroundImageFix" result="effect1_dropShadow_23_857"/>
            <feBlend mode="normal" in="SourceGraphic" in2="effect1_dropShadow_23_857" result="shape"/>
        </filter>
        <filter id="filter1_d_23_857" x="139.316" y="391.078" width="51.9121" height="19.807" filterUnits="userSpaceOnUse" color-interpolation-filters="sRGB">
            <feFlood flood-opacity="0" result="BackgroundImageFix"/>
            <feColorMatrix in="SourceAlpha" type="matrix" values="0 0 0 0 0 0 0 0 0 0 0 0 0 0 0 0 0 0 127 0" result="hardAlpha"/>
            <feOffset/>
            <feGaussianBlur stdDeviation="2"/>
            <feComposite in2="hardAlpha" operator="out"/>
            <feColorMatrix type="matrix" values="0 0 0 0 0 0 0 0 0 0 0 0 0 0 0 0 0 0 0.5 0"/>
            <feBlend mode="normal" in2="BackgroundImageFix" result="effect1_dropShadow_23_857"/>
            <feBlend mode="normal" in="SourceGraphic" in2="effect1_dropShadow_23_857" result="shape"/>
        </filter>
        <linearGradient id="paint0_linear_23_857" x1="392" y1="220" x2="412.178" y2="183.006" gradientUnits="userSpaceOnUse">
            <stop stop-color="#FF0387"/>
            <stop offset="1" stop-color="#FE7803"/>
        </linearGradient>
        <linearGradient id="paint1_linear_23_857" x1="522" y1="232" x2="573.682" y2="130.251" gradientUnits="userSpaceOnUse">
            <stop stop-color="#3BE300"/>
            <stop offset="1" stop-color="#00B2FF"/>
        </linearGradient>
        <linearGradient id="paint2_linear_23_857" x1="522" y1="232" x2="573.682" y2="130.251" gradientUnits="userSpaceOnUse">
            <stop stop-color="#3BE300"/>
            <stop offset="1" stop-color="#00B2FF"/>
        </linearGradient>
        <linearGradient id="paint3_linear_23_857" x1="534" y1="220" x2="553.931" y2="182.63" gradientUnits="userSpaceOnUse">
            <stop stop-color="#3BE300"/>
            <stop offset="1" stop-color="#00B2FF"/>
        </linearGradient>
        <linearGradient id="paint4_linear_23_857" x1="534" y1="196" x2="543.289" y2="166.972" gradientUnits="userSpaceOnUse">
            <stop stop-color="#3BE300"/>
            <stop offset="1" stop-color="#00B2FF"/>
        </linearGradient>
        <linearGradient id="paint5_linear_23_857" x1="32" y1="428" x2="53.662" y2="322.446" gradientUnits="userSpaceOnUse">
            <stop stop-color="#3BE300"/>
            <stop offset="1" stop-color="#00B2FF"/>
        </linearGradient>
    </defs>
</svg>
