<svg width="48" height="48" viewBox="0 0 48 48" fill="none" xmlns="http://www.w3.org/2000/svg">
<path d="M13 41.3864V39.0511L24.4034 26.233C25.892 24.5511 27.0909 23.1136 28 21.9205C28.9091 20.7273 29.5682 19.625 29.9773 18.6136C30.3977 17.6023 30.608 16.5511 30.608 15.4602C30.608 14.1307 30.2955 12.9716 29.6705 11.983C29.0568 10.983 28.2102 10.2045 27.1307 9.64773C26.0511 9.09091 24.8352 8.8125 23.483 8.8125C22.0511 8.8125 20.7955 9.11932 19.7159 9.73295C18.6477 10.3466 17.8182 11.1875 17.2273 12.2557C16.6364 13.3239 16.3409 14.5511 16.3409 15.9375H13.2898C13.2898 14.0057 13.733 12.2955 14.6193 10.8068C15.517 9.30682 16.7386 8.13068 18.2841 7.27841C19.8409 6.42614 21.6023 6 23.5682 6C25.5114 6 27.2386 6.42045 28.75 7.26136C30.2614 8.09091 31.4489 9.22159 32.3125 10.6534C33.1761 12.0852 33.608 13.6875 33.608 15.4602C33.608 16.7443 33.3807 17.9886 32.9261 19.1932C32.483 20.3977 31.7159 21.7386 30.625 23.2159C29.5341 24.6932 28.0227 26.5 26.0909 28.6364L17.4318 38.3011V38.5227H34.6989V41.3864H13Z" fill="#0085FF"/>
</svg>
